<svg width="24" height="24" viewBox="0 0 24 24" fill="none" xmlns="http://www.w3.org/2000/svg">
<path d="M8.65242 15.613L7.94531 16.3201" stroke="#1D1E25" stroke-width="1.5" stroke-linecap="round"/>
<path opacity="0.96" d="M19.5951 13.1533C18.8922 13.8562 16.4229 12.5265 14.0797 10.1834C11.7366 7.84025 10.4069 5.3709 11.1098 4.66795C11.8128 3.96501 14.2821 5.29466 16.6253 7.63781C18.9684 9.98096 20.2981 12.4503 19.5951 13.1533Z" stroke="#1D1E25" stroke-width="1.5" stroke-linejoin="round"/>
<path d="M19.597 13.1533L17.0514 15.6989C15.6455 17.1047 13.3661 17.1047 11.9603 15.6989L8.56614 12.3047C7.16025 10.8988 7.16025 8.61945 8.56614 7.21356L11.1117 4.66797" stroke="#1D1E25" stroke-width="1.5"/>
<path d="M12.8515 16.4164L7.45257 20.5746C6.37675 21.4099 4.84188 21.3092 3.87237 20.3397C2.90286 19.3702 2.80215 17.8353 3.63746 16.7595L7.85047 11.4016" stroke="#1D1E25" stroke-width="1.5"/>
<path d="M20.1019 4.16333L19.0586 5.20662" stroke="#1D1E25" stroke-width="1.5" stroke-linecap="round"/>
<path d="M16.9746 3.7765L17.1362 2.17822" stroke="#1D1E25" stroke-width="1.5" stroke-linecap="round"/>
<path d="M20.4648 7.35613L22.0231 7.1897" stroke="#1D1E25" stroke-width="1.5" stroke-linecap="round"/>
</svg>
