<svg width="48" height="48" viewBox="0 0 48 48" fill="none" xmlns="http://www.w3.org/2000/svg">
<path fill-rule="evenodd" clip-rule="evenodd" d="M39.7004 21.7228V20.9738C39.7003 17.0006 38.1219 13.19 35.3124 10.3805C32.5029 7.57097 28.6924 5.99254 24.7191 5.99243H23.221C19.2477 5.99247 15.4372 7.57088 12.6276 10.3804C9.81812 13.19 8.23975 17.0005 8.23975 20.9738V21.7228L12.159 22.4403L12.1021 20.0403C12.9195 14.2178 17.9208 9.73778 23.9686 9.73778H23.9701C29.9665 9.73778 34.9344 14.1415 35.816 19.8911L35.8538 22.4571L39.7004 21.7228Z" fill="url(#paint0_linear_2025_7578)"/>
<path fill-rule="evenodd" clip-rule="evenodd" d="M26.9664 40.4494H35.2061C36.5967 40.4494 37.9304 39.897 38.9137 38.9136C39.8971 37.9303 40.4495 36.5966 40.4496 35.206V33.7079C40.4494 33.5092 40.3705 33.3187 40.23 33.1783C40.0896 33.0378 39.8991 32.9588 39.7004 32.9587C39.5018 32.9588 39.3113 33.0378 39.1709 33.1783C39.0304 33.3187 38.9515 33.5092 38.9514 33.7079V35.206C38.9514 36.1993 38.5568 37.1519 37.8544 37.8543C37.152 38.5566 36.1994 38.9513 35.2061 38.9513H26.9664C26.7678 38.9514 26.5773 39.0303 26.4368 39.1708C26.2964 39.3112 26.2174 39.5017 26.2173 39.7003C26.2174 39.899 26.2964 40.0894 26.4368 40.2299C26.5773 40.3704 26.7678 40.4493 26.9664 40.4494Z" fill="url(#paint1_linear_2025_7578)"/>
<path fill-rule="evenodd" clip-rule="evenodd" d="M37.4534 21.7229H39.7005C40.6938 21.7229 41.6464 22.1175 42.3488 22.8199C43.0512 23.5223 43.4458 24.4749 43.4458 25.4683V29.9626C43.4459 30.4544 43.349 30.9415 43.1608 31.3959C42.9726 31.8504 42.6967 32.2633 42.3489 32.6111C42.0011 32.9589 41.5882 33.2347 41.1338 33.4229C40.6794 33.6111 40.1923 33.708 39.7005 33.7079H37.4534V21.7229Z" fill="url(#paint2_linear_2025_7578)"/>
<path fill-rule="evenodd" clip-rule="evenodd" d="M10.487 21.7229H8.23973C7.24644 21.723 6.29386 22.1176 5.59149 22.82C4.88912 23.5224 4.49449 24.475 4.49438 25.4683V29.9626C4.49446 30.9559 4.88908 31.9085 5.59145 32.6109C6.29382 33.3132 7.24643 33.7079 8.23973 33.7079H10.487V21.7229Z" fill="url(#paint3_linear_2025_7578)"/>
<path d="M25.4682 41.9476C26.7093 41.9476 27.7154 40.9415 27.7154 39.7004C27.7154 38.4592 26.7093 37.4531 25.4682 37.4531C24.2271 37.4531 23.2209 38.4592 23.2209 39.7004C23.2209 40.9415 24.2271 41.9476 25.4682 41.9476Z" fill="url(#paint4_linear_2025_7578)"/>
<path fill-rule="evenodd" clip-rule="evenodd" d="M37.4534 21.7227C37.4534 21.526 37.4146 21.3312 37.3393 21.1494C37.264 20.9677 37.1537 20.8025 37.0146 20.6634C36.8755 20.5243 36.7103 20.4139 36.5285 20.3386C36.3468 20.2634 36.152 20.2246 35.9552 20.2246H35.2061C34.8088 20.2246 34.4278 20.3825 34.1467 20.6634C33.8659 20.9444 33.708 21.3254 33.708 21.7227V33.7078C33.708 34.1051 33.8659 34.4861 34.1467 34.7671C34.4278 35.048 34.8088 35.2058 35.2061 35.2059H35.9552C36.152 35.2059 36.3468 35.1671 36.5286 35.0919C36.7103 35.0166 36.8755 34.9062 37.0146 34.7671C37.1537 34.628 37.2641 34.4628 37.3394 34.2811C37.4146 34.0993 37.4534 33.9045 37.4534 33.7078V21.7227Z" fill="url(#paint5_linear_2025_7578)"/>
<path fill-rule="evenodd" clip-rule="evenodd" d="M10.4871 21.7227C10.487 21.526 10.5258 21.3312 10.6011 21.1494C10.6763 20.9676 10.7867 20.8025 10.9258 20.6634C11.0649 20.5242 11.2301 20.4139 11.4118 20.3386C11.5936 20.2633 11.7884 20.2246 11.9852 20.2246H12.7342C13.1315 20.2247 13.5125 20.3826 13.7934 20.6635C14.0744 20.9444 14.2323 21.3254 14.2324 21.7227V33.7078C14.2324 33.9045 14.1937 34.0993 14.1184 34.2811C14.0431 34.4629 13.9327 34.628 13.7936 34.7671C13.6544 34.9062 13.4893 35.0166 13.3075 35.0919C13.1257 35.1671 12.9309 35.2059 12.7342 35.2059H11.9852C11.7884 35.2059 11.5936 35.1671 11.4118 35.0919C11.2301 35.0166 11.0649 34.9062 10.9258 34.7671C10.7867 34.628 10.6763 34.4628 10.6011 34.2811C10.5258 34.0993 10.487 33.9045 10.4871 33.7078V21.7227Z" fill="url(#paint6_linear_2025_7578)"/>
<defs>
<linearGradient id="paint0_linear_2025_7578" x1="8.23975" y1="14.2248" x2="39.7004" y2="14.2248" gradientUnits="userSpaceOnUse">
<stop stop-color="#F7F4FF"/>
<stop offset="1" stop-color="#008A95"/>
</linearGradient>
<linearGradient id="paint1_linear_2025_7578" x1="31.1884" y1="33.1332" x2="31.708" y2="40.5626" gradientUnits="userSpaceOnUse">
<stop stop-color="#3C1E07"/>
<stop offset="1" stop-color="#320D06"/>
</linearGradient>
<linearGradient id="paint2_linear_2025_7578" x1="39.5464" y1="22.002" x2="42.5118" y2="33.1591" gradientUnits="userSpaceOnUse">
<stop stop-color="#3C1E07"/>
<stop offset="1" stop-color="#320D06"/>
</linearGradient>
<linearGradient id="paint3_linear_2025_7578" x1="6.58749" y1="22.002" x2="9.55276" y2="33.1591" gradientUnits="userSpaceOnUse">
<stop stop-color="#3C1E07"/>
<stop offset="1" stop-color="#320D06"/>
</linearGradient>
<linearGradient id="paint4_linear_2025_7578" x1="25.2711" y1="38.1895" x2="25.2711" y2="48.0496" gradientUnits="userSpaceOnUse">
<stop stop-color="#DCEAF3"/>
<stop offset="1" stop-color="#97B7CE"/>
</linearGradient>
<linearGradient id="paint5_linear_2025_7578" x1="35.4164" y1="22.6791" x2="35.4164" y2="55.5454" gradientUnits="userSpaceOnUse">
<stop stop-color="#DCEAF3"/>
<stop offset="1" stop-color="#97B7CE"/>
</linearGradient>
<linearGradient id="paint6_linear_2025_7578" x1="12.1955" y1="22.6791" x2="12.1955" y2="55.5454" gradientUnits="userSpaceOnUse">
<stop stop-color="#DCEAF3"/>
<stop offset="1" stop-color="#97B7CE"/>
</linearGradient>
</defs>
</svg>
