<svg width="181" height="78" viewBox="0 0 181 78" fill="none" xmlns="http://www.w3.org/2000/svg">
<path d="M48.2526 34.5301C52.8864 27.1279 59.7444 25.0376 68.0026 25.9481C73.7787 26.5846 77.5428 30.0549 78.6452 35.745C79.0122 37.6198 79.1679 39.5194 79.2018 41.4364C79.3635 50.3891 79.5505 59.3465 79.7477 68.3036C79.7775 69.7703 79.6316 71.3267 80.0739 72.6737C80.8131 74.9406 79.8921 75.6681 77.8815 76.0682C74.8932 76.6704 71.9123 76.892 68.9294 76.2645C65.672 75.5768 64.1402 73.9235 63.6881 70.6034C63.5099 69.3016 63.5187 67.9704 63.4919 66.6503C63.3281 59.0892 63.1941 51.5275 63.0202 43.9667C62.9213 39.85 61.7789 38.1427 58.7946 37.4393C55.246 36.6058 52.243 37.9667 50.5446 41.2899C48.6275 45.053 48.1894 49.1712 48.2223 53.2792C48.2823 60.4627 47.923 67.67 49.0143 74.8124C49.1429 75.6598 48.7905 76.0016 48.0514 76.2342C44.1801 77.4514 40.2697 77.7629 36.3639 76.5419C33.4158 75.6201 32.3856 73.2324 32.2672 70.3964C32.1199 66.8779 32.0889 63.3521 32.0172 59.827C31.8472 51.4614 31.6819 43.0898 31.4967 34.7245C31.4669 33.2579 31.4371 31.781 31.2458 30.3329C30.8402 27.3053 30.7941 27.271 33.8239 26.7186C36.3595 26.2573 38.9063 26.0888 41.4889 26.4462C45.3959 26.9891 47.2234 28.7837 47.6266 32.6864C47.7198 33.5346 47.7523 34.3997 47.8102 35.2587L48.2526 34.5301ZM15.5055 45.7069C19.3797 45.3752 23.206 45.6319 26.9665 46.6737C27.3072 46.7679 27.6482 46.8668 27.9792 46.9764L28.1305 54.4266C27.004 54.2674 25.8487 54.2049 24.6296 54.2196C22.9811 54.2683 21.1836 54.4612 19.5153 55.2743C18.0875 55.9763 17.0668 57.035 16.6589 58.6219C16.4712 59.3442 16.4815 60.0777 16.5319 60.8153C16.7034 63.2759 18.0882 64.9428 20.4694 65.5926C21.843 65.9644 23.2405 65.9968 24.6501 65.8973C26.0495 65.798 27.2961 65.3828 28.3346 64.704L28.5212 73.9091C26.9092 75.0095 25.0929 75.7754 23.0993 76.2714C20.3204 76.9602 17.4991 77.0529 14.6559 76.8173C12.6387 76.6508 10.6675 76.2658 8.77995 75.5048C4.72413 73.8719 2.11388 70.9448 0.990882 66.7274C0.114203 63.4259 0.0162935 60.0929 0.819007 56.7674C1.95789 52.054 4.88398 48.8777 9.361 47.0917C11.0872 46.4057 12.8809 45.9936 14.7135 45.7811L15.5055 45.7069ZM114.061 0.988154C117.561 -0.0594397 121.138 -0.324657 124.715 0.437373C127.943 1.12571 129.463 2.99277 129.632 6.30358C129.79 9.38168 129.808 12.4677 129.871 15.5477C130.211 32.279 130.555 49.0107 130.89 65.7421C130.94 68.1696 130.949 70.6031 131.584 72.953C131.841 73.894 131.636 74.2727 130.751 74.5487C126.955 75.739 123.116 76.0495 119.268 74.9589C116.439 74.1562 115.27 71.949 114.918 68.5409L114.526 69.1415C110.584 75.1905 104.936 76.368 98.6452 76.0106C90.5854 75.547 84.796 71.0397 82.4235 63.1034C80.4531 56.5202 80.2054 49.7954 81.7692 43.0897C84.1479 32.9065 91.647 26.4391 102.168 25.2538C105.459 24.8833 108.757 24.5943 112.049 24.9979C113.809 25.215 114.161 24.56 114.062 22.953C113.659 16.0747 114.267 9.14517 113.06 2.30847C112.883 1.29025 113.458 1.16738 114.061 0.988154ZM154.299 23.7342C156.57 23.6729 158.283 23.7852 158.688 23.8124C162.174 24.0502 166.142 24.3237 170.37 26.454C171.954 27.2515 174.035 28.3226 175.857 30.5975C176.101 30.9063 177.286 32.4102 178.179 34.8104C179.293 37.7984 179.244 40.3551 179.277 41.4979C179.419 45.9882 179.474 50.4807 179.584 55.8622C179.739 59.7703 179.655 64.5792 179.95 69.3749C179.983 69.9231 180.234 70.4786 180.44 71.538L180.515 72.0497C180.539 72.2162 180.58 72.4988 180.455 72.7948C180.223 73.3257 179.614 73.5257 179.111 73.6776C176.949 74.3295 175.564 74.4908 175.546 74.493C174.834 74.5733 174.086 74.6542 173.054 74.66C172.017 74.6609 170.757 74.6665 169.206 74.2831C167.858 73.9462 166.684 73.6561 165.697 72.6542C164.979 71.9254 164.541 70.9993 164.498 70.9081C164.233 70.3316 164.059 69.7224 164.015 69.5614C163.944 69.2998 163.894 69.0831 163.86 68.9169C163.721 69.0715 163.514 69.2987 163.246 69.5673C162.552 70.2645 161.307 71.5147 159.548 72.5624C158.378 73.2591 157.408 73.6126 156.695 73.87C155.61 74.2614 153.085 75.0509 149.632 75.1464C147.533 75.2042 143.203 75.2671 138.924 72.8143C138.079 72.3306 136.874 71.6062 135.663 70.2596C133.577 67.9391 132.948 65.3655 132.654 64.1014C132.271 62.4498 132.248 61.0939 132.235 60.1835C132.224 59.3943 132.211 57.993 132.554 56.2255C132.82 54.864 133.309 52.4866 135.061 50.078C135.44 49.5542 136.17 48.6331 137.274 47.705C139.747 45.6257 142.359 44.9502 143.749 44.6083C144.65 44.3876 145.321 44.2932 146.057 44.1923C149.468 43.7232 152.155 43.9418 154.147 44.1239C155.11 44.2156 155.845 44.2868 156.851 44.494C158.497 44.8337 160.056 45.3663 160.067 45.37C161.932 46.01 162.722 46.5148 163.109 46.1581C163.293 45.9874 163.285 45.6276 163.286 44.9091C163.283 44.0291 163.144 43.3643 163.127 43.2733C162.752 41.515 162.522 40.4316 161.698 39.2137C160.947 38.0911 160.089 37.4459 159.688 37.1503C159.02 36.6529 158.221 36.2034 156.953 35.7587C156.29 35.5293 153.982 34.7664 150.222 34.7264C148.471 34.7064 146.82 34.6889 144.666 35.2235C141.746 35.9457 139.788 37.2151 139.155 37.6883C138.133 38.4579 137.653 38.9491 137.653 38.9491C137.415 39.1916 137.152 39.4194 136.914 39.662C136.477 40.106 136.265 40.3679 135.976 40.3485C135.789 40.3422 135.655 40.2186 135.578 40.1493C134.897 39.5306 134.436 37.4807 134.358 37.1483C134.355 37.1352 134.206 36.3853 134.19 35.6083C134.12 32.4207 136.039 29.8199 136.055 29.7977C136.966 28.5649 137.944 27.8922 138.778 27.3339C141.284 25.6435 143.622 25.1509 146.771 24.5253C150.117 23.8551 152.747 23.7759 154.299 23.7342ZM108.573 36.1698C102.702 36.3498 99.0548 39.1616 97.6413 44.7967C96.5693 49.0586 96.6317 53.3784 97.6745 57.6327C98.403 60.6133 99.9801 63.0249 103.127 63.9882C108.244 65.5539 112.528 63.0081 113.88 57.5516C114.894 53.4426 114.581 49.2537 114.502 45.0809L114.425 41.5614C114.35 37.8525 112.399 36.0551 108.573 36.1698ZM157.026 52.5966C155.707 52.679 154.393 52.7155 153.074 53.0458C149.968 53.8173 148.085 56.5729 148.776 59.701C149.094 61.1366 149.777 62.3774 151.203 63.077C153.646 64.2721 156.155 64.2414 158.701 63.537C160.592 63.0147 161.962 61.7518 162.742 60.0868L162.889 59.7528C163.607 57.9775 163.79 56.0158 163.507 54.0585C163.431 53.5237 163.038 53.3751 162.646 53.2616C160.814 52.7271 158.942 52.502 157.026 52.5966ZM21.8776 26.871C23.7789 26.8171 25.6819 26.8294 27.5768 26.9579L27.8454 40.1581C27.106 39.6268 26.2725 39.1989 25.36 38.8583C23.6318 38.2154 21.8351 37.9374 20.0065 37.8329C17.4027 37.6834 14.8141 37.8228 12.2829 38.5067C9.42466 39.2783 6.88659 40.6102 4.8776 42.8368C4.64991 43.0843 4.43228 43.3516 4.24577 43.6337C4.10376 43.8588 4.02186 43.8 3.89713 43.6307C3.29897 42.8283 2.92583 41.9199 2.70377 40.953C2.30387 39.2004 2.15144 37.4375 2.6569 35.6766C3.24718 33.6002 4.54161 32.0349 6.26725 30.8007C8.19237 29.4258 10.3668 28.6078 12.6471 28.0301C15.2945 27.3609 17.9878 27.0471 20.7067 26.9198L21.8776 26.871Z" fill="white"/>
</svg>
