<svg width="46" height="20" viewBox="0 0 46 20" fill="none" xmlns="http://www.w3.org/2000/svg">
<path d="M12.3783 8.59164C13.5531 6.85598 15.2516 6.3659 17.2826 6.58969C18.7503 6.75143 19.7065 7.63308 19.9867 9.07797C20.08 9.55403 20.1197 10.0365 20.1283 10.5233C20.1694 12.7969 20.2169 15.0718 20.267 17.3465C20.2746 17.719 20.2376 18.1148 20.35 18.4569C20.5379 19.0326 20.3034 19.2176 19.7924 19.3192C19.0332 19.472 18.2758 19.5283 17.518 19.369C16.6901 19.1943 16.3008 18.7737 16.1859 17.9305C16.1407 17.6002 16.1429 17.2625 16.1361 16.9276C16.0945 15.0073 16.0602 13.0861 16.016 11.1659C15.9909 10.1205 15.7002 9.68726 14.9418 9.50863C14.04 9.29702 13.2767 9.64226 12.8451 10.4862C12.3579 11.4419 12.2469 12.4878 12.2553 13.5311C12.2705 15.3555 12.1791 17.1859 12.4565 18.9998C12.4891 19.2151 12.3992 19.3021 12.2113 19.3612C11.2276 19.6702 10.2341 19.7493 9.24161 19.4393C8.49235 19.2052 8.23071 18.599 8.20059 17.8788C8.16313 16.9851 8.15532 16.0895 8.13712 15.1942C8.09391 13.0696 8.05137 10.9437 8.0043 8.81918C7.99673 8.44677 7.98942 8.07167 7.94083 7.70395C7.83774 6.93501 7.8261 6.92627 8.5961 6.78598C9.24048 6.66882 9.88802 6.62589 10.5443 6.71664C11.537 6.85461 12.0015 7.31048 12.1039 8.3016C12.1276 8.51696 12.1361 8.73681 12.1508 8.95492L12.3783 8.59164ZM3.94083 11.6082C4.92528 11.524 5.89738 11.5888 6.85294 11.8534C6.93958 11.8773 7.0266 11.9027 7.11075 11.9305L7.14883 13.8231C6.86257 13.7827 6.56898 13.7666 6.25919 13.7704C5.84027 13.7827 5.38334 13.8314 4.95938 14.0379C4.59657 14.2162 4.33747 14.4855 4.2338 14.8885C4.18619 15.0718 4.18876 15.2579 4.20157 15.4452C4.24514 16.0699 4.59665 16.4929 5.20157 16.658C5.55059 16.7524 5.90591 16.7614 6.26407 16.7362C6.61976 16.711 6.93662 16.6049 7.20059 16.4325L7.24844 18.7704C6.83877 19.0498 6.37719 19.245 5.87051 19.3709C5.16424 19.5459 4.44665 19.5695 3.72403 19.5096C3.2115 19.4673 2.71047 19.3689 2.23087 19.1756C1.20039 18.7609 0.536797 18.0179 0.251373 16.9471C0.0285695 16.1086 0.00439964 15.2614 0.208405 14.4168C0.497913 13.22 1.24162 12.4133 2.3793 11.9598C2.75528 11.8105 3.14382 11.7122 3.54044 11.6532L3.94083 11.6082ZM28.9877 0.250821C29.8773 -0.0152432 30.7865 -0.082389 31.6957 0.111173C32.5156 0.285983 32.9018 0.759894 32.9447 1.60043C32.9851 2.38221 32.9894 3.16679 33.0053 3.94906C33.0917 8.19809 33.1799 12.4471 33.265 16.6961C33.2776 17.3127 33.2795 17.9313 33.4408 18.5282C33.506 18.7669 33.4537 18.8634 33.2289 18.9334C32.2643 19.2356 31.2886 19.3139 30.3109 19.037C29.5919 18.8331 29.2951 18.2726 29.2055 17.4071L29.0072 17.7049C28.0109 19.1149 26.6169 19.3924 25.0697 19.3045C23.0214 19.1868 21.5506 18.0418 20.9477 16.0262C20.4469 14.3543 20.3832 12.6462 20.7807 10.9432C21.3852 8.3571 23.2915 6.71493 25.9652 6.41391C26.8015 6.31984 27.6395 6.24605 28.476 6.34848C28.9233 6.40364 29.0127 6.23709 28.9877 5.82895C28.8854 4.08236 29.0403 2.32278 28.7338 0.586758C28.6887 0.328094 28.8343 0.296343 28.9877 0.250821ZM39.2143 6.02816C39.7912 6.0126 40.2265 6.04079 40.3295 6.0477C41.2154 6.10809 42.2238 6.1776 43.2982 6.71859C43.7009 6.92111 44.2298 7.19281 44.6928 7.77035C44.7548 7.84875 45.0555 8.2312 45.2826 8.84066C45.5654 9.59929 45.5535 10.2485 45.5619 10.5389C45.598 11.6793 45.6122 12.8206 45.64 14.1873C45.6795 15.1799 45.6579 16.4011 45.7328 17.619C45.7401 17.7383 45.7879 17.859 45.8344 18.0604L45.8764 18.2987C45.8824 18.3409 45.8925 18.4122 45.8607 18.4871C45.8018 18.622 45.6477 18.6732 45.5199 18.7118C44.9728 18.8766 44.6217 18.9179 44.6137 18.9188C44.4329 18.9392 44.243 18.9603 43.9809 18.9618C43.7173 18.962 43.3965 18.9634 43.0023 18.8661C42.6599 18.7805 42.3615 18.7064 42.1107 18.452C41.929 18.2676 41.8176 18.0332 41.8061 18.0086C41.7389 17.8626 41.6943 17.7082 41.683 17.6668C41.6649 17.6004 41.6525 17.545 41.644 17.5028C41.6087 17.542 41.5557 17.5996 41.4877 17.6678C41.3113 17.8449 40.9945 18.1625 40.5473 18.4286C40.2501 18.6054 40.0039 18.6953 39.8227 18.7606C39.5469 18.86 38.9054 19.0606 38.0277 19.0848C37.4944 19.0995 36.3938 19.115 35.3061 18.492C35.0914 18.3692 34.7856 18.1854 34.4779 17.8436C33.9479 17.2544 33.788 16.6013 33.7133 16.2801C33.6161 15.8607 33.6103 15.5162 33.6068 15.285C33.6041 15.0846 33.6006 14.7281 33.6879 14.2791C33.7555 13.9334 33.8796 13.33 34.3246 12.7186C34.4209 12.5856 34.6066 12.3517 34.8871 12.1161C35.5155 11.588 36.1795 11.4158 36.5326 11.3289C36.7617 11.2729 36.9323 11.2491 37.1195 11.2235C37.9863 11.1044 38.6689 11.1596 39.1752 11.2059C39.42 11.2292 39.607 11.247 39.8627 11.2996C40.2824 11.3862 40.6801 11.5223 40.6801 11.5223C41.1537 11.6848 41.354 11.8129 41.4525 11.7225C41.4992 11.6791 41.4973 11.5876 41.4975 11.4051C41.4967 11.1819 41.4618 11.0132 41.4574 10.9901C41.3622 10.5435 41.3036 10.2681 41.0941 9.95883C40.9034 9.67395 40.6853 9.51048 40.5834 9.43539C40.4137 9.30905 40.2106 9.19484 39.8881 9.08188C39.7197 9.02361 39.1335 8.82937 38.1781 8.81918C37.7331 8.81408 37.3136 8.81039 36.766 8.94613C36.024 9.12953 35.5266 9.45188 35.3656 9.57211C35.1138 9.76168 34.991 9.88421 34.9838 9.89145C34.9233 9.95307 34.8558 10.0115 34.7953 10.0731C34.6846 10.1857 34.6304 10.2518 34.557 10.2469C34.5099 10.2452 34.4761 10.2147 34.4565 10.1971C34.2835 10.04 34.1656 9.51883 34.1459 9.43441C34.1446 9.42793 34.1069 9.23934 34.1029 9.04379C34.0851 8.23071 34.5775 7.56723 34.5775 7.56723C34.8088 7.25454 35.0573 7.08392 35.269 6.94223C35.9058 6.51294 36.5007 6.38726 37.3012 6.22836C38.1514 6.05824 38.8198 6.03875 39.2143 6.02816ZM27.5932 9.18637C26.1012 9.23209 25.1741 9.94574 24.8149 11.3768C24.5424 12.4591 24.5587 13.5561 24.8236 14.6366C25.0087 15.3934 25.409 16.0061 26.2084 16.2508C27.5089 16.6485 28.5984 16.0019 28.9418 14.6161C29.1996 13.5726 29.1203 12.5088 29.1 11.4491L29.0805 10.5555C29.0613 9.61364 28.5654 9.15731 27.5932 9.18637ZM39.9066 13.3582C39.5717 13.3792 39.2377 13.3877 38.9027 13.4715C38.1134 13.6674 37.6345 14.3676 37.81 15.162C37.8907 15.5265 38.0648 15.8417 38.4272 16.0194C39.0479 16.3229 39.6855 16.3154 40.3324 16.1366C40.781 16.0128 41.1143 15.7251 41.3178 15.3436L41.3969 15.1756C41.5793 14.7248 41.6259 14.2264 41.5541 13.7293C41.5346 13.5935 41.435 13.555 41.3354 13.5262C40.8697 13.3905 40.3935 13.3342 39.9066 13.3582ZM5.55997 6.82406C6.04314 6.81039 6.52666 6.81391 7.00821 6.84652L7.07657 10.1991C6.88865 10.0641 6.67668 9.95551 6.44473 9.86898C6.00554 9.70574 5.54908 9.63479 5.08438 9.60824C4.42266 9.57028 3.76477 9.60546 3.12149 9.77914C2.39521 9.97505 1.7502 10.3134 1.23965 10.8788C1.18178 10.9416 1.12593 11.0102 1.07852 11.0819C1.04263 11.1386 1.02217 11.1236 0.990631 11.0809C0.838693 10.8772 0.743365 10.6466 0.68692 10.4012C0.585279 9.95608 0.546702 9.50763 0.675202 9.06039C0.825246 8.5332 1.15374 8.13552 1.59219 7.82211C2.08147 7.47292 2.63472 7.26569 3.21426 7.11898C3.79079 6.97336 4.3758 6.89343 4.96622 6.85336L5.55997 6.82406Z" fill="#7850FB"/>
</svg>
