<svg width="48" height="48" viewBox="0 0 48 48" fill="none" xmlns="http://www.w3.org/2000/svg">
<path d="M44.9475 32.2666V36.647C44.9475 37.6956 44.0894 38.5537 43.0408 38.5537H39.2274C38.1788 38.5537 37.3207 37.6956 37.3207 36.647V33.9912H10.6268V36.647C10.6268 37.6956 9.7689 38.5537 8.72009 38.5537H4.9067C3.85807 38.5537 3 37.6956 3 36.647V32.2666H44.9475Z" fill="#1B96A1"/>
<path d="M44.9475 27.1136V34.7404H3V27.1136C3 27.1136 3 23.1762 6.57519 22.4612C6.69579 22.4332 6.81379 22.3949 6.92791 22.3469C7.49025 22.1085 7.90032 21.5841 8.01465 20.9644L8.46265 18.5335L9.49996 12.9029C9.91668 10.6415 11.8881 9 14.1876 9H33.7599C36.0594 9 38.031 10.6415 38.4476 12.9029L39.4849 18.5335L39.9329 20.9739C40.0472 21.5936 40.4573 22.1085 41.0198 22.3469C41.1339 22.395 41.2519 22.4332 41.3725 22.4612C44.9475 23.1762 44.9475 27.1136 44.9475 27.1136Z" fill="url(#paint0_linear_2025_7587)"/>
<path d="M43.4494 27.1136V33.2423H3V27.1136C3 27.1136 3 23.1762 6.57519 22.4612C6.69579 22.4332 6.81379 22.3949 6.92791 22.3469C7.49025 22.1085 7.90031 21.5841 8.01465 20.9644L8.46265 18.5335L9.49996 12.9029C9.91667 10.6415 11.8881 9 14.1876 9H32.2618C34.5614 9 36.5328 10.6415 36.9495 12.9029L37.9866 18.5335L38.4348 20.9739C38.5491 21.5936 38.959 22.1085 39.5215 22.3469C39.636 22.3945 39.7504 22.4326 39.8742 22.4612C43.4494 23.1762 43.4494 27.1136 43.4494 27.1136Z" fill="url(#paint1_linear_2025_7587)"/>
<path d="M8.46265 18.5334L8.01465 20.9644C7.90014 21.5841 7.49025 22.1085 6.92773 22.3468H3.95335C3.42894 22.3468 3 21.9177 3 21.3935C3 20.6021 3.32413 19.8872 3.83883 19.3723C4.10397 19.1064 4.419 18.8954 4.76584 18.7514C5.11268 18.6075 5.48452 18.5334 5.86005 18.5334H8.46265Z" fill="url(#paint2_linear_2025_7587)"/>
<path d="M44.9475 21.3935C44.9475 21.9177 44.5186 22.3468 43.9942 22.3468H41.0198C40.4573 22.1085 40.0472 21.5936 39.9329 20.9739L39.4849 18.5334H42.0875C42.8787 18.5334 43.5938 18.8576 44.1085 19.3723C44.3745 19.6374 44.5855 19.9524 44.7295 20.2992C44.8735 20.6461 44.9476 21.0179 44.9475 21.3935Z" fill="url(#paint3_linear_2025_7587)"/>
<path d="M13.2678 29.0202H8.46273C7.55235 29.0202 6.81348 28.2813 6.81348 27.3709V27.3672C6.81348 26.2202 7.81842 25.3327 8.95658 25.4747L12.7702 25.9514C13.2314 26.009 13.6556 26.2331 13.9632 26.5816C14.2708 26.9301 14.4404 27.379 14.4403 27.8438V27.8475C14.4402 28.1585 14.3166 28.4567 14.0968 28.6766C13.8769 28.8965 13.5787 29.0201 13.2678 29.0202Z" fill="url(#paint4_linear_2025_7587)"/>
<path d="M34.6798 29.0202H39.4849C40.3952 29.0202 41.1341 28.2813 41.1341 27.3709V27.3672C41.1341 26.2202 40.1293 25.3327 38.991 25.4747L35.1776 25.9514C34.7164 26.009 34.292 26.2331 33.9844 26.5816C33.6768 26.9301 33.5072 27.3789 33.5073 27.8438V27.8475C33.5074 28.1585 33.631 28.4567 33.8508 28.6766C34.0707 28.8965 34.3689 29.0201 34.6798 29.0202Z" fill="url(#paint5_linear_2025_7587)"/>
<path d="M35.8396 20.4402H12.1515C11.5577 20.4402 11.1086 19.9043 11.2125 19.321L12.2545 13.434C12.3328 12.9929 12.5639 12.5934 12.9073 12.3056C13.2508 12.0178 13.6845 11.8601 14.1326 11.8601H33.8241C34.7451 11.8601 35.5345 12.5179 35.7002 13.4236L36.7776 19.3152C36.8844 19.9006 36.4344 20.4402 35.8396 20.4402Z" fill="url(#paint6_linear_2025_7587)"/>
<path fill-rule="evenodd" clip-rule="evenodd" d="M21.6974 11.8601H19.2055L16.6204 20.4402H19.1124L21.6974 11.8601ZM29.1534 11.8601H24.0361L21.4509 20.4402H26.5682L29.1534 11.8601Z" fill="#E4E1FF"/>
<defs>
<linearGradient id="paint0_linear_2025_7587" x1="20.2284" y1="4.73178" x2="20.2284" y2="39.1888" gradientUnits="userSpaceOnUse">
<stop stop-color="#CFE1EE"/>
<stop offset="1" stop-color="#97B7CE"/>
</linearGradient>
<linearGradient id="paint1_linear_2025_7587" x1="21.4507" y1="12.9718" x2="21.4507" y2="66.1552" gradientUnits="userSpaceOnUse">
<stop stop-color="#DCEAF3"/>
<stop offset="1" stop-color="#97B7CE"/>
</linearGradient>
<linearGradient id="paint2_linear_2025_7587" x1="4.90801" y1="18.6222" x2="5.25758" y2="22.3905" gradientUnits="userSpaceOnUse">
<stop stop-color="#3C1E07"/>
<stop offset="1" stop-color="#320D06"/>
</linearGradient>
<linearGradient id="paint3_linear_2025_7587" x1="41.3929" y1="18.6222" x2="41.7424" y2="22.3905" gradientUnits="userSpaceOnUse">
<stop stop-color="#3C1E07"/>
<stop offset="1" stop-color="#320D06"/>
</linearGradient>
<linearGradient id="paint4_linear_2025_7587" x1="9.47737" y1="25.5426" x2="9.69668" y2="29.0777" gradientUnits="userSpaceOnUse">
<stop stop-color="#3C1E07"/>
<stop offset="1" stop-color="#320D06"/>
</linearGradient>
<linearGradient id="paint5_linear_2025_7587" x1="36.1712" y1="25.5426" x2="36.3905" y2="29.0777" gradientUnits="userSpaceOnUse">
<stop stop-color="#3C1E07"/>
<stop offset="1" stop-color="#320D06"/>
</linearGradient>
<linearGradient id="paint6_linear_2025_7587" x1="11.1975" y1="16.1502" x2="36.7934" y2="16.1502" gradientUnits="userSpaceOnUse">
<stop stop-color="#F7F4FF"/>
<stop offset="1" stop-color="#008A95"/>
</linearGradient>
</defs>
</svg>
