<svg width="1440" height="800" viewBox="0 0 1440 800" fill="none" xmlns="http://www.w3.org/2000/svg">
<g clip-path="url(#clip0_2128_5021)">
<rect width="1440" height="800" fill="#23242C"/>
<g opacity="0.18" filter="url(#filter0_f_2128_5021)">
<ellipse cx="1360.48" cy="659.597" rx="410" ry="211" fill="#0196A2"/>
</g>
<g opacity="0.18" filter="url(#filter1_f_2128_5021)">
<ellipse cx="410" cy="211" rx="410" ry="211" transform="matrix(1 0 0 -1 -454.516 383.597)" fill="#0196A2"/>
</g>
<g opacity="0.1" filter="url(#filter2_f_2128_5021)">
<ellipse cx="295.484" cy="759.597" rx="505" ry="211" fill="#0196A2"/>
</g>
<g opacity="0.1" filter="url(#filter3_f_2128_5021)">
<ellipse cx="1360.48" cy="4.59717" rx="505" ry="211" fill="#0196A2"/>
</g>
<rect x="0.734375" y="-0.152832" width="79.5" height="79.5" stroke="white" stroke-opacity="0.02" stroke-width="0.5"/>
<rect x="0.734375" y="79.8472" width="79.5" height="79.5" stroke="white" stroke-opacity="0.02" stroke-width="0.5"/>
<rect x="0.734375" y="159.847" width="79.5" height="79.5" stroke="white" stroke-opacity="0.02" stroke-width="0.5"/>
<rect x="0.734375" y="239.847" width="79.5" height="79.5" stroke="white" stroke-opacity="0.02" stroke-width="0.5"/>
<rect x="0.734375" y="319.847" width="79.5" height="79.5" stroke="white" stroke-opacity="0.02" stroke-width="0.5"/>
<rect x="0.734375" y="399.847" width="79.5" height="79.5" stroke="white" stroke-opacity="0.02" stroke-width="0.5"/>
<rect x="0.734375" y="479.847" width="79.5" height="79.5" stroke="white" stroke-opacity="0.02" stroke-width="0.5"/>
<rect x="0.734375" y="559.847" width="79.5" height="79.5" stroke="white" stroke-opacity="0.02" stroke-width="0.5"/>
<rect x="0.734375" y="639.847" width="79.5" height="79.5" stroke="white" stroke-opacity="0.02" stroke-width="0.5"/>
<rect x="0.734375" y="719.847" width="79.5" height="79.5" stroke="white" stroke-opacity="0.02" stroke-width="0.5"/>
<rect x="80.7344" y="-0.152832" width="79.5" height="79.5" stroke="white" stroke-opacity="0.02" stroke-width="0.5"/>
<rect x="80.7344" y="79.8472" width="79.5" height="79.5" stroke="white" stroke-opacity="0.02" stroke-width="0.5"/>
<rect x="80.7344" y="159.847" width="79.5" height="79.5" stroke="white" stroke-opacity="0.02" stroke-width="0.5"/>
<rect x="80.7344" y="239.847" width="79.5" height="79.5" stroke="white" stroke-opacity="0.02" stroke-width="0.5"/>
<rect x="80.7344" y="319.847" width="79.5" height="79.5" stroke="white" stroke-opacity="0.02" stroke-width="0.5"/>
<rect x="80.7344" y="399.847" width="79.5" height="79.5" stroke="white" stroke-opacity="0.02" stroke-width="0.5"/>
<rect x="80.7344" y="479.847" width="79.5" height="79.5" stroke="white" stroke-opacity="0.02" stroke-width="0.5"/>
<rect x="80.7344" y="559.847" width="79.5" height="79.5" stroke="white" stroke-opacity="0.02" stroke-width="0.5"/>
<rect x="80.7344" y="639.847" width="79.5" height="79.5" stroke="white" stroke-opacity="0.02" stroke-width="0.5"/>
<rect x="80.7344" y="719.847" width="79.5" height="79.5" stroke="white" stroke-opacity="0.02" stroke-width="0.5"/>
<rect x="160.734" y="-0.152832" width="79.5" height="79.5" stroke="white" stroke-opacity="0.02" stroke-width="0.5"/>
<rect x="160.734" y="79.8472" width="79.5" height="79.5" stroke="white" stroke-opacity="0.02" stroke-width="0.5"/>
<rect x="160.734" y="159.847" width="79.5" height="79.5" stroke="white" stroke-opacity="0.02" stroke-width="0.5"/>
<rect x="160.734" y="239.847" width="79.5" height="79.5" stroke="white" stroke-opacity="0.02" stroke-width="0.5"/>
<rect x="160.734" y="319.847" width="79.5" height="79.5" stroke="white" stroke-opacity="0.02" stroke-width="0.5"/>
<rect x="160.734" y="399.847" width="79.5" height="79.5" stroke="white" stroke-opacity="0.02" stroke-width="0.5"/>
<rect x="160.734" y="479.847" width="79.5" height="79.5" stroke="white" stroke-opacity="0.02" stroke-width="0.5"/>
<rect x="160.734" y="559.847" width="79.5" height="79.5" stroke="white" stroke-opacity="0.02" stroke-width="0.5"/>
<rect x="160.734" y="639.847" width="79.5" height="79.5" stroke="white" stroke-opacity="0.02" stroke-width="0.5"/>
<rect x="160.734" y="719.847" width="79.5" height="79.5" stroke="white" stroke-opacity="0.02" stroke-width="0.5"/>
<rect x="240.734" y="-0.152832" width="79.5" height="79.5" stroke="white" stroke-opacity="0.02" stroke-width="0.5"/>
<rect x="240.734" y="79.8472" width="79.5" height="79.5" stroke="white" stroke-opacity="0.02" stroke-width="0.5"/>
<rect x="240.734" y="159.847" width="79.5" height="79.5" stroke="white" stroke-opacity="0.02" stroke-width="0.5"/>
<rect x="240.734" y="239.847" width="79.5" height="79.5" stroke="white" stroke-opacity="0.02" stroke-width="0.5"/>
<rect x="240.734" y="319.847" width="79.5" height="79.5" stroke="white" stroke-opacity="0.02" stroke-width="0.5"/>
<rect x="240.734" y="399.847" width="79.5" height="79.5" stroke="white" stroke-opacity="0.02" stroke-width="0.5"/>
<rect x="240.734" y="479.847" width="79.5" height="79.5" stroke="white" stroke-opacity="0.02" stroke-width="0.5"/>
<rect x="240.734" y="559.847" width="79.5" height="79.5" stroke="white" stroke-opacity="0.02" stroke-width="0.5"/>
<rect x="240.734" y="639.847" width="79.5" height="79.5" stroke="white" stroke-opacity="0.02" stroke-width="0.5"/>
<rect x="240.734" y="719.847" width="79.5" height="79.5" stroke="white" stroke-opacity="0.02" stroke-width="0.5"/>
<rect x="320.734" y="-0.152832" width="79.5" height="79.5" stroke="white" stroke-opacity="0.02" stroke-width="0.5"/>
<rect x="320.734" y="79.8472" width="79.5" height="79.5" stroke="white" stroke-opacity="0.02" stroke-width="0.5"/>
<rect x="320.734" y="159.847" width="79.5" height="79.5" stroke="white" stroke-opacity="0.02" stroke-width="0.5"/>
<rect x="320.734" y="239.847" width="79.5" height="79.5" stroke="white" stroke-opacity="0.02" stroke-width="0.5"/>
<rect x="320.734" y="319.847" width="79.5" height="79.5" stroke="white" stroke-opacity="0.02" stroke-width="0.5"/>
<rect x="320.734" y="399.847" width="79.5" height="79.5" stroke="white" stroke-opacity="0.02" stroke-width="0.5"/>
<rect x="320.734" y="479.847" width="79.5" height="79.5" stroke="white" stroke-opacity="0.02" stroke-width="0.5"/>
<rect x="320.734" y="559.847" width="79.5" height="79.5" stroke="white" stroke-opacity="0.02" stroke-width="0.5"/>
<rect x="320.734" y="639.847" width="79.5" height="79.5" stroke="white" stroke-opacity="0.02" stroke-width="0.5"/>
<rect x="320.734" y="719.847" width="79.5" height="79.5" stroke="white" stroke-opacity="0.02" stroke-width="0.5"/>
<rect x="400.734" y="-0.152832" width="79.5" height="79.5" stroke="white" stroke-opacity="0.02" stroke-width="0.5"/>
<rect x="400.734" y="79.8472" width="79.5" height="79.5" stroke="white" stroke-opacity="0.02" stroke-width="0.5"/>
<rect x="400.734" y="159.847" width="79.5" height="79.5" stroke="white" stroke-opacity="0.02" stroke-width="0.5"/>
<rect x="400.734" y="239.847" width="79.5" height="79.5" stroke="white" stroke-opacity="0.02" stroke-width="0.5"/>
<rect x="400.734" y="319.847" width="79.5" height="79.5" stroke="white" stroke-opacity="0.02" stroke-width="0.5"/>
<rect x="400.734" y="399.847" width="79.5" height="79.5" stroke="white" stroke-opacity="0.02" stroke-width="0.5"/>
<rect x="400.734" y="479.847" width="79.5" height="79.5" stroke="white" stroke-opacity="0.02" stroke-width="0.5"/>
<rect x="400.734" y="559.847" width="79.5" height="79.5" stroke="white" stroke-opacity="0.02" stroke-width="0.5"/>
<rect x="400.734" y="639.847" width="79.5" height="79.5" stroke="white" stroke-opacity="0.02" stroke-width="0.5"/>
<rect x="400.734" y="719.847" width="79.5" height="79.5" stroke="white" stroke-opacity="0.02" stroke-width="0.5"/>
<rect x="480.734" y="-0.152832" width="79.5" height="79.5" stroke="white" stroke-opacity="0.02" stroke-width="0.5"/>
<rect x="480.734" y="79.8472" width="79.5" height="79.5" stroke="white" stroke-opacity="0.02" stroke-width="0.5"/>
<rect x="480.734" y="159.847" width="79.5" height="79.5" stroke="white" stroke-opacity="0.02" stroke-width="0.5"/>
<rect x="480.734" y="239.847" width="79.5" height="79.5" stroke="white" stroke-opacity="0.02" stroke-width="0.5"/>
<rect x="480.734" y="319.847" width="79.5" height="79.5" stroke="white" stroke-opacity="0.02" stroke-width="0.5"/>
<rect x="480.734" y="399.847" width="79.5" height="79.5" stroke="white" stroke-opacity="0.02" stroke-width="0.5"/>
<rect x="480.734" y="479.847" width="79.5" height="79.5" stroke="white" stroke-opacity="0.02" stroke-width="0.5"/>
<rect x="480.734" y="559.847" width="79.5" height="79.5" stroke="white" stroke-opacity="0.02" stroke-width="0.5"/>
<rect x="480.734" y="639.847" width="79.5" height="79.5" stroke="white" stroke-opacity="0.02" stroke-width="0.5"/>
<rect x="480.734" y="719.847" width="79.5" height="79.5" stroke="white" stroke-opacity="0.02" stroke-width="0.5"/>
<rect x="560.734" y="-0.152832" width="79.5" height="79.5" stroke="white" stroke-opacity="0.02" stroke-width="0.5"/>
<rect x="560.734" y="79.8472" width="79.5" height="79.5" stroke="white" stroke-opacity="0.02" stroke-width="0.5"/>
<rect x="560.734" y="159.847" width="79.5" height="79.5" stroke="white" stroke-opacity="0.02" stroke-width="0.5"/>
<rect x="560.734" y="239.847" width="79.5" height="79.5" stroke="white" stroke-opacity="0.02" stroke-width="0.5"/>
<rect x="560.734" y="319.847" width="79.5" height="79.5" stroke="white" stroke-opacity="0.02" stroke-width="0.5"/>
<rect x="560.734" y="399.847" width="79.5" height="79.5" stroke="white" stroke-opacity="0.02" stroke-width="0.5"/>
<rect x="560.734" y="479.847" width="79.5" height="79.5" stroke="white" stroke-opacity="0.02" stroke-width="0.5"/>
<rect x="560.734" y="559.847" width="79.5" height="79.5" stroke="white" stroke-opacity="0.02" stroke-width="0.5"/>
<rect x="560.734" y="639.847" width="79.5" height="79.5" stroke="white" stroke-opacity="0.02" stroke-width="0.5"/>
<rect x="560.734" y="719.847" width="79.5" height="79.5" stroke="white" stroke-opacity="0.02" stroke-width="0.5"/>
<rect x="640.734" y="-0.152832" width="79.5" height="79.5" stroke="white" stroke-opacity="0.02" stroke-width="0.5"/>
<rect x="640.734" y="79.8472" width="79.5" height="79.5" stroke="white" stroke-opacity="0.02" stroke-width="0.5"/>
<rect x="640.734" y="159.847" width="79.5" height="79.5" stroke="white" stroke-opacity="0.02" stroke-width="0.5"/>
<rect x="640.734" y="239.847" width="79.5" height="79.5" stroke="white" stroke-opacity="0.02" stroke-width="0.5"/>
<rect x="640.734" y="319.847" width="79.5" height="79.5" stroke="white" stroke-opacity="0.02" stroke-width="0.5"/>
<rect x="640.734" y="399.847" width="79.5" height="79.5" stroke="white" stroke-opacity="0.02" stroke-width="0.5"/>
<rect x="640.734" y="479.847" width="79.5" height="79.5" stroke="white" stroke-opacity="0.02" stroke-width="0.5"/>
<rect x="640.734" y="559.847" width="79.5" height="79.5" stroke="white" stroke-opacity="0.02" stroke-width="0.5"/>
<rect x="640.734" y="639.847" width="79.5" height="79.5" stroke="white" stroke-opacity="0.02" stroke-width="0.5"/>
<rect x="640.734" y="719.847" width="79.5" height="79.5" stroke="white" stroke-opacity="0.02" stroke-width="0.5"/>
<rect x="720.734" y="-0.152832" width="79.5" height="79.5" stroke="white" stroke-opacity="0.02" stroke-width="0.5"/>
<rect x="720.734" y="79.8472" width="79.5" height="79.5" stroke="white" stroke-opacity="0.02" stroke-width="0.5"/>
<rect x="720.734" y="159.847" width="79.5" height="79.5" stroke="white" stroke-opacity="0.02" stroke-width="0.5"/>
<rect x="720.734" y="239.847" width="79.5" height="79.5" stroke="white" stroke-opacity="0.02" stroke-width="0.5"/>
<rect x="720.734" y="319.847" width="79.5" height="79.5" stroke="white" stroke-opacity="0.02" stroke-width="0.5"/>
<rect x="720.734" y="399.847" width="79.5" height="79.5" stroke="white" stroke-opacity="0.02" stroke-width="0.5"/>
<rect x="720.734" y="479.847" width="79.5" height="79.5" stroke="white" stroke-opacity="0.02" stroke-width="0.5"/>
<rect x="720.734" y="559.847" width="79.5" height="79.5" stroke="white" stroke-opacity="0.02" stroke-width="0.5"/>
<rect x="720.734" y="639.847" width="79.5" height="79.5" stroke="white" stroke-opacity="0.02" stroke-width="0.5"/>
<rect x="720.734" y="719.847" width="79.5" height="79.5" stroke="white" stroke-opacity="0.02" stroke-width="0.5"/>
<rect x="800.734" y="-0.152832" width="79.5" height="79.5" stroke="white" stroke-opacity="0.02" stroke-width="0.5"/>
<rect x="800.734" y="79.8472" width="79.5" height="79.5" stroke="white" stroke-opacity="0.02" stroke-width="0.5"/>
<rect x="800.734" y="159.847" width="79.5" height="79.5" stroke="white" stroke-opacity="0.02" stroke-width="0.5"/>
<rect x="800.734" y="239.847" width="79.5" height="79.5" stroke="white" stroke-opacity="0.02" stroke-width="0.5"/>
<rect x="800.734" y="319.847" width="79.5" height="79.5" stroke="white" stroke-opacity="0.02" stroke-width="0.5"/>
<rect x="800.734" y="399.847" width="79.5" height="79.5" stroke="white" stroke-opacity="0.02" stroke-width="0.5"/>
<rect x="800.734" y="479.847" width="79.5" height="79.5" stroke="white" stroke-opacity="0.02" stroke-width="0.5"/>
<rect x="800.734" y="559.847" width="79.5" height="79.5" stroke="white" stroke-opacity="0.02" stroke-width="0.5"/>
<rect x="800.734" y="639.847" width="79.5" height="79.5" stroke="white" stroke-opacity="0.02" stroke-width="0.5"/>
<rect x="800.734" y="719.847" width="79.5" height="79.5" stroke="white" stroke-opacity="0.02" stroke-width="0.5"/>
<rect x="880.734" y="-0.152832" width="79.5" height="79.5" stroke="white" stroke-opacity="0.02" stroke-width="0.5"/>
<rect x="880.734" y="79.8472" width="79.5" height="79.5" stroke="white" stroke-opacity="0.02" stroke-width="0.5"/>
<rect x="880.734" y="159.847" width="79.5" height="79.5" stroke="white" stroke-opacity="0.02" stroke-width="0.5"/>
<rect x="880.734" y="239.847" width="79.5" height="79.5" stroke="white" stroke-opacity="0.02" stroke-width="0.5"/>
<rect x="880.734" y="319.847" width="79.5" height="79.5" stroke="white" stroke-opacity="0.02" stroke-width="0.5"/>
<rect x="880.734" y="399.847" width="79.5" height="79.5" stroke="white" stroke-opacity="0.02" stroke-width="0.5"/>
<rect x="880.734" y="479.847" width="79.5" height="79.5" stroke="white" stroke-opacity="0.02" stroke-width="0.5"/>
<rect x="880.734" y="559.847" width="79.5" height="79.5" stroke="white" stroke-opacity="0.02" stroke-width="0.5"/>
<rect x="880.734" y="639.847" width="79.5" height="79.5" stroke="white" stroke-opacity="0.02" stroke-width="0.5"/>
<rect x="880.734" y="719.847" width="79.5" height="79.5" stroke="white" stroke-opacity="0.02" stroke-width="0.5"/>
<rect x="960.734" y="-0.152832" width="79.5" height="79.5" stroke="white" stroke-opacity="0.02" stroke-width="0.5"/>
<rect x="960.734" y="79.8472" width="79.5" height="79.5" stroke="white" stroke-opacity="0.02" stroke-width="0.5"/>
<rect x="960.734" y="159.847" width="79.5" height="79.5" stroke="white" stroke-opacity="0.02" stroke-width="0.5"/>
<rect x="960.734" y="239.847" width="79.5" height="79.5" stroke="white" stroke-opacity="0.02" stroke-width="0.5"/>
<rect x="960.734" y="319.847" width="79.5" height="79.5" stroke="white" stroke-opacity="0.02" stroke-width="0.5"/>
<rect x="960.734" y="399.847" width="79.5" height="79.5" stroke="white" stroke-opacity="0.02" stroke-width="0.5"/>
<rect x="960.734" y="479.847" width="79.5" height="79.5" stroke="white" stroke-opacity="0.02" stroke-width="0.5"/>
<rect x="960.734" y="559.847" width="79.5" height="79.5" stroke="white" stroke-opacity="0.02" stroke-width="0.5"/>
<rect x="960.734" y="639.847" width="79.5" height="79.5" stroke="white" stroke-opacity="0.02" stroke-width="0.5"/>
<rect x="960.734" y="719.847" width="79.5" height="79.5" stroke="white" stroke-opacity="0.02" stroke-width="0.5"/>
<rect x="1040.73" y="-0.152832" width="79.5" height="79.5" stroke="white" stroke-opacity="0.02" stroke-width="0.5"/>
<rect x="1040.73" y="79.8472" width="79.5" height="79.5" stroke="white" stroke-opacity="0.02" stroke-width="0.5"/>
<rect x="1040.73" y="159.847" width="79.5" height="79.5" stroke="white" stroke-opacity="0.02" stroke-width="0.5"/>
<rect x="1040.73" y="239.847" width="79.5" height="79.5" stroke="white" stroke-opacity="0.02" stroke-width="0.5"/>
<rect x="1040.73" y="319.847" width="79.5" height="79.5" stroke="white" stroke-opacity="0.02" stroke-width="0.5"/>
<rect x="1040.73" y="399.847" width="79.5" height="79.5" stroke="white" stroke-opacity="0.02" stroke-width="0.5"/>
<rect x="1040.73" y="479.847" width="79.5" height="79.5" stroke="white" stroke-opacity="0.02" stroke-width="0.5"/>
<rect x="1040.73" y="559.847" width="79.5" height="79.5" stroke="white" stroke-opacity="0.02" stroke-width="0.5"/>
<rect x="1040.73" y="639.847" width="79.5" height="79.5" stroke="white" stroke-opacity="0.02" stroke-width="0.5"/>
<rect x="1040.73" y="719.847" width="79.5" height="79.5" stroke="white" stroke-opacity="0.02" stroke-width="0.5"/>
<rect x="1120.73" y="-0.152832" width="79.5" height="79.5" stroke="white" stroke-opacity="0.02" stroke-width="0.5"/>
<rect x="1120.73" y="79.8472" width="79.5" height="79.5" stroke="white" stroke-opacity="0.02" stroke-width="0.5"/>
<rect x="1120.73" y="159.847" width="79.5" height="79.5" stroke="white" stroke-opacity="0.02" stroke-width="0.5"/>
<rect x="1120.73" y="239.847" width="79.5" height="79.5" stroke="white" stroke-opacity="0.02" stroke-width="0.5"/>
<rect x="1120.73" y="319.847" width="79.5" height="79.5" stroke="white" stroke-opacity="0.02" stroke-width="0.5"/>
<rect x="1120.73" y="399.847" width="79.5" height="79.5" stroke="white" stroke-opacity="0.02" stroke-width="0.5"/>
<rect x="1120.73" y="479.847" width="79.5" height="79.5" stroke="white" stroke-opacity="0.02" stroke-width="0.5"/>
<rect x="1120.73" y="559.847" width="79.5" height="79.5" stroke="white" stroke-opacity="0.02" stroke-width="0.5"/>
<rect x="1120.73" y="639.847" width="79.5" height="79.5" stroke="white" stroke-opacity="0.02" stroke-width="0.5"/>
<rect x="1120.73" y="719.847" width="79.5" height="79.5" stroke="white" stroke-opacity="0.02" stroke-width="0.5"/>
<rect x="1200.73" y="-0.152832" width="79.5" height="79.5" stroke="white" stroke-opacity="0.02" stroke-width="0.5"/>
<rect x="1200.73" y="79.8472" width="79.5" height="79.5" stroke="white" stroke-opacity="0.02" stroke-width="0.5"/>
<rect x="1200.73" y="159.847" width="79.5" height="79.5" stroke="white" stroke-opacity="0.02" stroke-width="0.5"/>
<rect x="1200.73" y="239.847" width="79.5" height="79.5" stroke="white" stroke-opacity="0.02" stroke-width="0.5"/>
<rect x="1200.73" y="319.847" width="79.5" height="79.5" stroke="white" stroke-opacity="0.02" stroke-width="0.5"/>
<rect x="1200.73" y="399.847" width="79.5" height="79.5" stroke="white" stroke-opacity="0.02" stroke-width="0.5"/>
<rect x="1200.73" y="479.847" width="79.5" height="79.5" stroke="white" stroke-opacity="0.02" stroke-width="0.5"/>
<rect x="1200.73" y="559.847" width="79.5" height="79.5" stroke="white" stroke-opacity="0.02" stroke-width="0.5"/>
<rect x="1200.73" y="639.847" width="79.5" height="79.5" stroke="white" stroke-opacity="0.02" stroke-width="0.5"/>
<rect x="1200.73" y="719.847" width="79.5" height="79.5" stroke="white" stroke-opacity="0.02" stroke-width="0.5"/>
<rect x="1280.73" y="-0.152832" width="79.5" height="79.5" stroke="white" stroke-opacity="0.02" stroke-width="0.5"/>
<rect x="1280.73" y="79.8472" width="79.5" height="79.5" stroke="white" stroke-opacity="0.02" stroke-width="0.5"/>
<rect x="1280.73" y="159.847" width="79.5" height="79.5" stroke="white" stroke-opacity="0.02" stroke-width="0.5"/>
<rect x="1280.73" y="239.847" width="79.5" height="79.5" stroke="white" stroke-opacity="0.02" stroke-width="0.5"/>
<rect x="1280.73" y="319.847" width="79.5" height="79.5" stroke="white" stroke-opacity="0.02" stroke-width="0.5"/>
<rect x="1280.73" y="399.847" width="79.5" height="79.5" stroke="white" stroke-opacity="0.02" stroke-width="0.5"/>
<rect x="1280.73" y="479.847" width="79.5" height="79.5" stroke="white" stroke-opacity="0.02" stroke-width="0.5"/>
<rect x="1280.73" y="559.847" width="79.5" height="79.5" stroke="white" stroke-opacity="0.02" stroke-width="0.5"/>
<rect x="1280.73" y="639.847" width="79.5" height="79.5" stroke="white" stroke-opacity="0.02" stroke-width="0.5"/>
<rect x="1280.73" y="719.847" width="79.5" height="79.5" stroke="white" stroke-opacity="0.02" stroke-width="0.5"/>
<rect x="1360.73" y="-0.152832" width="79.5" height="79.5" stroke="white" stroke-opacity="0.02" stroke-width="0.5"/>
<rect x="1360.73" y="79.8472" width="79.5" height="79.5" stroke="white" stroke-opacity="0.02" stroke-width="0.5"/>
<rect x="1360.73" y="159.847" width="79.5" height="79.5" stroke="white" stroke-opacity="0.02" stroke-width="0.5"/>
<rect x="1360.73" y="239.847" width="79.5" height="79.5" stroke="white" stroke-opacity="0.02" stroke-width="0.5"/>
<rect x="1360.73" y="319.847" width="79.5" height="79.5" stroke="white" stroke-opacity="0.02" stroke-width="0.5"/>
<rect x="1360.73" y="399.847" width="79.5" height="79.5" stroke="white" stroke-opacity="0.02" stroke-width="0.5"/>
<rect x="1360.73" y="479.847" width="79.5" height="79.5" stroke="white" stroke-opacity="0.02" stroke-width="0.5"/>
<rect x="1360.73" y="559.847" width="79.5" height="79.5" stroke="white" stroke-opacity="0.02" stroke-width="0.5"/>
<rect x="1360.73" y="639.847" width="79.5" height="79.5" stroke="white" stroke-opacity="0.02" stroke-width="0.5"/>
<rect x="1360.73" y="719.847" width="79.5" height="79.5" stroke="white" stroke-opacity="0.02" stroke-width="0.5"/>
<g opacity="0.31">
<path d="M160.484 236.597L160.484 169.597" stroke="url(#paint0_linear_2128_5021)" stroke-linecap="round"/>
<path d="M160.484 240.597L160.484 307.597" stroke="url(#paint1_linear_2128_5021)" stroke-linecap="round"/>
<path d="M158.484 239.597L91.4844 239.597" stroke="url(#paint2_linear_2128_5021)" stroke-linecap="round"/>
<path d="M163.484 239.597L230.484 239.597" stroke="url(#paint3_linear_2128_5021)" stroke-linecap="round"/>
</g>
<circle cx="160.484" cy="239.597" r="3" fill="#B9B9B9"/>
<g opacity="0.31">
<path d="M400.484 397.597L400.484 330.597" stroke="url(#paint4_linear_2128_5021)" stroke-linecap="round"/>
<path d="M400.484 401.597L400.484 468.597" stroke="url(#paint5_linear_2128_5021)" stroke-linecap="round"/>
<path d="M398.484 400.597L331.484 400.597" stroke="url(#paint6_linear_2128_5021)" stroke-linecap="round"/>
<path d="M403.484 400.597L470.484 400.597" stroke="url(#paint7_linear_2128_5021)" stroke-linecap="round"/>
</g>
<circle cx="400.484" cy="400.597" r="3" fill="#B9B9B9"/>
<g opacity="0.31">
<path d="M1119.48 156.597L1119.48 89.5972" stroke="url(#paint8_linear_2128_5021)" stroke-linecap="round"/>
<path d="M1119.48 160.597L1119.48 227.597" stroke="url(#paint9_linear_2128_5021)" stroke-linecap="round"/>
<path d="M1117.48 159.597L1050.48 159.597" stroke="url(#paint10_linear_2128_5021)" stroke-linecap="round"/>
<path d="M1122.48 159.597L1189.48 159.597" stroke="url(#paint11_linear_2128_5021)" stroke-linecap="round"/>
</g>
<circle cx="1119.48" cy="159.597" r="3" fill="#B9B9B9"/>
<g opacity="0.31">
<path d="M1279.48 477.597L1279.48 410.597" stroke="url(#paint12_linear_2128_5021)" stroke-linecap="round"/>
<path d="M1279.48 481.597L1279.48 548.597" stroke="url(#paint13_linear_2128_5021)" stroke-linecap="round"/>
<path d="M1277.48 480.597L1210.48 480.597" stroke="url(#paint14_linear_2128_5021)" stroke-linecap="round"/>
<path d="M1282.48 480.597L1349.48 480.597" stroke="url(#paint15_linear_2128_5021)" stroke-linecap="round"/>
</g>
<circle cx="1279.48" cy="480.597" r="3" fill="#B9B9B9"/>
</g>
<defs>
<filter id="filter0_f_2128_5021" x="527.684" y="25.7972" width="1665.6" height="1267.6" filterUnits="userSpaceOnUse" color-interpolation-filters="sRGB">
<feFlood flood-opacity="0" result="BackgroundImageFix"/>
<feBlend mode="normal" in="SourceGraphic" in2="BackgroundImageFix" result="shape"/>
<feGaussianBlur stdDeviation="211.4" result="effect1_foregroundBlur_2128_5021"/>
</filter>
<filter id="filter1_f_2128_5021" x="-877.316" y="-461.203" width="1665.6" height="1267.6" filterUnits="userSpaceOnUse" color-interpolation-filters="sRGB">
<feFlood flood-opacity="0" result="BackgroundImageFix"/>
<feBlend mode="normal" in="SourceGraphic" in2="BackgroundImageFix" result="shape"/>
<feGaussianBlur stdDeviation="211.4" result="effect1_foregroundBlur_2128_5021"/>
</filter>
<filter id="filter2_f_2128_5021" x="-632.316" y="125.797" width="1855.6" height="1267.6" filterUnits="userSpaceOnUse" color-interpolation-filters="sRGB">
<feFlood flood-opacity="0" result="BackgroundImageFix"/>
<feBlend mode="normal" in="SourceGraphic" in2="BackgroundImageFix" result="shape"/>
<feGaussianBlur stdDeviation="211.4" result="effect1_foregroundBlur_2128_5021"/>
</filter>
<filter id="filter3_f_2128_5021" x="432.684" y="-629.203" width="1855.6" height="1267.6" filterUnits="userSpaceOnUse" color-interpolation-filters="sRGB">
<feFlood flood-opacity="0" result="BackgroundImageFix"/>
<feBlend mode="normal" in="SourceGraphic" in2="BackgroundImageFix" result="shape"/>
<feGaussianBlur stdDeviation="211.4" result="effect1_foregroundBlur_2128_5021"/>
</filter>
<linearGradient id="paint0_linear_2128_5021" x1="160.982" y1="169.597" x2="160.982" y2="236.597" gradientUnits="userSpaceOnUse">
<stop stop-color="white" stop-opacity="0"/>
<stop offset="0.377244" stop-color="white" stop-opacity="0.254543"/>
<stop offset="0.674507" stop-color="white" stop-opacity="0.511256"/>
<stop offset="0.925475" stop-color="white" stop-opacity="0.705164"/>
<stop offset="1" stop-color="white"/>
</linearGradient>
<linearGradient id="paint1_linear_2128_5021" x1="160.982" y1="307.597" x2="160.982" y2="240.597" gradientUnits="userSpaceOnUse">
<stop stop-color="white" stop-opacity="0"/>
<stop offset="0.377244" stop-color="white" stop-opacity="0.254543"/>
<stop offset="0.674507" stop-color="white" stop-opacity="0.511256"/>
<stop offset="0.925475" stop-color="white" stop-opacity="0.705164"/>
<stop offset="1" stop-color="white"/>
</linearGradient>
<linearGradient id="paint2_linear_2128_5021" x1="91.4844" y1="240.095" x2="158.484" y2="240.095" gradientUnits="userSpaceOnUse">
<stop stop-color="white" stop-opacity="0"/>
<stop offset="0.377244" stop-color="white" stop-opacity="0.254543"/>
<stop offset="0.674507" stop-color="white" stop-opacity="0.511256"/>
<stop offset="0.925475" stop-color="white" stop-opacity="0.705164"/>
<stop offset="1" stop-color="white"/>
</linearGradient>
<linearGradient id="paint3_linear_2128_5021" x1="230.484" y1="240.095" x2="163.484" y2="240.095" gradientUnits="userSpaceOnUse">
<stop stop-color="white" stop-opacity="0"/>
<stop offset="0.377244" stop-color="white" stop-opacity="0.254543"/>
<stop offset="0.674507" stop-color="white" stop-opacity="0.511256"/>
<stop offset="0.925475" stop-color="white" stop-opacity="0.705164"/>
<stop offset="1" stop-color="white"/>
</linearGradient>
<linearGradient id="paint4_linear_2128_5021" x1="400.982" y1="330.597" x2="400.982" y2="397.597" gradientUnits="userSpaceOnUse">
<stop stop-color="white" stop-opacity="0"/>
<stop offset="0.377244" stop-color="white" stop-opacity="0.254543"/>
<stop offset="0.674507" stop-color="white" stop-opacity="0.511256"/>
<stop offset="0.925475" stop-color="white" stop-opacity="0.705164"/>
<stop offset="1" stop-color="white"/>
</linearGradient>
<linearGradient id="paint5_linear_2128_5021" x1="400.982" y1="468.597" x2="400.982" y2="401.597" gradientUnits="userSpaceOnUse">
<stop stop-color="white" stop-opacity="0"/>
<stop offset="0.377244" stop-color="white" stop-opacity="0.254543"/>
<stop offset="0.674507" stop-color="white" stop-opacity="0.511256"/>
<stop offset="0.925475" stop-color="white" stop-opacity="0.705164"/>
<stop offset="1" stop-color="white"/>
</linearGradient>
<linearGradient id="paint6_linear_2128_5021" x1="331.484" y1="401.095" x2="398.484" y2="401.095" gradientUnits="userSpaceOnUse">
<stop stop-color="white" stop-opacity="0"/>
<stop offset="0.377244" stop-color="white" stop-opacity="0.254543"/>
<stop offset="0.674507" stop-color="white" stop-opacity="0.511256"/>
<stop offset="0.925475" stop-color="white" stop-opacity="0.705164"/>
<stop offset="1" stop-color="white"/>
</linearGradient>
<linearGradient id="paint7_linear_2128_5021" x1="470.484" y1="401.095" x2="403.484" y2="401.095" gradientUnits="userSpaceOnUse">
<stop stop-color="white" stop-opacity="0"/>
<stop offset="0.377244" stop-color="white" stop-opacity="0.254543"/>
<stop offset="0.674507" stop-color="white" stop-opacity="0.511256"/>
<stop offset="0.925475" stop-color="white" stop-opacity="0.705164"/>
<stop offset="1" stop-color="white"/>
</linearGradient>
<linearGradient id="paint8_linear_2128_5021" x1="1119.98" y1="89.5972" x2="1119.98" y2="156.597" gradientUnits="userSpaceOnUse">
<stop stop-color="white" stop-opacity="0"/>
<stop offset="0.377244" stop-color="white" stop-opacity="0.254543"/>
<stop offset="0.674507" stop-color="white" stop-opacity="0.511256"/>
<stop offset="0.925475" stop-color="white" stop-opacity="0.705164"/>
<stop offset="1" stop-color="white"/>
</linearGradient>
<linearGradient id="paint9_linear_2128_5021" x1="1119.98" y1="227.597" x2="1119.98" y2="160.597" gradientUnits="userSpaceOnUse">
<stop stop-color="white" stop-opacity="0"/>
<stop offset="0.377244" stop-color="white" stop-opacity="0.254543"/>
<stop offset="0.674507" stop-color="white" stop-opacity="0.511256"/>
<stop offset="0.925475" stop-color="white" stop-opacity="0.705164"/>
<stop offset="1" stop-color="white"/>
</linearGradient>
<linearGradient id="paint10_linear_2128_5021" x1="1050.48" y1="160.095" x2="1117.48" y2="160.095" gradientUnits="userSpaceOnUse">
<stop stop-color="white" stop-opacity="0"/>
<stop offset="0.377244" stop-color="white" stop-opacity="0.254543"/>
<stop offset="0.674507" stop-color="white" stop-opacity="0.511256"/>
<stop offset="0.925475" stop-color="white" stop-opacity="0.705164"/>
<stop offset="1" stop-color="white"/>
</linearGradient>
<linearGradient id="paint11_linear_2128_5021" x1="1189.48" y1="160.095" x2="1122.48" y2="160.095" gradientUnits="userSpaceOnUse">
<stop stop-color="white" stop-opacity="0"/>
<stop offset="0.377244" stop-color="white" stop-opacity="0.254543"/>
<stop offset="0.674507" stop-color="white" stop-opacity="0.511256"/>
<stop offset="0.925475" stop-color="white" stop-opacity="0.705164"/>
<stop offset="1" stop-color="white"/>
</linearGradient>
<linearGradient id="paint12_linear_2128_5021" x1="1279.98" y1="410.597" x2="1279.98" y2="477.597" gradientUnits="userSpaceOnUse">
<stop stop-color="white" stop-opacity="0"/>
<stop offset="0.377244" stop-color="white" stop-opacity="0.254543"/>
<stop offset="0.674507" stop-color="white" stop-opacity="0.511256"/>
<stop offset="0.925475" stop-color="white" stop-opacity="0.705164"/>
<stop offset="1" stop-color="white"/>
</linearGradient>
<linearGradient id="paint13_linear_2128_5021" x1="1279.98" y1="548.597" x2="1279.98" y2="481.597" gradientUnits="userSpaceOnUse">
<stop stop-color="white" stop-opacity="0"/>
<stop offset="0.377244" stop-color="white" stop-opacity="0.254543"/>
<stop offset="0.674507" stop-color="white" stop-opacity="0.511256"/>
<stop offset="0.925475" stop-color="white" stop-opacity="0.705164"/>
<stop offset="1" stop-color="white"/>
</linearGradient>
<linearGradient id="paint14_linear_2128_5021" x1="1210.48" y1="481.095" x2="1277.48" y2="481.095" gradientUnits="userSpaceOnUse">
<stop stop-color="white" stop-opacity="0"/>
<stop offset="0.377244" stop-color="white" stop-opacity="0.254543"/>
<stop offset="0.674507" stop-color="white" stop-opacity="0.511256"/>
<stop offset="0.925475" stop-color="white" stop-opacity="0.705164"/>
<stop offset="1" stop-color="white"/>
</linearGradient>
<linearGradient id="paint15_linear_2128_5021" x1="1349.48" y1="481.095" x2="1282.48" y2="481.095" gradientUnits="userSpaceOnUse">
<stop stop-color="white" stop-opacity="0"/>
<stop offset="0.377244" stop-color="white" stop-opacity="0.254543"/>
<stop offset="0.674507" stop-color="white" stop-opacity="0.511256"/>
<stop offset="0.925475" stop-color="white" stop-opacity="0.705164"/>
<stop offset="1" stop-color="white"/>
</linearGradient>
<clipPath id="clip0_2128_5021">
<rect width="1440" height="800" fill="white"/>
</clipPath>
</defs>
</svg>
