<svg width="424" height="432" viewBox="0 0 424 432" fill="none" xmlns="http://www.w3.org/2000/svg">
<rect x="0.5" y="0.5" width="423" height="431" rx="4.5" stroke="#8A38F5" stroke-dasharray="10 5"/>
<rect width="393" height="88" transform="translate(16 16)" fill="white"/>
<path d="M76.54 34.82L70.78 30.79C69.21 29.69 66.8 29.75 65.29 30.92L60.28 34.83C59.28 35.61 58.49 37.21 58.49 38.47V45.37C58.49 47.92 60.56 50 63.11 50H73.89C76.44 50 78.51 47.93 78.51 45.38V38.6C78.51 37.25 77.64 35.59 76.54 34.82ZM69.25 46C69.25 46.41 68.91 46.75 68.5 46.75C68.09 46.75 67.75 46.41 67.75 46V43C67.75 42.59 68.09 42.25 68.5 42.25C68.91 42.25 69.25 42.59 69.25 43V46Z" fill="#1D1E25"/>
<path d="M56.5986 64.218V60.2H58.2086V70H56.5986V65.758H52.3986V70H50.7886V60.2H52.3986V64.218H56.5986ZM65.8515 69.118C65.1422 69.8273 64.2695 70.182 63.2335 70.182C62.1975 70.182 61.3249 69.8273 60.6155 69.118C59.8969 68.3993 59.5375 67.5267 59.5375 66.5C59.5375 65.4733 59.8969 64.6007 60.6155 63.882C61.3249 63.1727 62.1975 62.818 63.2335 62.818C64.2695 62.818 65.1422 63.1727 65.8515 63.882C66.5702 64.6007 66.9295 65.4733 66.9295 66.5C66.9295 67.5267 66.5702 68.3993 65.8515 69.118ZM61.0495 66.5C61.0495 67.1347 61.2595 67.662 61.6795 68.082C62.0995 68.502 62.6175 68.712 63.2335 68.712C63.8495 68.712 64.3675 68.502 64.7875 68.082C65.2075 67.662 65.4175 67.1347 65.4175 66.5C65.4175 65.8653 65.2075 65.338 64.7875 64.918C64.3675 64.498 63.8495 64.288 63.2335 64.288C62.6175 64.288 62.0995 64.498 61.6795 64.918C61.2595 65.338 61.0495 65.8653 61.0495 66.5ZM75.8007 62.818C76.5941 62.818 77.2334 63.0747 77.7187 63.588C78.2041 64.1013 78.4467 64.792 78.4467 65.66V70H76.9347V65.758C76.9347 65.282 76.8134 64.9087 76.5707 64.638C76.3281 64.3673 75.9967 64.232 75.5767 64.232C75.1007 64.232 74.7274 64.3907 74.4567 64.708C74.1861 65.016 74.0507 65.4733 74.0507 66.08V70H72.5387V65.758C72.5387 65.2727 72.4221 64.8993 72.1887 64.638C71.9647 64.3673 71.6427 64.232 71.2227 64.232C70.7561 64.232 70.3781 64.3907 70.0887 64.708C69.8087 65.0253 69.6687 65.4827 69.6687 66.08V70H68.1567V63H69.6687V63.84C70.1167 63.1587 70.7841 62.818 71.6707 62.818C72.5667 62.818 73.2294 63.1867 73.6587 63.924C74.1161 63.1867 74.8301 62.818 75.8007 62.818ZM86.6869 67.144H81.1149C81.2269 67.6667 81.4789 68.0727 81.8709 68.362C82.2723 68.6513 82.7669 68.796 83.3549 68.796C84.1483 68.796 84.7503 68.5067 85.1609 67.928L86.4069 68.656C85.7256 69.6733 84.7036 70.182 83.3409 70.182C82.2116 70.182 81.2923 69.8367 80.5829 69.146C79.8829 68.446 79.5329 67.564 79.5329 66.5C79.5329 65.464 79.8783 64.5913 80.5689 63.882C81.2503 63.1727 82.1369 62.818 83.2289 62.818C84.2463 62.818 85.0863 63.1773 85.7489 63.896C86.4116 64.6147 86.7429 65.4873 86.7429 66.514C86.7429 66.7007 86.7243 66.9107 86.6869 67.144ZM81.1009 65.912H85.2169C85.1143 65.3613 84.8809 64.9367 84.5169 64.638C84.1623 64.3393 83.7283 64.19 83.2149 64.19C82.6549 64.19 82.1883 64.344 81.8149 64.652C81.4416 64.96 81.2036 65.38 81.1009 65.912Z" fill="#1D1E25"/>
<g opacity="0.6">
<path d="M164 49C169.247 49 173.5 44.7467 173.5 39.5C173.5 34.2533 169.247 30 164 30C158.753 30 154.5 34.2533 154.5 39.5C154.5 44.7467 158.753 49 164 49Z" stroke="#1D1E25" stroke-width="1.5" stroke-linecap="round" stroke-linejoin="round"/>
<path d="M174.5 50L172.5 48" stroke="#1D1E25" stroke-width="1.5" stroke-linecap="round" stroke-linejoin="round"/>
<path d="M146.553 70.182C145.639 70.182 144.855 69.972 144.201 69.552C143.557 69.1227 143.105 68.53 142.843 67.774L143.963 67.13C144.337 68.3153 145.209 68.908 146.581 68.908C147.244 68.908 147.753 68.7727 148.107 68.502C148.471 68.2313 148.653 67.8627 148.653 67.396C148.653 66.9387 148.476 66.5887 148.121 66.346C147.804 66.1313 147.211 65.884 146.343 65.604L145.405 65.296C145.2 65.212 144.929 65.0907 144.593 64.932C144.267 64.764 144.029 64.596 143.879 64.428C143.469 63.98 143.263 63.434 143.263 62.79C143.263 61.9313 143.562 61.2593 144.159 60.774C144.757 60.27 145.485 60.018 146.343 60.018C147.109 60.018 147.781 60.2093 148.359 60.592C148.938 60.9747 149.372 61.4973 149.661 62.16L148.569 62.79C148.149 61.782 147.407 61.278 146.343 61.278C145.811 61.278 145.382 61.4087 145.055 61.67C144.729 61.9313 144.565 62.286 144.565 62.734C144.565 63.1633 144.719 63.49 145.027 63.714C145.345 63.9473 145.877 64.1807 146.623 64.414L147.197 64.596C147.515 64.7173 147.687 64.7827 147.715 64.792C148.014 64.904 148.341 65.058 148.695 65.254C148.947 65.394 149.199 65.6087 149.451 65.898C149.778 66.2247 149.941 66.7147 149.941 67.368C149.941 68.2267 149.629 68.9127 149.003 69.426C148.369 69.93 147.552 70.182 146.553 70.182ZM158.101 67.06H152.235C152.356 67.676 152.641 68.1613 153.089 68.516C153.537 68.8613 154.097 69.034 154.769 69.034C155.693 69.034 156.365 68.6933 156.785 68.012L157.821 68.6C157.13 69.6547 156.104 70.182 154.741 70.182C153.64 70.182 152.734 69.8367 152.025 69.146C151.334 68.4367 150.989 67.5547 150.989 66.5C150.989 65.436 151.33 64.5587 152.011 63.868C152.692 63.168 153.574 62.818 154.657 62.818C155.684 62.818 156.519 63.182 157.163 63.91C157.816 64.6193 158.143 65.4873 158.143 66.514C158.143 66.6913 158.129 66.8733 158.101 67.06ZM154.657 63.966C154.013 63.966 153.472 64.148 153.033 64.512C152.604 64.876 152.338 65.3707 152.235 65.996H156.911C156.808 65.352 156.552 64.8527 156.141 64.498C155.73 64.1433 155.236 63.966 154.657 63.966ZM165.186 64.204V63H166.404V70H165.186V68.796C164.588 69.72 163.706 70.182 162.54 70.182C161.55 70.182 160.715 69.8273 160.034 69.118C159.343 68.3993 158.998 67.5267 158.998 66.5C158.998 65.4827 159.343 64.6147 160.034 63.896C160.724 63.1773 161.56 62.818 162.54 62.818C163.706 62.818 164.588 63.28 165.186 64.204ZM162.694 69.006C163.403 69.006 163.996 68.768 164.472 68.292C164.948 67.7973 165.186 67.2 165.186 66.5C165.186 65.7907 164.948 65.198 164.472 64.722C163.996 64.2367 163.403 63.994 162.694 63.994C161.994 63.994 161.406 64.2367 160.93 64.722C160.454 65.198 160.216 65.7907 160.216 66.5C160.216 67.2 160.454 67.7973 160.93 68.292C161.406 68.768 161.994 69.006 162.694 69.006ZM169.327 63V64.176C169.728 63.308 170.456 62.874 171.511 62.874V64.148C170.914 64.12 170.4 64.2787 169.971 64.624C169.542 64.9693 169.327 65.5247 169.327 66.29V70H168.109V63H169.327ZM175.47 70.182C174.415 70.182 173.538 69.832 172.838 69.132C172.138 68.4227 171.788 67.5453 171.788 66.5C171.788 65.4547 172.138 64.582 172.838 63.882C173.538 63.1727 174.415 62.818 175.47 62.818C176.16 62.818 176.781 62.986 177.332 63.322C177.882 63.6487 178.293 64.092 178.564 64.652L177.542 65.24C177.364 64.8667 177.089 64.568 176.716 64.344C176.352 64.12 175.936 64.008 175.47 64.008C174.77 64.008 174.182 64.246 173.706 64.722C173.239 65.2073 173.006 65.8 173.006 66.5C173.006 67.1907 173.239 67.7787 173.706 68.264C174.182 68.74 174.77 68.978 175.47 68.978C175.936 68.978 176.356 68.8707 176.73 68.656C177.103 68.432 177.388 68.1333 177.584 67.76L178.62 68.362C178.312 68.922 177.878 69.3653 177.318 69.692C176.758 70.0187 176.142 70.182 175.47 70.182ZM183.168 62.818C183.99 62.818 184.648 63.0793 185.142 63.602C185.637 64.1153 185.884 64.8153 185.884 65.702V70H184.666V65.772C184.666 65.212 184.512 64.7733 184.204 64.456C183.896 64.1387 183.472 63.98 182.93 63.98C182.305 63.98 181.81 64.176 181.446 64.568C181.082 64.9507 180.9 65.5247 180.9 66.29V70H179.682V60.2H180.9V64.008C181.386 63.2147 182.142 62.818 183.168 62.818Z" fill="#1D1E25"/>
</g>
<g opacity="0.6">
<path d="M256.5 30V33" stroke="#1D1E25" stroke-width="1.5" stroke-miterlimit="10" stroke-linecap="round" stroke-linejoin="round"/>
<path d="M264.5 30V33" stroke="#1D1E25" stroke-width="1.5" stroke-miterlimit="10" stroke-linecap="round" stroke-linejoin="round"/>
<path d="M255.5 41H263.5" stroke="#1D1E25" stroke-width="1.5" stroke-miterlimit="10" stroke-linecap="round" stroke-linejoin="round"/>
<path d="M255.5 45H260.5" stroke="#1D1E25" stroke-width="1.5" stroke-miterlimit="10" stroke-linecap="round" stroke-linejoin="round"/>
<path d="M264.5 31.5C267.83 31.68 269.5 32.95 269.5 37.65V43.83C269.5 47.95 268.5 50.01 263.5 50.01H257.5C252.5 50.01 251.5 47.95 251.5 43.83V37.65C251.5 32.95 253.17 31.69 256.5 31.5H264.5Z" stroke="#1D1E25" stroke-width="1.5" stroke-miterlimit="10" stroke-linecap="round" stroke-linejoin="round"/>
<path d="M246.075 64.358V60.2H247.363V70H246.075V65.59H241.315V70H240.013V60.2H241.315V64.358H246.075ZM249.81 61.726C249.577 61.726 249.381 61.6467 249.222 61.488C249.064 61.3293 248.984 61.138 248.984 60.914C248.984 60.69 249.064 60.4987 249.222 60.34C249.381 60.172 249.577 60.088 249.81 60.088C250.034 60.088 250.226 60.172 250.384 60.34C250.543 60.4987 250.622 60.69 250.622 60.914C250.622 61.138 250.543 61.3293 250.384 61.488C250.226 61.6467 250.034 61.726 249.81 61.726ZM250.412 70H249.194V63H250.412V70ZM253.167 64.89C253.167 65.338 253.629 65.688 254.553 65.94C254.898 66.0147 255.187 66.094 255.421 66.178C255.663 66.2527 255.925 66.3693 256.205 66.528C256.494 66.6867 256.713 66.8967 256.863 67.158C257.012 67.4193 257.087 67.7273 257.087 68.082C257.087 68.7167 256.839 69.2253 256.345 69.608C255.85 69.9907 255.225 70.182 254.469 70.182C253.797 70.182 253.213 70.0373 252.719 69.748C252.233 69.4493 251.888 69.048 251.683 68.544L252.733 67.942C252.845 68.278 253.055 68.544 253.363 68.74C253.671 68.936 254.039 69.034 254.469 69.034C254.889 69.034 255.225 68.9547 255.477 68.796C255.729 68.6373 255.855 68.3993 255.855 68.082C255.855 67.606 255.393 67.2607 254.469 67.046C254.161 66.962 253.927 66.8967 253.769 66.85C253.61 66.8033 253.391 66.7193 253.111 66.598C252.84 66.4767 252.635 66.3507 252.495 66.22C252.355 66.08 252.224 65.898 252.103 65.674C251.991 65.4407 251.935 65.184 251.935 64.904C251.935 64.2973 252.168 63.798 252.635 63.406C253.111 63.014 253.703 62.818 254.413 62.818C254.982 62.818 255.486 62.9487 255.925 63.21C256.373 63.462 256.709 63.8167 256.933 64.274L255.911 64.848C255.659 64.2507 255.159 63.952 254.413 63.952C254.058 63.952 253.759 64.036 253.517 64.204C253.283 64.372 253.167 64.6007 253.167 64.89ZM261.923 63V64.176H260.061V67.97C260.061 68.3153 260.127 68.5627 260.257 68.712C260.397 68.852 260.607 68.9267 260.887 68.936C261.167 68.936 261.513 68.9267 261.923 68.908V70C260.85 70.14 260.066 70.0513 259.571 69.734C259.086 69.4167 258.843 68.8287 258.843 67.97V64.176H257.457V63H258.843V61.404L260.061 61.04V63H261.923ZM268.778 69.118C268.069 69.8273 267.196 70.182 266.16 70.182C265.124 70.182 264.251 69.8273 263.542 69.118C262.833 68.4087 262.478 67.536 262.478 66.5C262.478 65.464 262.833 64.5913 263.542 63.882C264.251 63.1727 265.124 62.818 266.16 62.818C267.196 62.818 268.069 63.1727 268.778 63.882C269.497 64.6007 269.856 65.4733 269.856 66.5C269.856 67.5267 269.497 68.3993 268.778 69.118ZM266.16 68.992C266.86 68.992 267.448 68.754 267.924 68.278C268.4 67.802 268.638 67.2093 268.638 66.5C268.638 65.7907 268.4 65.198 267.924 64.722C267.448 64.246 266.86 64.008 266.16 64.008C265.469 64.008 264.886 64.246 264.41 64.722C263.934 65.198 263.696 65.7907 263.696 66.5C263.696 67.2093 263.934 67.802 264.41 68.278C264.886 68.754 265.469 68.992 266.16 68.992ZM272.37 63V64.176C272.771 63.308 273.499 62.874 274.554 62.874V64.148C273.956 64.12 273.443 64.2787 273.014 64.624C272.584 64.9693 272.37 65.5247 272.37 66.29V70H271.152V63H272.37ZM278.626 68.488L280.642 63H281.944L279.088 70.434C278.78 71.2273 278.355 71.8293 277.814 72.24C277.282 72.66 276.671 72.8467 275.98 72.8V71.666C276.839 71.7313 277.469 71.2553 277.87 70.238L277.996 69.972L274.944 63H276.246L278.626 68.488Z" fill="#1D1E25"/>
</g>
<g opacity="0.6">
<path d="M356.5 43C358.157 43 359.5 41.6569 359.5 40C359.5 38.3431 358.157 37 356.5 37C354.843 37 353.5 38.3431 353.5 40C353.5 41.6569 354.843 43 356.5 43Z" stroke="#1D1E25" stroke-width="1.5" stroke-miterlimit="10" stroke-linecap="round" stroke-linejoin="round"/>
<path d="M346.5 40.88V39.12C346.5 38.08 347.35 37.22 348.4 37.22C350.21 37.22 350.95 35.94 350.04 34.37C349.52 33.47 349.83 32.3 350.74 31.78L352.47 30.79C353.26 30.32 354.28 30.6 354.75 31.39L354.86 31.58C355.76 33.15 357.24 33.15 358.15 31.58L358.26 31.39C358.73 30.6 359.75 30.32 360.54 30.79L362.27 31.78C363.18 32.3 363.49 33.47 362.97 34.37C362.06 35.94 362.8 37.22 364.61 37.22C365.65 37.22 366.51 38.07 366.51 39.12V40.88C366.51 41.92 365.66 42.78 364.61 42.78C362.8 42.78 362.06 44.06 362.97 45.63C363.49 46.54 363.18 47.7 362.27 48.22L360.54 49.21C359.75 49.68 358.73 49.4 358.26 48.61L358.15 48.42C357.25 46.85 355.77 46.85 354.86 48.42L354.75 48.61C354.28 49.4 353.26 49.68 352.47 49.21L350.74 48.22C349.83 47.7 349.52 46.53 350.04 45.63C350.95 44.06 350.21 42.78 348.4 42.78C347.35 42.78 346.5 41.92 346.5 40.88Z" stroke="#1D1E25" stroke-width="1.5" stroke-miterlimit="10" stroke-linecap="round" stroke-linejoin="round"/>
<path d="M334.913 70.182C333.998 70.182 333.214 69.972 332.561 69.552C331.917 69.1227 331.464 68.53 331.203 67.774L332.323 67.13C332.696 68.3153 333.569 68.908 334.941 68.908C335.604 68.908 336.112 68.7727 336.467 68.502C336.831 68.2313 337.013 67.8627 337.013 67.396C337.013 66.9387 336.836 66.5887 336.481 66.346C336.164 66.1313 335.571 65.884 334.703 65.604L333.765 65.296C333.56 65.212 333.289 65.0907 332.953 64.932C332.626 64.764 332.388 64.596 332.239 64.428C331.828 63.98 331.623 63.434 331.623 62.79C331.623 61.9313 331.922 61.2593 332.519 60.774C333.116 60.27 333.844 60.018 334.703 60.018C335.468 60.018 336.14 60.2093 336.719 60.592C337.298 60.9747 337.732 61.4973 338.021 62.16L336.929 62.79C336.509 61.782 335.767 61.278 334.703 61.278C334.171 61.278 333.742 61.4087 333.415 61.67C333.088 61.9313 332.925 62.286 332.925 62.734C332.925 63.1633 333.079 63.49 333.387 63.714C333.704 63.9473 334.236 64.1807 334.983 64.414L335.557 64.596C335.874 64.7173 336.047 64.7827 336.075 64.792C336.374 64.904 336.7 65.058 337.055 65.254C337.307 65.394 337.559 65.6087 337.811 65.898C338.138 66.2247 338.301 66.7147 338.301 67.368C338.301 68.2267 337.988 68.9127 337.363 69.426C336.728 69.93 335.912 70.182 334.913 70.182ZM346.461 67.06H340.595C340.716 67.676 341.001 68.1613 341.449 68.516C341.897 68.8613 342.457 69.034 343.129 69.034C344.053 69.034 344.725 68.6933 345.145 68.012L346.181 68.6C345.49 69.6547 344.463 70.182 343.101 70.182C341.999 70.182 341.094 69.8367 340.385 69.146C339.694 68.4367 339.349 67.5547 339.349 66.5C339.349 65.436 339.689 64.5587 340.371 63.868C341.052 63.168 341.934 62.818 343.017 62.818C344.043 62.818 344.879 63.182 345.523 63.91C346.176 64.6193 346.503 65.4873 346.503 66.514C346.503 66.6913 346.489 66.8733 346.461 67.06ZM343.017 63.966C342.373 63.966 341.831 64.148 341.393 64.512C340.963 64.876 340.697 65.3707 340.595 65.996H345.271C345.168 65.352 344.911 64.8527 344.501 64.498C344.09 64.1433 343.595 63.966 343.017 63.966ZM351.366 63V64.176H349.504V67.97C349.504 68.3153 349.569 68.5627 349.7 68.712C349.84 68.852 350.05 68.9267 350.33 68.936C350.61 68.936 350.955 68.9267 351.366 68.908V70C350.292 70.14 349.508 70.0513 349.014 69.734C348.528 69.4167 348.286 68.8287 348.286 67.97V64.176H346.9V63H348.286V61.404L349.504 61.04V63H351.366ZM356.107 63V64.176H354.245V67.97C354.245 68.3153 354.31 68.5627 354.441 68.712C354.581 68.852 354.791 68.9267 355.071 68.936C355.351 68.936 355.696 68.9267 356.107 68.908V70C355.033 70.14 354.249 70.0513 353.755 69.734C353.269 69.4167 353.027 68.8287 353.027 67.97V64.176H351.641V63H353.027V61.404L354.245 61.04V63H356.107ZM358.025 61.726C357.791 61.726 357.595 61.6467 357.437 61.488C357.278 61.3293 357.199 61.138 357.199 60.914C357.199 60.69 357.278 60.4987 357.437 60.34C357.595 60.172 357.791 60.088 358.025 60.088C358.249 60.088 358.44 60.172 358.599 60.34C358.757 60.4987 358.837 60.69 358.837 60.914C358.837 61.138 358.757 61.3293 358.599 61.488C358.44 61.6467 358.249 61.726 358.025 61.726ZM358.627 70H357.409V63H358.627V70ZM363.831 62.818C364.652 62.818 365.31 63.0793 365.805 63.602C366.3 64.1153 366.547 64.8153 366.547 65.702V70H365.329V65.772C365.329 65.212 365.175 64.7733 364.867 64.456C364.559 64.1387 364.134 63.98 363.593 63.98C362.968 63.98 362.473 64.176 362.109 64.568C361.745 64.9507 361.563 65.5247 361.563 66.29V70H360.345V63H361.563V64.008C362.048 63.2147 362.804 62.818 363.831 62.818ZM373.917 64.204V63H375.121V69.706C375.121 70.742 374.771 71.5447 374.071 72.114C373.362 72.6927 372.522 72.982 371.551 72.982C370.767 72.982 370.091 72.8327 369.521 72.534C368.952 72.2447 368.523 71.8247 368.233 71.274L369.297 70.672C369.68 71.456 370.441 71.848 371.579 71.848C372.307 71.848 372.877 71.6567 373.287 71.274C373.707 70.8913 373.917 70.3687 373.917 69.706V68.712C373.301 69.6453 372.424 70.112 371.285 70.112C370.277 70.112 369.433 69.7573 368.751 69.048C368.061 68.3293 367.715 67.466 367.715 66.458C367.715 65.45 368.061 64.5913 368.751 63.882C369.433 63.1727 370.277 62.818 371.285 62.818C372.433 62.818 373.311 63.28 373.917 64.204ZM373.917 66.458C373.917 65.758 373.679 65.17 373.203 64.694C372.727 64.218 372.135 63.98 371.425 63.98C370.716 63.98 370.123 64.218 369.647 64.694C369.171 65.17 368.933 65.758 368.933 66.458C368.933 67.1673 369.171 67.76 369.647 68.236C370.123 68.712 370.716 68.95 371.425 68.95C372.135 68.95 372.727 68.712 373.203 68.236C373.679 67.76 373.917 67.1673 373.917 66.458ZM377.863 64.89C377.863 65.338 378.325 65.688 379.249 65.94C379.594 66.0147 379.884 66.094 380.117 66.178C380.36 66.2527 380.621 66.3693 380.901 66.528C381.19 66.6867 381.41 66.8967 381.559 67.158C381.708 67.4193 381.783 67.7273 381.783 68.082C381.783 68.7167 381.536 69.2253 381.041 69.608C380.546 69.9907 379.921 70.182 379.165 70.182C378.493 70.182 377.91 70.0373 377.415 69.748C376.93 69.4493 376.584 69.048 376.379 68.544L377.429 67.942C377.541 68.278 377.751 68.544 378.059 68.74C378.367 68.936 378.736 69.034 379.165 69.034C379.585 69.034 379.921 68.9547 380.173 68.796C380.425 68.6373 380.551 68.3993 380.551 68.082C380.551 67.606 380.089 67.2607 379.165 67.046C378.857 66.962 378.624 66.8967 378.465 66.85C378.306 66.8033 378.087 66.7193 377.807 66.598C377.536 66.4767 377.331 66.3507 377.191 66.22C377.051 66.08 376.92 65.898 376.799 65.674C376.687 65.4407 376.631 65.184 376.631 64.904C376.631 64.2973 376.864 63.798 377.331 63.406C377.807 63.014 378.4 62.818 379.109 62.818C379.678 62.818 380.182 62.9487 380.621 63.21C381.069 63.462 381.405 63.8167 381.629 64.274L380.607 64.848C380.355 64.2507 379.856 63.952 379.109 63.952C378.754 63.952 378.456 64.036 378.213 64.204C377.98 64.372 377.863 64.6007 377.863 64.89Z" fill="#1D1E25"/>
</g>
<rect width="393" height="88" transform="translate(16 117)" fill="white"/>
<g opacity="0.6">
<path d="M65.52 131.84L60.13 136.04C59.23 136.74 58.5 138.23 58.5 139.36V146.77C58.5 149.09 60.39 150.99 62.71 150.99H74.29C76.61 150.99 78.5 149.09 78.5 146.78V139.5C78.5 138.29 77.69 136.74 76.7 136.05L70.52 131.72C69.12 130.74 66.87 130.79 65.52 131.84Z" stroke="#1D1E25" stroke-width="1.5" stroke-linecap="round" stroke-linejoin="round"/>
<path d="M68.5 146.99V143.99" stroke="#1D1E25" stroke-width="1.5" stroke-linecap="round" stroke-linejoin="round"/>
<path d="M56.8659 165.358V161.2H58.1539V171H56.8659V166.59H52.1059V171H50.8039V161.2H52.1059V165.358H56.8659ZM65.8932 170.118C65.1839 170.827 64.3112 171.182 63.2752 171.182C62.2392 171.182 61.3665 170.827 60.6572 170.118C59.9479 169.409 59.5932 168.536 59.5932 167.5C59.5932 166.464 59.9479 165.591 60.6572 164.882C61.3665 164.173 62.2392 163.818 63.2752 163.818C64.3112 163.818 65.1839 164.173 65.8932 164.882C66.6119 165.601 66.9712 166.473 66.9712 167.5C66.9712 168.527 66.6119 169.399 65.8932 170.118ZM63.2752 169.992C63.9752 169.992 64.5632 169.754 65.0392 169.278C65.5152 168.802 65.7532 168.209 65.7532 167.5C65.7532 166.791 65.5152 166.198 65.0392 165.722C64.5632 165.246 63.9752 165.008 63.2752 165.008C62.5845 165.008 62.0012 165.246 61.5252 165.722C61.0492 166.198 60.8112 166.791 60.8112 167.5C60.8112 168.209 61.0492 168.802 61.5252 169.278C62.0012 169.754 62.5845 169.992 63.2752 169.992ZM75.8271 163.818C76.6204 163.818 77.2551 164.075 77.7311 164.588C78.2164 165.101 78.4591 165.787 78.4591 166.646V171H77.2411V166.688C77.2411 166.156 77.1011 165.741 76.8211 165.442C76.5504 165.134 76.1771 164.98 75.7011 164.98C75.1598 164.98 74.7351 165.162 74.4271 165.526C74.1284 165.881 73.9791 166.408 73.9791 167.108V171H72.7611V166.688C72.7611 166.156 72.6258 165.741 72.3551 165.442C72.0938 165.134 71.7344 164.98 71.2771 164.98C70.7451 164.98 70.3111 165.167 69.9751 165.54C69.6484 165.904 69.4851 166.427 69.4851 167.108V171H68.2671V164H69.4851V164.938C69.9611 164.191 70.6564 163.818 71.5711 163.818C72.5138 163.818 73.1998 164.215 73.6291 165.008C74.1144 164.215 74.8471 163.818 75.8271 163.818ZM86.7279 168.06H80.8619C80.9833 168.676 81.2679 169.161 81.7159 169.516C82.1639 169.861 82.7239 170.034 83.3959 170.034C84.3199 170.034 84.9919 169.693 85.4119 169.012L86.4479 169.6C85.7573 170.655 84.7306 171.182 83.3679 171.182C82.2666 171.182 81.3613 170.837 80.6519 170.146C79.9613 169.437 79.6159 168.555 79.6159 167.5C79.6159 166.436 79.9566 165.559 80.6379 164.868C81.3193 164.168 82.2013 163.818 83.2839 163.818C84.3106 163.818 85.1459 164.182 85.7899 164.91C86.4433 165.619 86.7699 166.487 86.7699 167.514C86.7699 167.691 86.7559 167.873 86.7279 168.06ZM83.2839 164.966C82.6399 164.966 82.0986 165.148 81.6599 165.512C81.2306 165.876 80.9646 166.371 80.8619 166.996H85.5379C85.4353 166.352 85.1786 165.853 84.7679 165.498C84.3573 165.143 83.8626 164.966 83.2839 164.966Z" fill="#1D1E25"/>
</g>
<path d="M164 150C169.247 150 173.5 145.747 173.5 140.5C173.5 135.253 169.247 131 164 131C158.753 131 154.5 135.253 154.5 140.5C154.5 145.747 158.753 150 164 150Z" fill="#1D1E25"/>
<path d="M173.8 151C173.62 151 173.44 150.93 173.31 150.8L171.45 148.94C171.18 148.67 171.18 148.23 171.45 147.95C171.72 147.68 172.16 147.68 172.44 147.95L174.3 149.81C174.57 150.08 174.57 150.52 174.3 150.8C174.16 150.93 173.98 151 173.8 151Z" fill="#1D1E25"/>
<path d="M146.472 171.182C145.529 171.182 144.727 170.972 144.064 170.552C143.411 170.123 142.953 169.53 142.692 168.774L144.078 167.962C144.47 169.063 145.282 169.614 146.514 169.614C147.111 169.614 147.564 169.497 147.872 169.264C148.18 169.031 148.334 168.718 148.334 168.326C148.334 167.934 148.171 167.631 147.844 167.416C147.517 167.201 146.939 166.968 146.108 166.716C145.259 166.464 144.573 166.165 144.05 165.82C143.415 165.372 143.098 164.714 143.098 163.846C143.098 162.978 143.406 162.292 144.022 161.788C144.629 161.275 145.371 161.018 146.248 161.018C147.023 161.018 147.704 161.209 148.292 161.592C148.889 161.965 149.347 162.493 149.664 163.174L148.306 163.958C147.895 163.043 147.209 162.586 146.248 162.586C145.781 162.586 145.408 162.698 145.128 162.922C144.848 163.137 144.708 163.431 144.708 163.804C144.708 164.168 144.848 164.457 145.128 164.672C145.408 164.877 145.926 165.097 146.682 165.33C147.149 165.489 147.419 165.582 147.494 165.61C147.615 165.647 147.858 165.741 148.222 165.89C148.521 166.011 148.759 166.142 148.936 166.282C149.664 166.851 150 167.523 149.944 168.298C149.944 169.185 149.622 169.889 148.978 170.412C148.353 170.925 147.517 171.182 146.472 171.182ZM158.046 168.144H152.474C152.586 168.667 152.838 169.073 153.23 169.362C153.632 169.651 154.126 169.796 154.714 169.796C155.508 169.796 156.11 169.507 156.52 168.928L157.766 169.656C157.085 170.673 156.063 171.182 154.7 171.182C153.571 171.182 152.652 170.837 151.942 170.146C151.242 169.446 150.892 168.564 150.892 167.5C150.892 166.464 151.238 165.591 151.928 164.882C152.61 164.173 153.496 163.818 154.588 163.818C155.606 163.818 156.446 164.177 157.108 164.896C157.771 165.615 158.102 166.487 158.102 167.514C158.102 167.701 158.084 167.911 158.046 168.144ZM152.46 166.912H156.576C156.474 166.361 156.24 165.937 155.876 165.638C155.522 165.339 155.088 165.19 154.574 165.19C154.014 165.19 153.548 165.344 153.174 165.652C152.801 165.96 152.563 166.38 152.46 166.912ZM164.796 164.994V164H166.308V171H164.796V169.992C164.226 170.785 163.41 171.182 162.346 171.182C161.384 171.182 160.563 170.827 159.882 170.118C159.2 169.409 158.86 168.536 158.86 167.5C158.86 166.464 159.2 165.591 159.882 164.882C160.563 164.173 161.384 163.818 162.346 163.818C163.41 163.818 164.226 164.21 164.796 164.994ZM161.002 169.11C161.422 169.53 161.949 169.74 162.584 169.74C163.218 169.74 163.746 169.53 164.166 169.11C164.586 168.681 164.796 168.144 164.796 167.5C164.796 166.856 164.586 166.324 164.166 165.904C163.746 165.475 163.218 165.26 162.584 165.26C161.949 165.26 161.422 165.475 161.002 165.904C160.582 166.324 160.372 166.856 160.372 167.5C160.372 168.135 160.582 168.671 161.002 169.11ZM169.442 164V165.176C169.825 164.308 170.543 163.874 171.598 163.874V165.512C171.029 165.475 170.525 165.615 170.086 165.932C169.657 166.24 169.442 166.753 169.442 167.472V171H167.93V164H169.442ZM175.551 171.182C174.497 171.182 173.615 170.827 172.905 170.118C172.205 169.399 171.855 168.527 171.855 167.5C171.855 166.455 172.205 165.582 172.905 164.882C173.615 164.173 174.497 163.818 175.551 163.818C176.233 163.818 176.853 163.981 177.413 164.308C177.973 164.635 178.393 165.073 178.673 165.624L177.371 166.38C177.213 166.044 176.97 165.783 176.643 165.596C176.326 165.4 175.957 165.302 175.537 165.302C174.921 165.302 174.403 165.512 173.983 165.932C173.573 166.361 173.367 166.884 173.367 167.5C173.367 168.116 173.573 168.639 173.983 169.068C174.403 169.488 174.921 169.698 175.537 169.698C175.948 169.698 176.317 169.605 176.643 169.418C176.979 169.222 177.231 168.956 177.399 168.62L178.701 169.362C178.403 169.922 177.969 170.365 177.399 170.692C176.839 171.019 176.223 171.182 175.551 171.182ZM183.336 163.818C184.148 163.818 184.797 164.079 185.282 164.602C185.777 165.115 186.024 165.815 186.024 166.702V171H184.512V166.856C184.512 166.333 184.372 165.932 184.092 165.652C183.812 165.372 183.429 165.232 182.944 165.232C182.393 165.232 181.959 165.405 181.642 165.75C181.325 166.086 181.166 166.585 181.166 167.248V171H179.654V161.2H181.166V164.896C181.633 164.177 182.356 163.818 183.336 163.818Z" fill="#1D1E25"/>
<g opacity="0.6">
<path d="M256.5 131V134" stroke="#1D1E25" stroke-width="1.5" stroke-miterlimit="10" stroke-linecap="round" stroke-linejoin="round"/>
<path d="M264.5 131V134" stroke="#1D1E25" stroke-width="1.5" stroke-miterlimit="10" stroke-linecap="round" stroke-linejoin="round"/>
<path d="M255.5 142H263.5" stroke="#1D1E25" stroke-width="1.5" stroke-miterlimit="10" stroke-linecap="round" stroke-linejoin="round"/>
<path d="M255.5 146H260.5" stroke="#1D1E25" stroke-width="1.5" stroke-miterlimit="10" stroke-linecap="round" stroke-linejoin="round"/>
<path d="M264.5 132.5C267.83 132.68 269.5 133.95 269.5 138.65V144.83C269.5 148.95 268.5 151.01 263.5 151.01H257.5C252.5 151.01 251.5 148.95 251.5 144.83V138.65C251.5 133.95 253.17 132.69 256.5 132.5H264.5Z" stroke="#1D1E25" stroke-width="1.5" stroke-miterlimit="10" stroke-linecap="round" stroke-linejoin="round"/>
<path d="M246.075 165.358V161.2H247.363V171H246.075V166.59H241.315V171H240.013V161.2H241.315V165.358H246.075ZM249.81 162.726C249.577 162.726 249.381 162.647 249.222 162.488C249.064 162.329 248.984 162.138 248.984 161.914C248.984 161.69 249.064 161.499 249.222 161.34C249.381 161.172 249.577 161.088 249.81 161.088C250.034 161.088 250.226 161.172 250.384 161.34C250.543 161.499 250.622 161.69 250.622 161.914C250.622 162.138 250.543 162.329 250.384 162.488C250.226 162.647 250.034 162.726 249.81 162.726ZM250.412 171H249.194V164H250.412V171ZM253.167 165.89C253.167 166.338 253.629 166.688 254.553 166.94C254.898 167.015 255.187 167.094 255.421 167.178C255.663 167.253 255.925 167.369 256.205 167.528C256.494 167.687 256.713 167.897 256.863 168.158C257.012 168.419 257.087 168.727 257.087 169.082C257.087 169.717 256.839 170.225 256.345 170.608C255.85 170.991 255.225 171.182 254.469 171.182C253.797 171.182 253.213 171.037 252.719 170.748C252.233 170.449 251.888 170.048 251.683 169.544L252.733 168.942C252.845 169.278 253.055 169.544 253.363 169.74C253.671 169.936 254.039 170.034 254.469 170.034C254.889 170.034 255.225 169.955 255.477 169.796C255.729 169.637 255.855 169.399 255.855 169.082C255.855 168.606 255.393 168.261 254.469 168.046C254.161 167.962 253.927 167.897 253.769 167.85C253.61 167.803 253.391 167.719 253.111 167.598C252.84 167.477 252.635 167.351 252.495 167.22C252.355 167.08 252.224 166.898 252.103 166.674C251.991 166.441 251.935 166.184 251.935 165.904C251.935 165.297 252.168 164.798 252.635 164.406C253.111 164.014 253.703 163.818 254.413 163.818C254.982 163.818 255.486 163.949 255.925 164.21C256.373 164.462 256.709 164.817 256.933 165.274L255.911 165.848C255.659 165.251 255.159 164.952 254.413 164.952C254.058 164.952 253.759 165.036 253.517 165.204C253.283 165.372 253.167 165.601 253.167 165.89ZM261.923 164V165.176H260.061V168.97C260.061 169.315 260.127 169.563 260.257 169.712C260.397 169.852 260.607 169.927 260.887 169.936C261.167 169.936 261.513 169.927 261.923 169.908V171C260.85 171.14 260.066 171.051 259.571 170.734C259.086 170.417 258.843 169.829 258.843 168.97V165.176H257.457V164H258.843V162.404L260.061 162.04V164H261.923ZM268.778 170.118C268.069 170.827 267.196 171.182 266.16 171.182C265.124 171.182 264.251 170.827 263.542 170.118C262.833 169.409 262.478 168.536 262.478 167.5C262.478 166.464 262.833 165.591 263.542 164.882C264.251 164.173 265.124 163.818 266.16 163.818C267.196 163.818 268.069 164.173 268.778 164.882C269.497 165.601 269.856 166.473 269.856 167.5C269.856 168.527 269.497 169.399 268.778 170.118ZM266.16 169.992C266.86 169.992 267.448 169.754 267.924 169.278C268.4 168.802 268.638 168.209 268.638 167.5C268.638 166.791 268.4 166.198 267.924 165.722C267.448 165.246 266.86 165.008 266.16 165.008C265.469 165.008 264.886 165.246 264.41 165.722C263.934 166.198 263.696 166.791 263.696 167.5C263.696 168.209 263.934 168.802 264.41 169.278C264.886 169.754 265.469 169.992 266.16 169.992ZM272.37 164V165.176C272.771 164.308 273.499 163.874 274.554 163.874V165.148C273.956 165.12 273.443 165.279 273.014 165.624C272.584 165.969 272.37 166.525 272.37 167.29V171H271.152V164H272.37ZM278.626 169.488L280.642 164H281.944L279.088 171.434C278.78 172.227 278.355 172.829 277.814 173.24C277.282 173.66 276.671 173.847 275.98 173.8V172.666C276.839 172.731 277.469 172.255 277.87 171.238L277.996 170.972L274.944 164H276.246L278.626 169.488Z" fill="#1D1E25"/>
</g>
<g opacity="0.6">
<path d="M356.5 144C358.157 144 359.5 142.657 359.5 141C359.5 139.343 358.157 138 356.5 138C354.843 138 353.5 139.343 353.5 141C353.5 142.657 354.843 144 356.5 144Z" stroke="#1D1E25" stroke-width="1.5" stroke-miterlimit="10" stroke-linecap="round" stroke-linejoin="round"/>
<path d="M346.5 141.88V140.12C346.5 139.08 347.35 138.22 348.4 138.22C350.21 138.22 350.95 136.94 350.04 135.37C349.52 134.47 349.83 133.3 350.74 132.78L352.47 131.79C353.26 131.32 354.28 131.6 354.75 132.39L354.86 132.58C355.76 134.15 357.24 134.15 358.15 132.58L358.26 132.39C358.73 131.6 359.75 131.32 360.54 131.79L362.27 132.78C363.18 133.3 363.49 134.47 362.97 135.37C362.06 136.94 362.8 138.22 364.61 138.22C365.65 138.22 366.51 139.07 366.51 140.12V141.88C366.51 142.92 365.66 143.78 364.61 143.78C362.8 143.78 362.06 145.06 362.97 146.63C363.49 147.54 363.18 148.7 362.27 149.22L360.54 150.21C359.75 150.68 358.73 150.4 358.26 149.61L358.15 149.42C357.25 147.85 355.77 147.85 354.86 149.42L354.75 149.61C354.28 150.4 353.26 150.68 352.47 150.21L350.74 149.22C349.83 148.7 349.52 147.53 350.04 146.63C350.95 145.06 350.21 143.78 348.4 143.78C347.35 143.78 346.5 142.92 346.5 141.88Z" stroke="#1D1E25" stroke-width="1.5" stroke-miterlimit="10" stroke-linecap="round" stroke-linejoin="round"/>
<path d="M334.913 171.182C333.998 171.182 333.214 170.972 332.561 170.552C331.917 170.123 331.464 169.53 331.203 168.774L332.323 168.13C332.696 169.315 333.569 169.908 334.941 169.908C335.604 169.908 336.112 169.773 336.467 169.502C336.831 169.231 337.013 168.863 337.013 168.396C337.013 167.939 336.836 167.589 336.481 167.346C336.164 167.131 335.571 166.884 334.703 166.604L333.765 166.296C333.56 166.212 333.289 166.091 332.953 165.932C332.626 165.764 332.388 165.596 332.239 165.428C331.828 164.98 331.623 164.434 331.623 163.79C331.623 162.931 331.922 162.259 332.519 161.774C333.116 161.27 333.844 161.018 334.703 161.018C335.468 161.018 336.14 161.209 336.719 161.592C337.298 161.975 337.732 162.497 338.021 163.16L336.929 163.79C336.509 162.782 335.767 162.278 334.703 162.278C334.171 162.278 333.742 162.409 333.415 162.67C333.088 162.931 332.925 163.286 332.925 163.734C332.925 164.163 333.079 164.49 333.387 164.714C333.704 164.947 334.236 165.181 334.983 165.414L335.557 165.596C335.874 165.717 336.047 165.783 336.075 165.792C336.374 165.904 336.7 166.058 337.055 166.254C337.307 166.394 337.559 166.609 337.811 166.898C338.138 167.225 338.301 167.715 338.301 168.368C338.301 169.227 337.988 169.913 337.363 170.426C336.728 170.93 335.912 171.182 334.913 171.182ZM346.461 168.06H340.595C340.716 168.676 341.001 169.161 341.449 169.516C341.897 169.861 342.457 170.034 343.129 170.034C344.053 170.034 344.725 169.693 345.145 169.012L346.181 169.6C345.49 170.655 344.463 171.182 343.101 171.182C341.999 171.182 341.094 170.837 340.385 170.146C339.694 169.437 339.349 168.555 339.349 167.5C339.349 166.436 339.689 165.559 340.371 164.868C341.052 164.168 341.934 163.818 343.017 163.818C344.043 163.818 344.879 164.182 345.523 164.91C346.176 165.619 346.503 166.487 346.503 167.514C346.503 167.691 346.489 167.873 346.461 168.06ZM343.017 164.966C342.373 164.966 341.831 165.148 341.393 165.512C340.963 165.876 340.697 166.371 340.595 166.996H345.271C345.168 166.352 344.911 165.853 344.501 165.498C344.09 165.143 343.595 164.966 343.017 164.966ZM351.366 164V165.176H349.504V168.97C349.504 169.315 349.569 169.563 349.7 169.712C349.84 169.852 350.05 169.927 350.33 169.936C350.61 169.936 350.955 169.927 351.366 169.908V171C350.292 171.14 349.508 171.051 349.014 170.734C348.528 170.417 348.286 169.829 348.286 168.97V165.176H346.9V164H348.286V162.404L349.504 162.04V164H351.366ZM356.107 164V165.176H354.245V168.97C354.245 169.315 354.31 169.563 354.441 169.712C354.581 169.852 354.791 169.927 355.071 169.936C355.351 169.936 355.696 169.927 356.107 169.908V171C355.033 171.14 354.249 171.051 353.755 170.734C353.269 170.417 353.027 169.829 353.027 168.97V165.176H351.641V164H353.027V162.404L354.245 162.04V164H356.107ZM358.025 162.726C357.791 162.726 357.595 162.647 357.437 162.488C357.278 162.329 357.199 162.138 357.199 161.914C357.199 161.69 357.278 161.499 357.437 161.34C357.595 161.172 357.791 161.088 358.025 161.088C358.249 161.088 358.44 161.172 358.599 161.34C358.757 161.499 358.837 161.69 358.837 161.914C358.837 162.138 358.757 162.329 358.599 162.488C358.44 162.647 358.249 162.726 358.025 162.726ZM358.627 171H357.409V164H358.627V171ZM363.831 163.818C364.652 163.818 365.31 164.079 365.805 164.602C366.3 165.115 366.547 165.815 366.547 166.702V171H365.329V166.772C365.329 166.212 365.175 165.773 364.867 165.456C364.559 165.139 364.134 164.98 363.593 164.98C362.968 164.98 362.473 165.176 362.109 165.568C361.745 165.951 361.563 166.525 361.563 167.29V171H360.345V164H361.563V165.008C362.048 164.215 362.804 163.818 363.831 163.818ZM373.917 165.204V164H375.121V170.706C375.121 171.742 374.771 172.545 374.071 173.114C373.362 173.693 372.522 173.982 371.551 173.982C370.767 173.982 370.091 173.833 369.521 173.534C368.952 173.245 368.523 172.825 368.233 172.274L369.297 171.672C369.68 172.456 370.441 172.848 371.579 172.848C372.307 172.848 372.877 172.657 373.287 172.274C373.707 171.891 373.917 171.369 373.917 170.706V169.712C373.301 170.645 372.424 171.112 371.285 171.112C370.277 171.112 369.433 170.757 368.751 170.048C368.061 169.329 367.715 168.466 367.715 167.458C367.715 166.45 368.061 165.591 368.751 164.882C369.433 164.173 370.277 163.818 371.285 163.818C372.433 163.818 373.311 164.28 373.917 165.204ZM373.917 167.458C373.917 166.758 373.679 166.17 373.203 165.694C372.727 165.218 372.135 164.98 371.425 164.98C370.716 164.98 370.123 165.218 369.647 165.694C369.171 166.17 368.933 166.758 368.933 167.458C368.933 168.167 369.171 168.76 369.647 169.236C370.123 169.712 370.716 169.95 371.425 169.95C372.135 169.95 372.727 169.712 373.203 169.236C373.679 168.76 373.917 168.167 373.917 167.458ZM377.863 165.89C377.863 166.338 378.325 166.688 379.249 166.94C379.594 167.015 379.884 167.094 380.117 167.178C380.36 167.253 380.621 167.369 380.901 167.528C381.19 167.687 381.41 167.897 381.559 168.158C381.708 168.419 381.783 168.727 381.783 169.082C381.783 169.717 381.536 170.225 381.041 170.608C380.546 170.991 379.921 171.182 379.165 171.182C378.493 171.182 377.91 171.037 377.415 170.748C376.93 170.449 376.584 170.048 376.379 169.544L377.429 168.942C377.541 169.278 377.751 169.544 378.059 169.74C378.367 169.936 378.736 170.034 379.165 170.034C379.585 170.034 379.921 169.955 380.173 169.796C380.425 169.637 380.551 169.399 380.551 169.082C380.551 168.606 380.089 168.261 379.165 168.046C378.857 167.962 378.624 167.897 378.465 167.85C378.306 167.803 378.087 167.719 377.807 167.598C377.536 167.477 377.331 167.351 377.191 167.22C377.051 167.08 376.92 166.898 376.799 166.674C376.687 166.441 376.631 166.184 376.631 165.904C376.631 165.297 376.864 164.798 377.331 164.406C377.807 164.014 378.4 163.818 379.109 163.818C379.678 163.818 380.182 163.949 380.621 164.21C381.069 164.462 381.405 164.817 381.629 165.274L380.607 165.848C380.355 165.251 379.856 164.952 379.109 164.952C378.754 164.952 378.456 165.036 378.213 165.204C377.98 165.372 377.863 165.601 377.863 165.89Z" fill="#1D1E25"/>
</g>
<rect width="393" height="88" transform="translate(16 218)" fill="white"/>
<g opacity="0.6">
<path d="M65.52 232.84L60.13 237.04C59.23 237.74 58.5 239.23 58.5 240.36V247.77C58.5 250.09 60.39 251.99 62.71 251.99H74.29C76.61 251.99 78.5 250.09 78.5 247.78V240.5C78.5 239.29 77.69 237.74 76.7 237.05L70.52 232.72C69.12 231.74 66.87 231.79 65.52 232.84Z" stroke="#1D1E25" stroke-width="1.5" stroke-linecap="round" stroke-linejoin="round"/>
<path d="M68.5 247.99V244.99" stroke="#1D1E25" stroke-width="1.5" stroke-linecap="round" stroke-linejoin="round"/>
<path d="M56.8659 266.358V262.2H58.1539V272H56.8659V267.59H52.1059V272H50.8039V262.2H52.1059V266.358H56.8659ZM65.8932 271.118C65.1839 271.827 64.3112 272.182 63.2752 272.182C62.2392 272.182 61.3665 271.827 60.6572 271.118C59.9479 270.409 59.5932 269.536 59.5932 268.5C59.5932 267.464 59.9479 266.591 60.6572 265.882C61.3665 265.173 62.2392 264.818 63.2752 264.818C64.3112 264.818 65.1839 265.173 65.8932 265.882C66.6119 266.601 66.9712 267.473 66.9712 268.5C66.9712 269.527 66.6119 270.399 65.8932 271.118ZM63.2752 270.992C63.9752 270.992 64.5632 270.754 65.0392 270.278C65.5152 269.802 65.7532 269.209 65.7532 268.5C65.7532 267.791 65.5152 267.198 65.0392 266.722C64.5632 266.246 63.9752 266.008 63.2752 266.008C62.5845 266.008 62.0012 266.246 61.5252 266.722C61.0492 267.198 60.8112 267.791 60.8112 268.5C60.8112 269.209 61.0492 269.802 61.5252 270.278C62.0012 270.754 62.5845 270.992 63.2752 270.992ZM75.8271 264.818C76.6204 264.818 77.2551 265.075 77.7311 265.588C78.2164 266.101 78.4591 266.787 78.4591 267.646V272H77.2411V267.688C77.2411 267.156 77.1011 266.741 76.8211 266.442C76.5504 266.134 76.1771 265.98 75.7011 265.98C75.1598 265.98 74.7351 266.162 74.4271 266.526C74.1284 266.881 73.9791 267.408 73.9791 268.108V272H72.7611V267.688C72.7611 267.156 72.6258 266.741 72.3551 266.442C72.0938 266.134 71.7344 265.98 71.2771 265.98C70.7451 265.98 70.3111 266.167 69.9751 266.54C69.6484 266.904 69.4851 267.427 69.4851 268.108V272H68.2671V265H69.4851V265.938C69.9611 265.191 70.6564 264.818 71.5711 264.818C72.5138 264.818 73.1998 265.215 73.6291 266.008C74.1144 265.215 74.8471 264.818 75.8271 264.818ZM86.7279 269.06H80.8619C80.9833 269.676 81.2679 270.161 81.7159 270.516C82.1639 270.861 82.7239 271.034 83.3959 271.034C84.3199 271.034 84.9919 270.693 85.4119 270.012L86.4479 270.6C85.7573 271.655 84.7306 272.182 83.3679 272.182C82.2666 272.182 81.3613 271.837 80.6519 271.146C79.9613 270.437 79.6159 269.555 79.6159 268.5C79.6159 267.436 79.9566 266.559 80.6379 265.868C81.3193 265.168 82.2013 264.818 83.2839 264.818C84.3106 264.818 85.1459 265.182 85.7899 265.91C86.4433 266.619 86.7699 267.487 86.7699 268.514C86.7699 268.691 86.7559 268.873 86.7279 269.06ZM83.2839 265.966C82.6399 265.966 82.0986 266.148 81.6599 266.512C81.2306 266.876 80.9646 267.371 80.8619 267.996H85.5379C85.4353 267.352 85.1786 266.853 84.7679 266.498C84.3573 266.143 83.8626 265.966 83.2839 265.966Z" fill="#1D1E25"/>
</g>
<g opacity="0.6">
<path d="M164 251C169.247 251 173.5 246.747 173.5 241.5C173.5 236.253 169.247 232 164 232C158.753 232 154.5 236.253 154.5 241.5C154.5 246.747 158.753 251 164 251Z" stroke="#1D1E25" stroke-width="1.5" stroke-linecap="round" stroke-linejoin="round"/>
<path d="M174.5 252L172.5 250" stroke="#1D1E25" stroke-width="1.5" stroke-linecap="round" stroke-linejoin="round"/>
<path d="M146.553 272.182C145.639 272.182 144.855 271.972 144.201 271.552C143.557 271.123 143.105 270.53 142.843 269.774L143.963 269.13C144.337 270.315 145.209 270.908 146.581 270.908C147.244 270.908 147.753 270.773 148.107 270.502C148.471 270.231 148.653 269.863 148.653 269.396C148.653 268.939 148.476 268.589 148.121 268.346C147.804 268.131 147.211 267.884 146.343 267.604L145.405 267.296C145.2 267.212 144.929 267.091 144.593 266.932C144.267 266.764 144.029 266.596 143.879 266.428C143.469 265.98 143.263 265.434 143.263 264.79C143.263 263.931 143.562 263.259 144.159 262.774C144.757 262.27 145.485 262.018 146.343 262.018C147.109 262.018 147.781 262.209 148.359 262.592C148.938 262.975 149.372 263.497 149.661 264.16L148.569 264.79C148.149 263.782 147.407 263.278 146.343 263.278C145.811 263.278 145.382 263.409 145.055 263.67C144.729 263.931 144.565 264.286 144.565 264.734C144.565 265.163 144.719 265.49 145.027 265.714C145.345 265.947 145.877 266.181 146.623 266.414L147.197 266.596C147.515 266.717 147.687 266.783 147.715 266.792C148.014 266.904 148.341 267.058 148.695 267.254C148.947 267.394 149.199 267.609 149.451 267.898C149.778 268.225 149.941 268.715 149.941 269.368C149.941 270.227 149.629 270.913 149.003 271.426C148.369 271.93 147.552 272.182 146.553 272.182ZM158.101 269.06H152.235C152.356 269.676 152.641 270.161 153.089 270.516C153.537 270.861 154.097 271.034 154.769 271.034C155.693 271.034 156.365 270.693 156.785 270.012L157.821 270.6C157.13 271.655 156.104 272.182 154.741 272.182C153.64 272.182 152.734 271.837 152.025 271.146C151.334 270.437 150.989 269.555 150.989 268.5C150.989 267.436 151.33 266.559 152.011 265.868C152.692 265.168 153.574 264.818 154.657 264.818C155.684 264.818 156.519 265.182 157.163 265.91C157.816 266.619 158.143 267.487 158.143 268.514C158.143 268.691 158.129 268.873 158.101 269.06ZM154.657 265.966C154.013 265.966 153.472 266.148 153.033 266.512C152.604 266.876 152.338 267.371 152.235 267.996H156.911C156.808 267.352 156.552 266.853 156.141 266.498C155.73 266.143 155.236 265.966 154.657 265.966ZM165.186 266.204V265H166.404V272H165.186V270.796C164.588 271.72 163.706 272.182 162.54 272.182C161.55 272.182 160.715 271.827 160.034 271.118C159.343 270.399 158.998 269.527 158.998 268.5C158.998 267.483 159.343 266.615 160.034 265.896C160.724 265.177 161.56 264.818 162.54 264.818C163.706 264.818 164.588 265.28 165.186 266.204ZM162.694 271.006C163.403 271.006 163.996 270.768 164.472 270.292C164.948 269.797 165.186 269.2 165.186 268.5C165.186 267.791 164.948 267.198 164.472 266.722C163.996 266.237 163.403 265.994 162.694 265.994C161.994 265.994 161.406 266.237 160.93 266.722C160.454 267.198 160.216 267.791 160.216 268.5C160.216 269.2 160.454 269.797 160.93 270.292C161.406 270.768 161.994 271.006 162.694 271.006ZM169.327 265V266.176C169.728 265.308 170.456 264.874 171.511 264.874V266.148C170.914 266.12 170.4 266.279 169.971 266.624C169.542 266.969 169.327 267.525 169.327 268.29V272H168.109V265H169.327ZM175.47 272.182C174.415 272.182 173.538 271.832 172.838 271.132C172.138 270.423 171.788 269.545 171.788 268.5C171.788 267.455 172.138 266.582 172.838 265.882C173.538 265.173 174.415 264.818 175.47 264.818C176.16 264.818 176.781 264.986 177.332 265.322C177.882 265.649 178.293 266.092 178.564 266.652L177.542 267.24C177.364 266.867 177.089 266.568 176.716 266.344C176.352 266.12 175.936 266.008 175.47 266.008C174.77 266.008 174.182 266.246 173.706 266.722C173.239 267.207 173.006 267.8 173.006 268.5C173.006 269.191 173.239 269.779 173.706 270.264C174.182 270.74 174.77 270.978 175.47 270.978C175.936 270.978 176.356 270.871 176.73 270.656C177.103 270.432 177.388 270.133 177.584 269.76L178.62 270.362C178.312 270.922 177.878 271.365 177.318 271.692C176.758 272.019 176.142 272.182 175.47 272.182ZM183.168 264.818C183.99 264.818 184.648 265.079 185.142 265.602C185.637 266.115 185.884 266.815 185.884 267.702V272H184.666V267.772C184.666 267.212 184.512 266.773 184.204 266.456C183.896 266.139 183.472 265.98 182.93 265.98C182.305 265.98 181.81 266.176 181.446 266.568C181.082 266.951 180.9 267.525 180.9 268.29V272H179.682V262.2H180.9V266.008C181.386 265.215 182.142 264.818 183.168 264.818Z" fill="#1D1E25"/>
</g>
<path d="M256.79 236.29C256.37 236.29 256.04 235.95 256.04 235.54V232.75C256.04 232.34 256.37 232 256.79 232C257.21 232 257.54 232.34 257.54 232.75V235.53C257.54 235.95 257.21 236.29 256.79 236.29Z" fill="#1D1E25"/>
<path d="M264.21 236.29C263.79 236.29 263.46 235.95 263.46 235.54V232.75C263.46 232.33 263.8 232 264.21 232C264.63 232 264.96 232.34 264.96 232.75V235.53C264.96 235.95 264.63 236.29 264.21 236.29Z" fill="#1D1E25"/>
<path d="M268.07 234.5C267.41 234.01 266.46 234.48 266.46 235.31V235.41C266.46 236.58 265.62 237.66 264.45 237.78C263.1 237.92 261.96 236.86 261.96 235.54V234.5C261.96 233.95 261.51 233.5 260.96 233.5H260.04C259.49 233.5 259.04 233.95 259.04 234.5V235.54C259.04 236.33 258.63 237.03 258.01 237.42C257.92 237.48 257.82 237.53 257.72 237.58C257.63 237.63 257.53 237.67 257.42 237.7C257.3 237.74 257.17 237.77 257.03 237.78C256.87 237.8 256.71 237.8 256.55 237.78C256.41 237.77 256.28 237.74 256.16 237.7C256.06 237.67 255.96 237.63 255.86 237.58C255.76 237.53 255.66 237.48 255.57 237.42C254.94 236.98 254.54 236.22 254.54 235.41V235.31C254.54 234.54 253.72 234.08 253.07 234.41C253.06 234.42 253.05 234.42 253.04 234.43C253 234.45 252.97 234.47 252.93 234.5C252.9 234.53 252.86 234.55 252.83 234.58C252.55 234.8 252.3 235.05 252.09 235.32C251.98 235.44 251.89 235.57 251.81 235.7C251.8 235.71 251.79 235.72 251.78 235.74C251.69 235.87 251.61 236.02 251.54 236.16C251.52 236.18 251.51 236.19 251.51 236.21C251.45 236.33 251.39 236.45 251.35 236.58C251.32 236.63 251.31 236.67 251.29 236.72C251.23 236.87 251.19 237.02 251.15 237.17C251.11 237.31 251.08 237.46 251.06 237.61C251.04 237.72 251.03 237.83 251.02 237.95C251.01 238.09 251 238.23 251 238.37V247.13C251 249.82 253.18 252 255.87 252H265.13C267.82 252 270 249.82 270 247.13V238.37C270 236.78 269.24 235.39 268.07 234.5ZM260.5 247.42H255.86C255.45 247.42 255.11 247.08 255.11 246.67C255.11 246.25 255.45 245.91 255.86 245.91H260.5C260.92 245.91 261.25 246.25 261.25 246.67C261.25 247.08 260.92 247.42 260.5 247.42ZM263.28 243.71H255.86C255.45 243.71 255.11 243.37 255.11 242.96C255.11 242.54 255.45 242.2 255.86 242.2H263.28C263.7 242.2 264.04 242.54 264.04 242.96C264.04 243.37 263.7 243.71 263.28 243.71Z" fill="#1D1E25"/>
<path d="M245.541 266.218V262.2H247.151V272H245.541V267.758H241.341V272H239.731V262.2H241.341V266.218H245.541ZM250.3 263.67C250.113 263.857 249.889 263.95 249.628 263.95C249.367 263.95 249.138 263.857 248.942 263.67C248.755 263.474 248.662 263.245 248.662 262.984C248.662 262.723 248.755 262.499 248.942 262.312C249.129 262.116 249.357 262.018 249.628 262.018C249.899 262.018 250.127 262.116 250.314 262.312C250.501 262.499 250.594 262.723 250.594 262.984C250.594 263.245 250.496 263.474 250.3 263.67ZM250.384 272H248.872V265H250.384V272ZM253.317 266.932C253.317 267.147 253.429 267.324 253.653 267.464C253.877 267.595 254.203 267.721 254.633 267.842C254.959 267.917 255.244 267.996 255.487 268.08C255.729 268.164 255.986 268.29 256.257 268.458C256.527 268.617 256.733 268.831 256.873 269.102C257.022 269.363 257.092 269.671 257.083 270.026C257.083 270.698 256.821 271.225 256.299 271.608C255.776 271.991 255.127 272.182 254.353 272.182C253.662 272.182 253.069 272.037 252.575 271.748C252.08 271.459 251.721 271.057 251.497 270.544L252.799 269.788C253.032 270.46 253.55 270.796 254.353 270.796C255.146 270.796 255.543 270.535 255.543 270.012C255.543 269.629 255.099 269.331 254.213 269.116C253.877 269.032 253.592 268.948 253.359 268.864C253.135 268.78 252.883 268.659 252.603 268.5C252.332 268.341 252.122 268.131 251.973 267.87C251.833 267.609 251.767 267.305 251.777 266.96C251.777 266.316 252.019 265.798 252.505 265.406C252.999 265.014 253.611 264.818 254.339 264.818C254.917 264.818 255.431 264.949 255.879 265.21C256.336 265.462 256.686 265.817 256.929 266.274L255.655 266.988C255.421 266.456 254.983 266.19 254.339 266.19C254.04 266.19 253.793 266.255 253.597 266.386C253.41 266.517 253.317 266.699 253.317 266.932ZM261.904 265V266.456H260.168V269.816C260.168 270.105 260.234 270.315 260.364 270.446C260.495 270.567 260.686 270.637 260.938 270.656C261.2 270.665 261.522 270.661 261.904 270.642V272C260.747 272.14 259.916 272.042 259.412 271.706C258.908 271.361 258.656 270.731 258.656 269.816V266.456H257.368V265H258.656V263.488L260.168 263.04V265H261.904ZM268.77 271.118C268.061 271.827 267.188 272.182 266.152 272.182C265.116 272.182 264.244 271.827 263.534 271.118C262.816 270.399 262.456 269.527 262.456 268.5C262.456 267.473 262.816 266.601 263.534 265.882C264.244 265.173 265.116 264.818 266.152 264.818C267.188 264.818 268.061 265.173 268.77 265.882C269.489 266.601 269.848 267.473 269.848 268.5C269.848 269.527 269.489 270.399 268.77 271.118ZM263.968 268.5C263.968 269.135 264.178 269.662 264.598 270.082C265.018 270.502 265.536 270.712 266.152 270.712C266.768 270.712 267.286 270.502 267.706 270.082C268.126 269.662 268.336 269.135 268.336 268.5C268.336 267.865 268.126 267.338 267.706 266.918C267.286 266.498 266.768 266.288 266.152 266.288C265.536 266.288 265.018 266.498 264.598 266.918C264.178 267.338 263.968 267.865 263.968 268.5ZM272.588 265V266.176C272.97 265.308 273.689 264.874 274.744 264.874V266.512C274.174 266.475 273.67 266.615 273.232 266.932C272.802 267.24 272.588 267.753 272.588 268.472V272H271.076V265H272.588ZM278.784 270.082L280.576 265H282.186L279.498 272.224C278.826 274.035 277.687 274.893 276.082 274.8V273.386C276.548 273.414 276.926 273.316 277.216 273.092C277.505 272.868 277.748 272.509 277.944 272.014L278.014 271.874L275.046 265H276.698L278.784 270.082Z" fill="#1D1E25"/>
<g opacity="0.6">
<path d="M356.5 245C358.157 245 359.5 243.657 359.5 242C359.5 240.343 358.157 239 356.5 239C354.843 239 353.5 240.343 353.5 242C353.5 243.657 354.843 245 356.5 245Z" stroke="#1D1E25" stroke-width="1.5" stroke-miterlimit="10" stroke-linecap="round" stroke-linejoin="round"/>
<path d="M346.5 242.88V241.12C346.5 240.08 347.35 239.22 348.4 239.22C350.21 239.22 350.95 237.94 350.04 236.37C349.52 235.47 349.83 234.3 350.74 233.78L352.47 232.79C353.26 232.32 354.28 232.6 354.75 233.39L354.86 233.58C355.76 235.15 357.24 235.15 358.15 233.58L358.26 233.39C358.73 232.6 359.75 232.32 360.54 232.79L362.27 233.78C363.18 234.3 363.49 235.47 362.97 236.37C362.06 237.94 362.8 239.22 364.61 239.22C365.65 239.22 366.51 240.07 366.51 241.12V242.88C366.51 243.92 365.66 244.78 364.61 244.78C362.8 244.78 362.06 246.06 362.97 247.63C363.49 248.54 363.18 249.7 362.27 250.22L360.54 251.21C359.75 251.68 358.73 251.4 358.26 250.61L358.15 250.42C357.25 248.85 355.77 248.85 354.86 250.42L354.75 250.61C354.28 251.4 353.26 251.68 352.47 251.21L350.74 250.22C349.83 249.7 349.52 248.53 350.04 247.63C350.95 246.06 350.21 244.78 348.4 244.78C347.35 244.78 346.5 243.92 346.5 242.88Z" stroke="#1D1E25" stroke-width="1.5" stroke-miterlimit="10" stroke-linecap="round" stroke-linejoin="round"/>
<path d="M334.913 272.182C333.998 272.182 333.214 271.972 332.561 271.552C331.917 271.123 331.464 270.53 331.203 269.774L332.323 269.13C332.696 270.315 333.569 270.908 334.941 270.908C335.604 270.908 336.112 270.773 336.467 270.502C336.831 270.231 337.013 269.863 337.013 269.396C337.013 268.939 336.836 268.589 336.481 268.346C336.164 268.131 335.571 267.884 334.703 267.604L333.765 267.296C333.56 267.212 333.289 267.091 332.953 266.932C332.626 266.764 332.388 266.596 332.239 266.428C331.828 265.98 331.623 265.434 331.623 264.79C331.623 263.931 331.922 263.259 332.519 262.774C333.116 262.27 333.844 262.018 334.703 262.018C335.468 262.018 336.14 262.209 336.719 262.592C337.298 262.975 337.732 263.497 338.021 264.16L336.929 264.79C336.509 263.782 335.767 263.278 334.703 263.278C334.171 263.278 333.742 263.409 333.415 263.67C333.088 263.931 332.925 264.286 332.925 264.734C332.925 265.163 333.079 265.49 333.387 265.714C333.704 265.947 334.236 266.181 334.983 266.414L335.557 266.596C335.874 266.717 336.047 266.783 336.075 266.792C336.374 266.904 336.7 267.058 337.055 267.254C337.307 267.394 337.559 267.609 337.811 267.898C338.138 268.225 338.301 268.715 338.301 269.368C338.301 270.227 337.988 270.913 337.363 271.426C336.728 271.93 335.912 272.182 334.913 272.182ZM346.461 269.06H340.595C340.716 269.676 341.001 270.161 341.449 270.516C341.897 270.861 342.457 271.034 343.129 271.034C344.053 271.034 344.725 270.693 345.145 270.012L346.181 270.6C345.49 271.655 344.463 272.182 343.101 272.182C341.999 272.182 341.094 271.837 340.385 271.146C339.694 270.437 339.349 269.555 339.349 268.5C339.349 267.436 339.689 266.559 340.371 265.868C341.052 265.168 341.934 264.818 343.017 264.818C344.043 264.818 344.879 265.182 345.523 265.91C346.176 266.619 346.503 267.487 346.503 268.514C346.503 268.691 346.489 268.873 346.461 269.06ZM343.017 265.966C342.373 265.966 341.831 266.148 341.393 266.512C340.963 266.876 340.697 267.371 340.595 267.996H345.271C345.168 267.352 344.911 266.853 344.501 266.498C344.09 266.143 343.595 265.966 343.017 265.966ZM351.366 265V266.176H349.504V269.97C349.504 270.315 349.569 270.563 349.7 270.712C349.84 270.852 350.05 270.927 350.33 270.936C350.61 270.936 350.955 270.927 351.366 270.908V272C350.292 272.14 349.508 272.051 349.014 271.734C348.528 271.417 348.286 270.829 348.286 269.97V266.176H346.9V265H348.286V263.404L349.504 263.04V265H351.366ZM356.107 265V266.176H354.245V269.97C354.245 270.315 354.31 270.563 354.441 270.712C354.581 270.852 354.791 270.927 355.071 270.936C355.351 270.936 355.696 270.927 356.107 270.908V272C355.033 272.14 354.249 272.051 353.755 271.734C353.269 271.417 353.027 270.829 353.027 269.97V266.176H351.641V265H353.027V263.404L354.245 263.04V265H356.107ZM358.025 263.726C357.791 263.726 357.595 263.647 357.437 263.488C357.278 263.329 357.199 263.138 357.199 262.914C357.199 262.69 357.278 262.499 357.437 262.34C357.595 262.172 357.791 262.088 358.025 262.088C358.249 262.088 358.44 262.172 358.599 262.34C358.757 262.499 358.837 262.69 358.837 262.914C358.837 263.138 358.757 263.329 358.599 263.488C358.44 263.647 358.249 263.726 358.025 263.726ZM358.627 272H357.409V265H358.627V272ZM363.831 264.818C364.652 264.818 365.31 265.079 365.805 265.602C366.3 266.115 366.547 266.815 366.547 267.702V272H365.329V267.772C365.329 267.212 365.175 266.773 364.867 266.456C364.559 266.139 364.134 265.98 363.593 265.98C362.968 265.98 362.473 266.176 362.109 266.568C361.745 266.951 361.563 267.525 361.563 268.29V272H360.345V265H361.563V266.008C362.048 265.215 362.804 264.818 363.831 264.818ZM373.917 266.204V265H375.121V271.706C375.121 272.742 374.771 273.545 374.071 274.114C373.362 274.693 372.522 274.982 371.551 274.982C370.767 274.982 370.091 274.833 369.521 274.534C368.952 274.245 368.523 273.825 368.233 273.274L369.297 272.672C369.68 273.456 370.441 273.848 371.579 273.848C372.307 273.848 372.877 273.657 373.287 273.274C373.707 272.891 373.917 272.369 373.917 271.706V270.712C373.301 271.645 372.424 272.112 371.285 272.112C370.277 272.112 369.433 271.757 368.751 271.048C368.061 270.329 367.715 269.466 367.715 268.458C367.715 267.45 368.061 266.591 368.751 265.882C369.433 265.173 370.277 264.818 371.285 264.818C372.433 264.818 373.311 265.28 373.917 266.204ZM373.917 268.458C373.917 267.758 373.679 267.17 373.203 266.694C372.727 266.218 372.135 265.98 371.425 265.98C370.716 265.98 370.123 266.218 369.647 266.694C369.171 267.17 368.933 267.758 368.933 268.458C368.933 269.167 369.171 269.76 369.647 270.236C370.123 270.712 370.716 270.95 371.425 270.95C372.135 270.95 372.727 270.712 373.203 270.236C373.679 269.76 373.917 269.167 373.917 268.458ZM377.863 266.89C377.863 267.338 378.325 267.688 379.249 267.94C379.594 268.015 379.884 268.094 380.117 268.178C380.36 268.253 380.621 268.369 380.901 268.528C381.19 268.687 381.41 268.897 381.559 269.158C381.708 269.419 381.783 269.727 381.783 270.082C381.783 270.717 381.536 271.225 381.041 271.608C380.546 271.991 379.921 272.182 379.165 272.182C378.493 272.182 377.91 272.037 377.415 271.748C376.93 271.449 376.584 271.048 376.379 270.544L377.429 269.942C377.541 270.278 377.751 270.544 378.059 270.74C378.367 270.936 378.736 271.034 379.165 271.034C379.585 271.034 379.921 270.955 380.173 270.796C380.425 270.637 380.551 270.399 380.551 270.082C380.551 269.606 380.089 269.261 379.165 269.046C378.857 268.962 378.624 268.897 378.465 268.85C378.306 268.803 378.087 268.719 377.807 268.598C377.536 268.477 377.331 268.351 377.191 268.22C377.051 268.08 376.92 267.898 376.799 267.674C376.687 267.441 376.631 267.184 376.631 266.904C376.631 266.297 376.864 265.798 377.331 265.406C377.807 265.014 378.4 264.818 379.109 264.818C379.678 264.818 380.182 264.949 380.621 265.21C381.069 265.462 381.405 265.817 381.629 266.274L380.607 266.848C380.355 266.251 379.856 265.952 379.109 265.952C378.754 265.952 378.456 266.036 378.213 266.204C377.98 266.372 377.863 266.601 377.863 266.89Z" fill="#1D1E25"/>
</g>
<rect width="393" height="88" transform="translate(16 319)" fill="white"/>
<g opacity="0.6">
<path d="M65.52 333.84L60.13 338.04C59.23 338.74 58.5 340.23 58.5 341.36V348.77C58.5 351.09 60.39 352.99 62.71 352.99H74.29C76.61 352.99 78.5 351.09 78.5 348.78V341.5C78.5 340.29 77.69 338.74 76.7 338.05L70.52 333.72C69.12 332.74 66.87 332.79 65.52 333.84Z" stroke="#1D1E25" stroke-width="1.5" stroke-linecap="round" stroke-linejoin="round"/>
<path d="M68.5 348.99V345.99" stroke="#1D1E25" stroke-width="1.5" stroke-linecap="round" stroke-linejoin="round"/>
<path d="M56.8659 367.358V363.2H58.1539V373H56.8659V368.59H52.1059V373H50.8039V363.2H52.1059V367.358H56.8659ZM65.8932 372.118C65.1839 372.827 64.3112 373.182 63.2752 373.182C62.2392 373.182 61.3665 372.827 60.6572 372.118C59.9479 371.409 59.5932 370.536 59.5932 369.5C59.5932 368.464 59.9479 367.591 60.6572 366.882C61.3665 366.173 62.2392 365.818 63.2752 365.818C64.3112 365.818 65.1839 366.173 65.8932 366.882C66.6119 367.601 66.9712 368.473 66.9712 369.5C66.9712 370.527 66.6119 371.399 65.8932 372.118ZM63.2752 371.992C63.9752 371.992 64.5632 371.754 65.0392 371.278C65.5152 370.802 65.7532 370.209 65.7532 369.5C65.7532 368.791 65.5152 368.198 65.0392 367.722C64.5632 367.246 63.9752 367.008 63.2752 367.008C62.5845 367.008 62.0012 367.246 61.5252 367.722C61.0492 368.198 60.8112 368.791 60.8112 369.5C60.8112 370.209 61.0492 370.802 61.5252 371.278C62.0012 371.754 62.5845 371.992 63.2752 371.992ZM75.8271 365.818C76.6204 365.818 77.2551 366.075 77.7311 366.588C78.2164 367.101 78.4591 367.787 78.4591 368.646V373H77.2411V368.688C77.2411 368.156 77.1011 367.741 76.8211 367.442C76.5504 367.134 76.1771 366.98 75.7011 366.98C75.1598 366.98 74.7351 367.162 74.4271 367.526C74.1284 367.881 73.9791 368.408 73.9791 369.108V373H72.7611V368.688C72.7611 368.156 72.6258 367.741 72.3551 367.442C72.0938 367.134 71.7344 366.98 71.2771 366.98C70.7451 366.98 70.3111 367.167 69.9751 367.54C69.6484 367.904 69.4851 368.427 69.4851 369.108V373H68.2671V366H69.4851V366.938C69.9611 366.191 70.6564 365.818 71.5711 365.818C72.5138 365.818 73.1998 366.215 73.6291 367.008C74.1144 366.215 74.8471 365.818 75.8271 365.818ZM86.7279 370.06H80.8619C80.9833 370.676 81.2679 371.161 81.7159 371.516C82.1639 371.861 82.7239 372.034 83.3959 372.034C84.3199 372.034 84.9919 371.693 85.4119 371.012L86.4479 371.6C85.7573 372.655 84.7306 373.182 83.3679 373.182C82.2666 373.182 81.3613 372.837 80.6519 372.146C79.9613 371.437 79.6159 370.555 79.6159 369.5C79.6159 368.436 79.9566 367.559 80.6379 366.868C81.3193 366.168 82.2013 365.818 83.2839 365.818C84.3106 365.818 85.1459 366.182 85.7899 366.91C86.4433 367.619 86.7699 368.487 86.7699 369.514C86.7699 369.691 86.7559 369.873 86.7279 370.06ZM83.2839 366.966C82.6399 366.966 82.0986 367.148 81.6599 367.512C81.2306 367.876 80.9646 368.371 80.8619 368.996H85.5379C85.4353 368.352 85.1786 367.853 84.7679 367.498C84.3573 367.143 83.8626 366.966 83.2839 366.966Z" fill="#1D1E25"/>
</g>
<g opacity="0.6">
<path d="M164 352C169.247 352 173.5 347.747 173.5 342.5C173.5 337.253 169.247 333 164 333C158.753 333 154.5 337.253 154.5 342.5C154.5 347.747 158.753 352 164 352Z" stroke="#1D1E25" stroke-width="1.5" stroke-linecap="round" stroke-linejoin="round"/>
<path d="M174.5 353L172.5 351" stroke="#1D1E25" stroke-width="1.5" stroke-linecap="round" stroke-linejoin="round"/>
<path d="M146.553 373.182C145.639 373.182 144.855 372.972 144.201 372.552C143.557 372.123 143.105 371.53 142.843 370.774L143.963 370.13C144.337 371.315 145.209 371.908 146.581 371.908C147.244 371.908 147.753 371.773 148.107 371.502C148.471 371.231 148.653 370.863 148.653 370.396C148.653 369.939 148.476 369.589 148.121 369.346C147.804 369.131 147.211 368.884 146.343 368.604L145.405 368.296C145.2 368.212 144.929 368.091 144.593 367.932C144.267 367.764 144.029 367.596 143.879 367.428C143.469 366.98 143.263 366.434 143.263 365.79C143.263 364.931 143.562 364.259 144.159 363.774C144.757 363.27 145.485 363.018 146.343 363.018C147.109 363.018 147.781 363.209 148.359 363.592C148.938 363.975 149.372 364.497 149.661 365.16L148.569 365.79C148.149 364.782 147.407 364.278 146.343 364.278C145.811 364.278 145.382 364.409 145.055 364.67C144.729 364.931 144.565 365.286 144.565 365.734C144.565 366.163 144.719 366.49 145.027 366.714C145.345 366.947 145.877 367.181 146.623 367.414L147.197 367.596C147.515 367.717 147.687 367.783 147.715 367.792C148.014 367.904 148.341 368.058 148.695 368.254C148.947 368.394 149.199 368.609 149.451 368.898C149.778 369.225 149.941 369.715 149.941 370.368C149.941 371.227 149.629 371.913 149.003 372.426C148.369 372.93 147.552 373.182 146.553 373.182ZM158.101 370.06H152.235C152.356 370.676 152.641 371.161 153.089 371.516C153.537 371.861 154.097 372.034 154.769 372.034C155.693 372.034 156.365 371.693 156.785 371.012L157.821 371.6C157.13 372.655 156.104 373.182 154.741 373.182C153.64 373.182 152.734 372.837 152.025 372.146C151.334 371.437 150.989 370.555 150.989 369.5C150.989 368.436 151.33 367.559 152.011 366.868C152.692 366.168 153.574 365.818 154.657 365.818C155.684 365.818 156.519 366.182 157.163 366.91C157.816 367.619 158.143 368.487 158.143 369.514C158.143 369.691 158.129 369.873 158.101 370.06ZM154.657 366.966C154.013 366.966 153.472 367.148 153.033 367.512C152.604 367.876 152.338 368.371 152.235 368.996H156.911C156.808 368.352 156.552 367.853 156.141 367.498C155.73 367.143 155.236 366.966 154.657 366.966ZM165.186 367.204V366H166.404V373H165.186V371.796C164.588 372.72 163.706 373.182 162.54 373.182C161.55 373.182 160.715 372.827 160.034 372.118C159.343 371.399 158.998 370.527 158.998 369.5C158.998 368.483 159.343 367.615 160.034 366.896C160.724 366.177 161.56 365.818 162.54 365.818C163.706 365.818 164.588 366.28 165.186 367.204ZM162.694 372.006C163.403 372.006 163.996 371.768 164.472 371.292C164.948 370.797 165.186 370.2 165.186 369.5C165.186 368.791 164.948 368.198 164.472 367.722C163.996 367.237 163.403 366.994 162.694 366.994C161.994 366.994 161.406 367.237 160.93 367.722C160.454 368.198 160.216 368.791 160.216 369.5C160.216 370.2 160.454 370.797 160.93 371.292C161.406 371.768 161.994 372.006 162.694 372.006ZM169.327 366V367.176C169.728 366.308 170.456 365.874 171.511 365.874V367.148C170.914 367.12 170.4 367.279 169.971 367.624C169.542 367.969 169.327 368.525 169.327 369.29V373H168.109V366H169.327ZM175.47 373.182C174.415 373.182 173.538 372.832 172.838 372.132C172.138 371.423 171.788 370.545 171.788 369.5C171.788 368.455 172.138 367.582 172.838 366.882C173.538 366.173 174.415 365.818 175.47 365.818C176.16 365.818 176.781 365.986 177.332 366.322C177.882 366.649 178.293 367.092 178.564 367.652L177.542 368.24C177.364 367.867 177.089 367.568 176.716 367.344C176.352 367.12 175.936 367.008 175.47 367.008C174.77 367.008 174.182 367.246 173.706 367.722C173.239 368.207 173.006 368.8 173.006 369.5C173.006 370.191 173.239 370.779 173.706 371.264C174.182 371.74 174.77 371.978 175.47 371.978C175.936 371.978 176.356 371.871 176.73 371.656C177.103 371.432 177.388 371.133 177.584 370.76L178.62 371.362C178.312 371.922 177.878 372.365 177.318 372.692C176.758 373.019 176.142 373.182 175.47 373.182ZM183.168 365.818C183.99 365.818 184.648 366.079 185.142 366.602C185.637 367.115 185.884 367.815 185.884 368.702V373H184.666V368.772C184.666 368.212 184.512 367.773 184.204 367.456C183.896 367.139 183.472 366.98 182.93 366.98C182.305 366.98 181.81 367.176 181.446 367.568C181.082 367.951 180.9 368.525 180.9 369.29V373H179.682V363.2H180.9V367.008C181.386 366.215 182.142 365.818 183.168 365.818Z" fill="#1D1E25"/>
</g>
<g opacity="0.6">
<path d="M256.5 333V336" stroke="#1D1E25" stroke-width="1.5" stroke-miterlimit="10" stroke-linecap="round" stroke-linejoin="round"/>
<path d="M264.5 333V336" stroke="#1D1E25" stroke-width="1.5" stroke-miterlimit="10" stroke-linecap="round" stroke-linejoin="round"/>
<path d="M255.5 344H263.5" stroke="#1D1E25" stroke-width="1.5" stroke-miterlimit="10" stroke-linecap="round" stroke-linejoin="round"/>
<path d="M255.5 348H260.5" stroke="#1D1E25" stroke-width="1.5" stroke-miterlimit="10" stroke-linecap="round" stroke-linejoin="round"/>
<path d="M264.5 334.5C267.83 334.68 269.5 335.95 269.5 340.65V346.83C269.5 350.95 268.5 353.01 263.5 353.01H257.5C252.5 353.01 251.5 350.95 251.5 346.83V340.65C251.5 335.95 253.17 334.69 256.5 334.5H264.5Z" stroke="#1D1E25" stroke-width="1.5" stroke-miterlimit="10" stroke-linecap="round" stroke-linejoin="round"/>
<path d="M246.075 367.358V363.2H247.363V373H246.075V368.59H241.315V373H240.013V363.2H241.315V367.358H246.075ZM249.81 364.726C249.577 364.726 249.381 364.647 249.222 364.488C249.064 364.329 248.984 364.138 248.984 363.914C248.984 363.69 249.064 363.499 249.222 363.34C249.381 363.172 249.577 363.088 249.81 363.088C250.034 363.088 250.226 363.172 250.384 363.34C250.543 363.499 250.622 363.69 250.622 363.914C250.622 364.138 250.543 364.329 250.384 364.488C250.226 364.647 250.034 364.726 249.81 364.726ZM250.412 373H249.194V366H250.412V373ZM253.167 367.89C253.167 368.338 253.629 368.688 254.553 368.94C254.898 369.015 255.187 369.094 255.421 369.178C255.663 369.253 255.925 369.369 256.205 369.528C256.494 369.687 256.713 369.897 256.863 370.158C257.012 370.419 257.087 370.727 257.087 371.082C257.087 371.717 256.839 372.225 256.345 372.608C255.85 372.991 255.225 373.182 254.469 373.182C253.797 373.182 253.213 373.037 252.719 372.748C252.233 372.449 251.888 372.048 251.683 371.544L252.733 370.942C252.845 371.278 253.055 371.544 253.363 371.74C253.671 371.936 254.039 372.034 254.469 372.034C254.889 372.034 255.225 371.955 255.477 371.796C255.729 371.637 255.855 371.399 255.855 371.082C255.855 370.606 255.393 370.261 254.469 370.046C254.161 369.962 253.927 369.897 253.769 369.85C253.61 369.803 253.391 369.719 253.111 369.598C252.84 369.477 252.635 369.351 252.495 369.22C252.355 369.08 252.224 368.898 252.103 368.674C251.991 368.441 251.935 368.184 251.935 367.904C251.935 367.297 252.168 366.798 252.635 366.406C253.111 366.014 253.703 365.818 254.413 365.818C254.982 365.818 255.486 365.949 255.925 366.21C256.373 366.462 256.709 366.817 256.933 367.274L255.911 367.848C255.659 367.251 255.159 366.952 254.413 366.952C254.058 366.952 253.759 367.036 253.517 367.204C253.283 367.372 253.167 367.601 253.167 367.89ZM261.923 366V367.176H260.061V370.97C260.061 371.315 260.127 371.563 260.257 371.712C260.397 371.852 260.607 371.927 260.887 371.936C261.167 371.936 261.513 371.927 261.923 371.908V373C260.85 373.14 260.066 373.051 259.571 372.734C259.086 372.417 258.843 371.829 258.843 370.97V367.176H257.457V366H258.843V364.404L260.061 364.04V366H261.923ZM268.778 372.118C268.069 372.827 267.196 373.182 266.16 373.182C265.124 373.182 264.251 372.827 263.542 372.118C262.833 371.409 262.478 370.536 262.478 369.5C262.478 368.464 262.833 367.591 263.542 366.882C264.251 366.173 265.124 365.818 266.16 365.818C267.196 365.818 268.069 366.173 268.778 366.882C269.497 367.601 269.856 368.473 269.856 369.5C269.856 370.527 269.497 371.399 268.778 372.118ZM266.16 371.992C266.86 371.992 267.448 371.754 267.924 371.278C268.4 370.802 268.638 370.209 268.638 369.5C268.638 368.791 268.4 368.198 267.924 367.722C267.448 367.246 266.86 367.008 266.16 367.008C265.469 367.008 264.886 367.246 264.41 367.722C263.934 368.198 263.696 368.791 263.696 369.5C263.696 370.209 263.934 370.802 264.41 371.278C264.886 371.754 265.469 371.992 266.16 371.992ZM272.37 366V367.176C272.771 366.308 273.499 365.874 274.554 365.874V367.148C273.956 367.12 273.443 367.279 273.014 367.624C272.584 367.969 272.37 368.525 272.37 369.29V373H271.152V366H272.37ZM278.626 371.488L280.642 366H281.944L279.088 373.434C278.78 374.227 278.355 374.829 277.814 375.24C277.282 375.66 276.671 375.847 275.98 375.8V374.666C276.839 374.731 277.469 374.255 277.87 373.238L277.996 372.972L274.944 366H276.246L278.626 371.488Z" fill="#1D1E25"/>
</g>
<path d="M364.6 340.22C362.79 340.22 362.05 338.94 362.95 337.37C363.47 336.46 363.16 335.3 362.25 334.78L360.52 333.79C359.73 333.32 358.71 333.6 358.24 334.39L358.13 334.58C357.23 336.15 355.75 336.15 354.84 334.58L354.73 334.39C354.28 333.6 353.26 333.32 352.47 333.79L350.74 334.78C349.83 335.3 349.52 336.47 350.04 337.38C350.95 338.94 350.21 340.22 348.4 340.22C347.36 340.22 346.5 341.07 346.5 342.12V343.88C346.5 344.92 347.35 345.78 348.4 345.78C350.21 345.78 350.95 347.06 350.04 348.63C349.52 349.54 349.83 350.7 350.74 351.22L352.47 352.21C353.26 352.68 354.28 352.4 354.75 351.61L354.86 351.42C355.76 349.85 357.24 349.85 358.15 351.42L358.26 351.61C358.73 352.4 359.75 352.68 360.54 352.21L362.27 351.22C363.18 350.7 363.49 349.53 362.97 348.63C362.06 347.06 362.8 345.78 364.61 345.78C365.65 345.78 366.51 344.93 366.51 343.88V342.12C366.5 341.08 365.65 340.22 364.6 340.22ZM356.5 346.25C354.71 346.25 353.25 344.79 353.25 343C353.25 341.21 354.71 339.75 356.5 339.75C358.29 339.75 359.75 341.21 359.75 343C359.75 344.79 358.29 346.25 356.5 346.25Z" fill="#1D1E25"/>
<path d="M334.75 373.182C333.807 373.182 333.004 372.972 332.342 372.552C331.688 372.123 331.231 371.53 330.97 370.774L332.356 369.962C332.748 371.063 333.56 371.614 334.792 371.614C335.389 371.614 335.842 371.497 336.15 371.264C336.458 371.031 336.612 370.718 336.612 370.326C336.612 369.934 336.448 369.631 336.122 369.416C335.795 369.201 335.216 368.968 334.386 368.716C333.536 368.464 332.85 368.165 332.328 367.82C331.693 367.372 331.376 366.714 331.376 365.846C331.376 364.978 331.684 364.292 332.3 363.788C332.906 363.275 333.648 363.018 334.526 363.018C335.3 363.018 335.982 363.209 336.57 363.592C337.167 363.965 337.624 364.493 337.942 365.174L336.584 365.958C336.173 365.043 335.487 364.586 334.526 364.586C334.059 364.586 333.686 364.698 333.406 364.922C333.126 365.137 332.986 365.431 332.986 365.804C332.986 366.168 333.126 366.457 333.406 366.672C333.686 366.877 334.204 367.097 334.96 367.33C335.426 367.489 335.697 367.582 335.772 367.61C335.893 367.647 336.136 367.741 336.5 367.89C336.798 368.011 337.036 368.142 337.214 368.282C337.942 368.851 338.278 369.523 338.222 370.298C338.222 371.185 337.9 371.889 337.256 372.412C336.63 372.925 335.795 373.182 334.75 373.182ZM346.324 370.144H340.752C340.864 370.667 341.116 371.073 341.508 371.362C341.909 371.651 342.404 371.796 342.992 371.796C343.785 371.796 344.387 371.507 344.798 370.928L346.044 371.656C345.363 372.673 344.341 373.182 342.978 373.182C341.849 373.182 340.929 372.837 340.22 372.146C339.52 371.446 339.17 370.564 339.17 369.5C339.17 368.464 339.515 367.591 340.206 366.882C340.887 366.173 341.774 365.818 342.866 365.818C343.883 365.818 344.723 366.177 345.386 366.896C346.049 367.615 346.38 368.487 346.38 369.514C346.38 369.701 346.361 369.911 346.324 370.144ZM340.738 368.912H344.854C344.751 368.361 344.518 367.937 344.154 367.638C343.799 367.339 343.365 367.19 342.852 367.19C342.292 367.19 341.825 367.344 341.452 367.652C341.079 367.96 340.841 368.38 340.738 368.912ZM351.258 366V367.456H349.522V370.816C349.522 371.105 349.587 371.315 349.718 371.446C349.848 371.567 350.04 371.637 350.292 371.656C350.553 371.665 350.875 371.661 351.258 371.642V373C350.1 373.14 349.27 373.042 348.766 372.706C348.262 372.361 348.01 371.731 348.01 370.816V367.456H346.722V366H348.01V364.488L349.522 364.04V366H351.258ZM356.067 366V367.456H354.331V370.816C354.331 371.105 354.396 371.315 354.527 371.446C354.658 371.567 354.849 371.637 355.101 371.656C355.362 371.665 355.684 371.661 356.067 371.642V373C354.91 373.14 354.079 373.042 353.575 372.706C353.071 372.361 352.819 371.731 352.819 370.816V367.456H351.531V366H352.819V364.488L354.331 364.04V366H356.067ZM358.726 364.67C358.54 364.857 358.316 364.95 358.054 364.95C357.793 364.95 357.564 364.857 357.368 364.67C357.182 364.474 357.088 364.245 357.088 363.984C357.088 363.723 357.182 363.499 357.368 363.312C357.555 363.116 357.784 363.018 358.054 363.018C358.325 363.018 358.554 363.116 358.74 363.312C358.927 363.499 359.02 363.723 359.02 363.984C359.02 364.245 358.922 364.474 358.726 364.67ZM358.81 373H357.298V366H358.81V373ZM364.108 365.818C364.92 365.818 365.569 366.079 366.054 366.602C366.549 367.115 366.796 367.815 366.796 368.702V373H365.284V368.856C365.284 368.333 365.144 367.932 364.864 367.652C364.584 367.372 364.201 367.232 363.716 367.232C363.165 367.232 362.731 367.405 362.414 367.75C362.097 368.086 361.938 368.585 361.938 369.248V373H360.426V366H361.938V366.896C362.405 366.177 363.128 365.818 364.108 365.818ZM373.856 367.036V366H375.34V372.678C375.34 373.742 374.99 374.559 374.29 375.128C373.599 375.697 372.75 375.982 371.742 375.982C370.127 375.982 369.021 375.417 368.424 374.288L369.726 373.532C370.09 374.251 370.771 374.61 371.77 374.61C372.423 374.61 372.932 374.437 373.296 374.092C373.669 373.756 373.856 373.285 373.856 372.678V371.824C373.287 372.636 372.475 373.042 371.42 373.042C370.44 373.042 369.605 372.692 368.914 371.992C368.233 371.283 367.892 370.429 367.892 369.43C367.892 368.422 368.233 367.573 368.914 366.882C369.595 366.173 370.431 365.818 371.42 365.818C372.475 365.818 373.287 366.224 373.856 367.036ZM370.034 370.998C370.463 371.418 370.995 371.628 371.63 371.628C372.265 371.628 372.792 371.418 373.212 370.998C373.641 370.578 373.856 370.055 373.856 369.43C373.856 368.805 373.641 368.282 373.212 367.862C372.792 367.442 372.265 367.232 371.63 367.232C370.995 367.232 370.463 367.442 370.034 367.862C369.614 368.282 369.404 368.805 369.404 369.43C369.404 370.055 369.614 370.578 370.034 370.998ZM378.279 367.932C378.279 368.147 378.391 368.324 378.615 368.464C378.839 368.595 379.166 368.721 379.595 368.842C379.922 368.917 380.207 368.996 380.449 369.08C380.692 369.164 380.949 369.29 381.219 369.458C381.49 369.617 381.695 369.831 381.835 370.102C381.985 370.363 382.055 370.671 382.045 371.026C382.045 371.698 381.784 372.225 381.261 372.608C380.739 372.991 380.09 373.182 379.315 373.182C378.625 373.182 378.032 373.037 377.537 372.748C377.043 372.459 376.683 372.057 376.459 371.544L377.761 370.788C377.995 371.46 378.513 371.796 379.315 371.796C380.109 371.796 380.505 371.535 380.505 371.012C380.505 370.629 380.062 370.331 379.175 370.116C378.839 370.032 378.555 369.948 378.321 369.864C378.097 369.78 377.845 369.659 377.565 369.5C377.295 369.341 377.085 369.131 376.935 368.87C376.795 368.609 376.73 368.305 376.739 367.96C376.739 367.316 376.982 366.798 377.467 366.406C377.962 366.014 378.573 365.818 379.301 365.818C379.88 365.818 380.393 365.949 380.841 366.21C381.299 366.462 381.649 366.817 381.891 367.274L380.617 367.988C380.384 367.456 379.945 367.19 379.301 367.19C379.003 367.19 378.755 367.255 378.559 367.386C378.373 367.517 378.279 367.699 378.279 367.932Z" fill="#1D1E25"/>
</svg>
