<svg width="155" height="112" viewBox="0 0 155 112" fill="none" xmlns="http://www.w3.org/2000/svg">
<circle opacity="0.1" cx="80.999" cy="52" r="50" stroke="#37D5C3" stroke-width="2"/>
<g filter="url(#filter0_d_2069_7893)">
<circle cx="80.999" cy="52" r="36" fill="white"/>
<circle cx="80.999" cy="52" r="35.5" stroke="#37D5C3"/>
</g>
<path d="M69.0176 51.923L77.316 60.3658L93.913 43.4802" stroke="#7850FB" stroke-width="4" stroke-linecap="round" stroke-linejoin="round"/>
<path d="M145.762 84.4951C145.869 83.9599 146.635 83.9599 146.742 84.4951L147.116 86.3584C147.235 86.9473 147.693 87.4089 148.281 87.5312L150.19 87.9277C150.721 88.0381 150.721 88.7968 150.19 88.9072L148.281 89.3047C147.693 89.4271 147.235 89.8885 147.116 90.4775L146.742 92.3398C146.635 92.8752 145.869 92.8752 145.762 92.3398L145.388 90.4775C145.269 89.8886 144.811 89.4272 144.223 89.3047L142.312 88.9072C141.782 88.7965 141.782 88.0384 142.312 87.9277L144.223 87.5312C144.811 87.4088 145.269 86.9473 145.388 86.3584L145.762 84.4951Z" fill="#6224C5" stroke="#6224C5"/>
<path opacity="0.2" d="M18.9033 96.363C19.011 95.8278 19.7762 95.8278 19.8838 96.363L20.1582 97.7332C20.2766 98.3223 20.7359 98.7837 21.3242 98.906L22.749 99.2029C23.2797 99.3134 23.2797 100.071 22.749 100.181L21.3242 100.478C20.7359 100.601 20.2766 101.062 20.1582 101.651L19.8838 103.021C19.7762 103.557 19.0109 103.557 18.9033 103.021L18.6279 101.651C18.5096 101.062 18.051 100.601 17.4629 100.478L16.0371 100.181C15.5068 100.071 15.5068 99.3136 16.0371 99.2029L17.4629 98.906C18.051 98.7835 18.5096 98.3222 18.6279 97.7332L18.9033 96.363Z" fill="#6224C5" stroke="#6224C5"/>
<path opacity="0.2" d="M146.783 13.8796C146.891 13.3444 147.656 13.3444 147.764 13.8796L147.891 14.5105C148.009 15.0996 148.467 15.562 149.056 15.6843L149.754 15.8289C150.285 15.9393 150.285 16.6979 149.754 16.8083L149.056 16.9539C148.467 17.0762 148.009 17.5376 147.891 18.1267L147.764 18.7576C147.656 19.2929 146.891 19.2929 146.783 18.7576L146.656 18.1267C146.538 17.5377 146.079 17.0763 145.491 16.9539L144.792 16.8083C144.262 16.6977 144.262 15.9395 144.792 15.8289L145.491 15.6843C146.079 15.5619 146.538 15.0996 146.656 14.5105L146.783 13.8796Z" fill="#6224C5" stroke="#6224C5"/>
<path d="M8.69629 15.363C8.80392 14.8278 9.56916 14.8278 9.67676 15.363L10.125 17.5955C10.2433 18.1845 10.7019 18.6459 11.29 18.7683L13.5625 19.241C14.0934 19.3514 14.0934 20.1101 13.5625 20.2205L11.29 20.6931C10.7019 20.8156 10.2433 21.2769 10.125 21.866L9.67676 24.0984C9.56912 24.6335 8.80398 24.6335 8.69629 24.0984L8.24805 21.866C8.12969 21.2768 7.67036 20.8155 7.08203 20.6931L4.80957 20.2205C4.27912 20.1098 4.27913 19.3516 4.80957 19.241L7.08203 18.7683C7.67036 18.646 8.12969 18.1846 8.24805 17.5955L8.69629 15.363Z" fill="#6224C5" stroke="#6224C5"/>
<defs>
<filter id="filter0_d_2069_7893" x="24.999" y="0" width="112" height="112" filterUnits="userSpaceOnUse" color-interpolation-filters="sRGB">
<feFlood flood-opacity="0" result="BackgroundImageFix"/>
<feColorMatrix in="SourceAlpha" type="matrix" values="0 0 0 0 0 0 0 0 0 0 0 0 0 0 0 0 0 0 127 0" result="hardAlpha"/>
<feOffset dy="4"/>
<feGaussianBlur stdDeviation="10"/>
<feComposite in2="hardAlpha" operator="out"/>
<feColorMatrix type="matrix" values="0 0 0 0 0.384314 0 0 0 0 0.141176 0 0 0 0 0.772549 0 0 0 0.1 0"/>
<feBlend mode="normal" in2="BackgroundImageFix" result="effect1_dropShadow_2069_7893"/>
<feBlend mode="normal" in="SourceGraphic" in2="effect1_dropShadow_2069_7893" result="shape"/>
</filter>
</defs>
</svg>
