<svg width="64" height="64" viewBox="0 0 64 64" fill="none" xmlns="http://www.w3.org/2000/svg">
<rect x="0.380952" y="0.380952" width="63.2381" height="63.2381" rx="31.619" fill="url(#paint0_linear_250_5029)"/>
<rect x="0.380952" y="0.380952" width="63.2381" height="63.2381" rx="31.619" stroke="url(#paint1_linear_250_5029)" stroke-width="0.761905"/>
<g filter="url(#filter0_d_250_5029)">
<rect x="12" y="12" width="40" height="40" rx="20" fill="white"/>
<rect x="12.381" y="12.381" width="39.2381" height="39.2381" rx="19.619" stroke="#DFE1E6" stroke-width="0.761905"/>
<path d="M27.6077 38.4167C28.291 37.6834 29.3327 37.7417 29.9327 38.5417L30.7743 39.6667C31.4493 40.5584 32.541 40.5584 33.216 39.6667L34.0577 38.5417C34.6577 37.7417 35.6993 37.6834 36.3827 38.4167C37.866 40.0001 39.0743 39.4751 39.0743 37.2584V27.8667C39.0827 24.5084 38.2993 23.6667 35.1493 23.6667H28.8493C25.6993 23.6667 24.916 24.5084 24.916 27.8667V37.2501C24.916 39.4751 26.1327 39.9917 27.6077 38.4167Z" stroke="#808897" stroke-width="1.2" stroke-linecap="round" stroke-linejoin="round"/>
<path d="M28.666 27.8333H35.3327" stroke="#808897" stroke-width="1.2" stroke-linecap="round" stroke-linejoin="round"/>
<path d="M29.5 31.1667H34.5" stroke="#808897" stroke-width="1.2" stroke-linecap="round" stroke-linejoin="round"/>
</g>
<defs>
<filter id="filter0_d_250_5029" x="8.95238" y="10.4762" width="46.0952" height="46.0952" filterUnits="userSpaceOnUse" color-interpolation-filters="sRGB">
<feFlood flood-opacity="0" result="BackgroundImageFix"/>
<feColorMatrix in="SourceAlpha" type="matrix" values="0 0 0 0 0 0 0 0 0 0 0 0 0 0 0 0 0 0 127 0" result="hardAlpha"/>
<feOffset dy="1.52381"/>
<feGaussianBlur stdDeviation="1.52381"/>
<feColorMatrix type="matrix" values="0 0 0 0 0.105882 0 0 0 0 0.109804 0 0 0 0 0.113725 0 0 0 0.04 0"/>
<feBlend mode="normal" in2="BackgroundImageFix" result="effect1_dropShadow_250_5029"/>
<feBlend mode="normal" in="SourceGraphic" in2="effect1_dropShadow_250_5029" result="shape"/>
</filter>
<linearGradient id="paint0_linear_250_5029" x1="32" y1="0" x2="32" y2="64" gradientUnits="userSpaceOnUse">
<stop stop-color="#E4E5E7" stop-opacity="0.48"/>
<stop offset="1" stop-color="#F7F8F8" stop-opacity="0"/>
<stop offset="1" stop-color="#E4E5E7" stop-opacity="0"/>
</linearGradient>
<linearGradient id="paint1_linear_250_5029" x1="32" y1="0" x2="32" y2="64" gradientUnits="userSpaceOnUse">
<stop stop-color="#E4E5E7"/>
<stop offset="0.765625" stop-color="#E4E5E7" stop-opacity="0"/>
</linearGradient>
</defs>
</svg>
