<svg width="80" height="80" viewBox="0 0 80 80" fill="none" xmlns="http://www.w3.org/2000/svg">
<g clip-path="url(#clip0_250_4519)">
<path opacity="0.4" d="M77.5828 20.2906C75.4844 12.5594 67.4437 4.52031 59.7125 2.42031C54.9719 1.2375 48.6219 0.0203125 40.0016 0C31.3813 0.021875 25.0312 1.2375 20.2906 2.42031C12.5609 4.52031 4.52031 12.5594 2.42031 20.2906C1.23906 25.0297 0.021875 31.3812 0 40C0.021875 48.6203 1.2375 54.9703 2.42031 59.7109C4.52031 67.4422 12.5594 75.4812 20.2906 77.5812C25.0312 78.7641 31.3813 79.9797 40.0016 80.0016C48.6203 79.9797 54.9719 78.7641 59.7125 77.5812C67.4437 75.4812 75.4828 67.4422 77.5828 59.7109C78.7656 54.9719 79.9813 48.6203 80.0031 40C79.9813 31.3797 78.7656 25.0297 77.5828 20.2891V20.2906Z" fill="#FFE5E5"/>
<path d="M59.9762 59.7171C59.7918 58.7921 58.8824 57.8296 57.9434 57.5343C57.3731 57.3577 46.2793 56.6234 40.0012 56.6312C33.7231 56.6234 22.6278 57.3577 22.059 57.5343C21.1199 57.8296 20.2106 58.7921 20.0262 59.7171C19.9231 60.2812 19.8309 61.0374 19.8934 62.053C19.959 63.0687 20.1434 63.8062 20.3121 64.3546C20.6059 65.2499 21.5903 66.0968 22.5168 66.2952C23.0871 66.4171 34.0043 66.5812 40.0012 66.5843C45.9981 66.5812 56.9153 66.4171 57.4856 66.2952C58.4106 66.0968 59.3949 65.2499 59.6903 64.3546C59.859 63.8077 60.0434 63.0687 60.109 62.053C60.1699 61.0374 60.0793 60.2812 59.9762 59.7171Z" fill="url(#paint0_linear_250_4519)"/>
<path d="M42.2109 19.2672V15.6266C42.2109 14.4064 41.2221 13.4172 40.0023 13.4172C38.7826 13.4172 37.7937 14.4064 37.7937 15.6266V19.2672C37.7937 20.4874 38.7826 21.4766 40.0023 21.4766C41.2221 21.4766 42.2109 20.4874 42.2109 19.2672Z" fill="url(#paint1_linear_250_4519)"/>
<path d="M26.5995 23.8976L24.0252 21.3233C23.1623 20.4604 21.7637 20.4602 20.9012 21.3227C20.0387 22.1852 20.0389 23.5839 20.9017 24.4467L23.476 27.021C24.3389 27.8838 25.7375 27.884 26.6 27.0215C27.4625 26.159 27.4623 24.7604 26.5995 23.8976Z" fill="url(#paint2_linear_250_4519)"/>
<path d="M56.5373 27.0252L59.1116 24.4509C59.9744 23.5881 59.9746 22.1895 59.1121 21.327C58.2496 20.4645 56.851 20.4647 55.9881 21.3275L53.4138 23.9018C52.551 24.7646 52.5508 26.1633 53.4133 27.0258C54.2758 27.8883 55.6744 27.8881 56.5373 27.0252Z" fill="url(#paint3_linear_250_4519)"/>
<path d="M60.733 42.6421H64.3736C65.5938 42.6421 66.583 41.6533 66.583 40.4335C66.583 39.2137 65.5938 38.2249 64.3736 38.2249H60.733C59.5128 38.2249 58.5236 39.2137 58.5236 40.4335C58.5236 41.6533 59.5128 42.6421 60.733 42.6421Z" fill="url(#paint4_linear_250_4519)"/>
<path d="M15.6266 42.6421H19.2672C20.4874 42.6421 21.4766 41.6533 21.4766 40.4335C21.4766 39.2137 20.4874 38.2249 19.2672 38.2249H15.6266C14.4064 38.2249 13.4172 39.2137 13.4172 40.4335C13.4172 41.6533 14.4064 42.6421 15.6266 42.6421Z" fill="url(#paint5_linear_250_4519)"/>
<path d="M40.0018 56.6313C44.5737 56.625 51.6987 57.0126 55.4534 57.2922C55.6565 52.4329 55.6393 44.6079 55.6003 39.8469C55.4706 31.5219 48.2112 24.7844 40.0018 24.7844C31.7924 24.7844 24.5315 31.5219 24.4034 39.8469C24.3643 44.6063 24.3471 52.4329 24.5503 57.2922C28.3065 57.0126 35.4315 56.625 40.0018 56.6313Z" fill="url(#paint6_linear_250_4519)"/>
<path d="M29.4644 35.9171C30.3253 32.9796 32.73 30.6655 35.7409 29.878C36.7941 29.6014 37.8737 30.2327 38.1487 31.2874C38.4253 32.3421 37.7941 33.4202 36.7394 33.6952C35.0863 34.128 33.7159 35.4358 33.2503 37.0264C32.9987 37.8874 32.2112 38.4452 31.3581 38.4452C31.1737 38.4452 30.9878 38.4186 30.8019 38.3655C29.7566 38.0593 29.1566 36.9624 29.4628 35.9171H29.4644Z" fill="url(#paint7_linear_250_4519)"/>
</g>
<defs>
<linearGradient id="paint0_linear_250_4519" x1="47.7559" y1="69.5374" x2="25.1184" y2="46.8999" gradientUnits="userSpaceOnUse">
<stop stop-color="#34344F"/>
<stop offset="0.26" stop-color="#3B3B56"/>
<stop offset="0.66" stop-color="#4F4F6C"/>
<stop offset="1" stop-color="#666684"/>
</linearGradient>
<linearGradient id="paint1_linear_250_4519" x1="42.4734" y1="19.9188" x2="37.5297" y2="14.975" gradientUnits="userSpaceOnUse">
<stop stop-color="#EF3739"/>
<stop offset="0.54" stop-color="#EF3739"/>
<stop offset="1" stop-color="#FF8C8B"/>
</linearGradient>
<linearGradient id="paint2_linear_250_4519" x1="26.595" y1="27.0186" x2="20.8965" y2="21.3186" gradientUnits="userSpaceOnUse">
<stop stop-color="#EF3739"/>
<stop offset="0.54" stop-color="#EF3739"/>
<stop offset="1" stop-color="#FF8C8B"/>
</linearGradient>
<linearGradient id="paint3_linear_250_4519" x1="57.8156" y1="25.7352" x2="54.6921" y2="22.6118" gradientUnits="userSpaceOnUse">
<stop stop-color="#EF3739"/>
<stop offset="0.54" stop-color="#EF3739"/>
<stop offset="1" stop-color="#FF8C8B"/>
</linearGradient>
<linearGradient id="paint4_linear_250_4519" x1="65.0252" y1="42.9062" x2="60.0799" y2="37.9624" gradientUnits="userSpaceOnUse">
<stop stop-color="#EF3739"/>
<stop offset="0.54" stop-color="#EF3739"/>
<stop offset="1" stop-color="#FF8C8B"/>
</linearGradient>
<linearGradient id="paint5_linear_250_4519" x1="19.9172" y1="42.9046" x2="14.9719" y2="37.9608" gradientUnits="userSpaceOnUse">
<stop stop-color="#EF3739"/>
<stop offset="0.54" stop-color="#EF3739"/>
<stop offset="1" stop-color="#FF8C8B"/>
</linearGradient>
<linearGradient id="paint6_linear_250_4519" x1="42.4737" y1="14.975" x2="37.5299" y2="19.9188" gradientUnits="userSpaceOnUse">
<stop stop-color="#EF3739"/>
<stop offset="0.54" stop-color="#EF3739"/>
<stop offset="1" stop-color="#FF8C8B"/>
</linearGradient>
<linearGradient id="paint7_linear_250_4519" x1="35.2441" y1="35.5733" x2="31.7784" y2="32.1077" gradientUnits="userSpaceOnUse">
<stop stop-color="#FFD2D2"/>
<stop offset="0.57" stop-color="white"/>
<stop offset="1" stop-color="white"/>
</linearGradient>
<clipPath id="clip0_250_4519">
<rect width="80" height="80" fill="white"/>
</clipPath>
</defs>
</svg>
