<svg width="335" height="202" viewBox="0 0 335 202" fill="none" xmlns="http://www.w3.org/2000/svg">
<path d="M0 24C0 10.7451 10.7452 0 24 0H311C324.255 0 335 10.7452 335 24V178.005C335 191.26 324.255 202.005 311 202.005H24C10.7452 202.005 0 191.26 0 178.005V24Z" fill="#FFD8D8"/>
<path d="M21.614 30.182C20.1393 30.182 18.9167 29.6967 17.946 28.726C16.9753 27.7367 16.49 26.528 16.49 25.1C16.49 23.6627 16.9753 22.4587 17.946 21.488C18.9073 20.508 20.13 20.018 21.614 20.018C22.5007 20.018 23.3173 20.228 24.064 20.648C24.82 21.068 25.408 21.6373 25.828 22.356L24.428 23.168C24.1667 22.6827 23.784 22.3 23.28 22.02C22.7853 21.7307 22.23 21.586 21.614 21.586C20.578 21.586 19.7287 21.9173 19.066 22.58C18.422 23.2333 18.1 24.0733 18.1 25.1C18.1 26.1267 18.422 26.9667 19.066 27.62C19.7287 28.2827 20.578 28.614 21.614 28.614C22.23 28.614 22.79 28.474 23.294 28.194C23.798 27.9047 24.176 27.5173 24.428 27.032L25.828 27.83C25.4267 28.5393 24.8433 29.1133 24.078 29.552C23.3407 29.972 22.5193 30.182 21.614 30.182ZM32.8359 29.118C32.1265 29.8273 31.2539 30.182 30.2179 30.182C29.1819 30.182 28.3092 29.8273 27.5999 29.118C26.8812 28.3993 26.5219 27.5267 26.5219 26.5C26.5219 25.4733 26.8812 24.6007 27.5999 23.882C28.3092 23.1727 29.1819 22.818 30.2179 22.818C31.2539 22.818 32.1265 23.1727 32.8359 23.882C33.5545 24.6007 33.9139 25.4733 33.9139 26.5C33.9139 27.5267 33.5545 28.3993 32.8359 29.118ZM28.0339 26.5C28.0339 27.1347 28.2439 27.662 28.6639 28.082C29.0839 28.502 29.6019 28.712 30.2179 28.712C30.8339 28.712 31.3519 28.502 31.7719 28.082C32.1919 27.662 32.4019 27.1347 32.4019 26.5C32.4019 25.8653 32.1919 25.338 31.7719 24.918C31.3519 24.498 30.8339 24.288 30.2179 24.288C29.6019 24.288 29.0839 24.498 28.6639 24.918C28.2439 25.338 28.0339 25.8653 28.0339 26.5ZM36.6531 30H35.1411V19.78H36.6531V30ZM39.7806 30H38.2686V19.78H39.7806V30ZM48.1582 27.144H42.5862C42.6982 27.6667 42.9502 28.0727 43.3422 28.362C43.7436 28.6513 44.2382 28.796 44.8262 28.796C45.6196 28.796 46.2216 28.5067 46.6322 27.928L47.8782 28.656C47.1969 29.6733 46.1749 30.182 44.8122 30.182C43.6829 30.182 42.7636 29.8367 42.0542 29.146C41.3542 28.446 41.0042 27.564 41.0042 26.5C41.0042 25.464 41.3496 24.5913 42.0402 23.882C42.7216 23.1727 43.6082 22.818 44.7002 22.818C45.7176 22.818 46.5576 23.1773 47.2202 23.896C47.8829 24.6147 48.2142 25.4873 48.2142 26.514C48.2142 26.7007 48.1956 26.9107 48.1582 27.144ZM42.5722 25.912H46.6882C46.5856 25.3613 46.3522 24.9367 45.9882 24.638C45.6336 24.3393 45.1996 24.19 44.6862 24.19C44.1262 24.19 43.6596 24.344 43.2862 24.652C42.9129 24.96 42.6749 25.38 42.5722 25.912ZM52.6676 30.182C51.613 30.182 50.731 29.8273 50.0216 29.118C49.3216 28.3993 48.9716 27.5267 48.9716 26.5C48.9716 25.4547 49.3216 24.582 50.0216 23.882C50.731 23.1727 51.613 22.818 52.6676 22.818C53.349 22.818 53.9696 22.9813 54.5296 23.308C55.0896 23.6347 55.5096 24.0733 55.7896 24.624L54.4876 25.38C54.329 25.044 54.0863 24.7827 53.7596 24.596C53.4423 24.4 53.0736 24.302 52.6536 24.302C52.0376 24.302 51.5196 24.512 51.0996 24.932C50.689 25.3613 50.4836 25.884 50.4836 26.5C50.4836 27.116 50.689 27.6387 51.0996 28.068C51.5196 28.488 52.0376 28.698 52.6536 28.698C53.0643 28.698 53.433 28.6047 53.7596 28.418C54.0956 28.222 54.3476 27.956 54.5156 27.62L55.8176 28.362C55.519 28.922 55.085 29.3653 54.5156 29.692C53.9556 30.0187 53.3396 30.182 52.6676 30.182ZM60.6765 23V24.456H58.9405V27.816C58.9405 28.1053 59.0058 28.3153 59.1365 28.446C59.2672 28.5673 59.4585 28.6373 59.7105 28.656C59.9718 28.6653 60.2938 28.6607 60.6765 28.642V30C59.5192 30.14 58.6885 30.042 58.1845 29.706C57.6805 29.3607 57.4285 28.7307 57.4285 27.816V24.456H56.1405V23H57.4285V21.488L58.9405 21.04V23H60.6765ZM63.3359 21.67C63.1492 21.8567 62.9252 21.95 62.6639 21.95C62.4025 21.95 62.1739 21.8567 61.9779 21.67C61.7912 21.474 61.6979 21.2453 61.6979 20.984C61.6979 20.7227 61.7912 20.4987 61.9779 20.312C62.1645 20.116 62.3932 20.018 62.6639 20.018C62.9345 20.018 63.1632 20.116 63.3499 20.312C63.5365 20.4987 63.6299 20.7227 63.6299 20.984C63.6299 21.2453 63.5319 21.474 63.3359 21.67ZM63.4199 30H61.9079V23H63.4199V30ZM70.9574 29.118C70.2481 29.8273 69.3754 30.182 68.3394 30.182C67.3034 30.182 66.4308 29.8273 65.7214 29.118C65.0028 28.3993 64.6434 27.5267 64.6434 26.5C64.6434 25.4733 65.0028 24.6007 65.7214 23.882C66.4308 23.1727 67.3034 22.818 68.3394 22.818C69.3754 22.818 70.2481 23.1727 70.9574 23.882C71.6761 24.6007 72.0354 25.4733 72.0354 26.5C72.0354 27.5267 71.6761 28.3993 70.9574 29.118ZM66.1554 26.5C66.1554 27.1347 66.3654 27.662 66.7854 28.082C67.2054 28.502 67.7234 28.712 68.3394 28.712C68.9554 28.712 69.4734 28.502 69.8934 28.082C70.3134 27.662 70.5234 27.1347 70.5234 26.5C70.5234 25.8653 70.3134 25.338 69.8934 24.918C69.4734 24.498 68.9554 24.288 68.3394 24.288C67.7234 24.288 67.2054 24.498 66.7854 24.918C66.3654 25.338 66.1554 25.8653 66.1554 26.5ZM76.9446 22.818C77.7566 22.818 78.4053 23.0793 78.8906 23.602C79.3853 24.1153 79.6326 24.8153 79.6326 25.702V30H78.1206V25.856C78.1206 25.3333 77.9806 24.932 77.7006 24.652C77.4206 24.372 77.038 24.232 76.5526 24.232C76.002 24.232 75.568 24.4047 75.2506 24.75C74.9333 25.086 74.7746 25.5853 74.7746 26.248V30H73.2626V23H74.7746V23.896C75.2413 23.1773 75.9646 22.818 76.9446 22.818ZM88.4427 22.818C89.3947 22.818 90.216 23.1773 90.9067 23.896C91.588 24.6053 91.9287 25.4733 91.9287 26.5C91.9287 27.536 91.588 28.4087 90.9067 29.118C90.2253 29.8273 89.404 30.182 88.4427 30.182C87.388 30.182 86.5713 29.79 85.9927 29.006V32.8H84.4807V23H85.9927V24.008C86.562 23.2147 87.3787 22.818 88.4427 22.818ZM86.6227 28.11C87.0427 28.53 87.57 28.74 88.2047 28.74C88.8393 28.74 89.3667 28.53 89.7867 28.11C90.2067 27.6807 90.4167 27.144 90.4167 26.5C90.4167 25.856 90.2067 25.324 89.7867 24.904C89.3667 24.4747 88.8393 24.26 88.2047 24.26C87.57 24.26 87.0427 24.4747 86.6227 24.904C86.2027 25.324 85.9927 25.856 85.9927 26.5C85.9927 27.1347 86.2027 27.6713 86.6227 28.11ZM98.703 23.994V23H100.215V30H98.703V28.992C98.1337 29.7853 97.317 30.182 96.253 30.182C95.2917 30.182 94.4704 29.8273 93.789 29.118C93.1077 28.4087 92.767 27.536 92.767 26.5C92.767 25.464 93.1077 24.5913 93.789 23.882C94.4704 23.1727 95.2917 22.818 96.253 22.818C97.317 22.818 98.1337 23.21 98.703 23.994ZM94.909 28.11C95.329 28.53 95.8564 28.74 96.491 28.74C97.1257 28.74 97.653 28.53 98.073 28.11C98.493 27.6807 98.703 27.144 98.703 26.5C98.703 25.856 98.493 25.324 98.073 24.904C97.653 24.4747 97.1257 24.26 96.491 24.26C95.8564 24.26 95.329 24.4747 94.909 24.904C94.489 25.324 94.279 25.856 94.279 26.5C94.279 27.1347 94.489 27.6713 94.909 28.11ZM106.555 26.752V23H108.067V30H106.555V29.104C106.089 29.8227 105.365 30.182 104.385 30.182C103.573 30.182 102.92 29.9253 102.425 29.412C101.94 28.8893 101.697 28.1847 101.697 27.298V23H103.209V27.144C103.209 27.6667 103.349 28.068 103.629 28.348C103.909 28.628 104.292 28.768 104.777 28.768C105.328 28.768 105.762 28.6 106.079 28.264C106.397 27.9187 106.555 27.4147 106.555 26.752ZM111.012 24.932C111.012 25.1467 111.124 25.324 111.348 25.464C111.572 25.5947 111.899 25.7207 112.328 25.842C112.655 25.9167 112.94 25.996 113.182 26.08C113.425 26.164 113.682 26.29 113.952 26.458C114.223 26.6167 114.428 26.8313 114.568 27.102C114.718 27.3633 114.788 27.6713 114.778 28.026C114.778 28.698 114.517 29.2253 113.994 29.608C113.472 29.9907 112.823 30.182 112.048 30.182C111.358 30.182 110.765 30.0373 110.27 29.748C109.776 29.4587 109.416 29.0573 109.192 28.544L110.494 27.788C110.728 28.46 111.246 28.796 112.048 28.796C112.842 28.796 113.238 28.5347 113.238 28.012C113.238 27.6293 112.795 27.3307 111.908 27.116C111.572 27.032 111.288 26.948 111.054 26.864C110.83 26.78 110.578 26.6587 110.298 26.5C110.028 26.3413 109.818 26.1313 109.668 25.87C109.528 25.6087 109.463 25.3053 109.472 24.96C109.472 24.316 109.715 23.798 110.2 23.406C110.695 23.014 111.306 22.818 112.034 22.818C112.613 22.818 113.126 22.9487 113.574 23.21C114.032 23.462 114.382 23.8167 114.624 24.274L113.35 24.988C113.117 24.456 112.678 24.19 112.034 24.19C111.736 24.19 111.488 24.2553 111.292 24.386C111.106 24.5167 111.012 24.6987 111.012 24.932ZM122.552 27.144H116.98C117.092 27.6667 117.344 28.0727 117.736 28.362C118.137 28.6513 118.632 28.796 119.22 28.796C120.013 28.796 120.615 28.5067 121.026 27.928L122.272 28.656C121.59 29.6733 120.568 30.182 119.206 30.182C118.076 30.182 117.157 29.8367 116.448 29.146C115.748 28.446 115.398 27.564 115.398 26.5C115.398 25.464 115.743 24.5913 116.434 23.882C117.115 23.1727 118.002 22.818 119.094 22.818C120.111 22.818 120.951 23.1773 121.614 23.896C122.276 24.6147 122.608 25.4873 122.608 26.514C122.608 26.7007 122.589 26.9107 122.552 27.144ZM116.966 25.912H121.082C120.979 25.3613 120.746 24.9367 120.382 24.638C120.027 24.3393 119.593 24.19 119.08 24.19C118.52 24.19 118.053 24.344 117.68 24.652C117.306 24.96 117.068 25.38 116.966 25.912ZM129.301 23.994V20.2H130.813V30H129.301V28.992C128.732 29.7853 127.915 30.182 126.851 30.182C125.89 30.182 125.069 29.8273 124.387 29.118C123.706 28.4087 123.365 27.536 123.365 26.5C123.365 25.464 123.706 24.5913 124.387 23.882C125.069 23.1727 125.89 22.818 126.851 22.818C127.915 22.818 128.732 23.21 129.301 23.994ZM125.507 28.11C125.927 28.53 126.455 28.74 127.089 28.74C127.724 28.74 128.251 28.53 128.671 28.11C129.091 27.6807 129.301 27.144 129.301 26.5C129.301 25.856 129.091 25.324 128.671 24.904C128.251 24.4747 127.724 24.26 127.089 24.26C126.455 24.26 125.927 24.4747 125.507 24.904C125.087 25.324 124.877 25.856 124.877 26.5C124.877 27.1347 125.087 27.6713 125.507 28.11Z" fill="#1D1E25"/>
<path d="M21.984 66.048H24.8C26.9333 66.048 28.736 66.688 30.208 67.968C31.68 69.2267 32.416 70.976 32.416 73.216C32.416 75.456 31.6587 77.216 30.144 78.496C28.6507 79.776 26.7947 80.416 24.576 80.416C22.7627 80.416 21.184 80 19.84 79.168C18.496 78.336 17.536 77.152 16.96 75.616L20.128 73.792C20.7467 75.8187 22.2293 76.832 24.576 76.832C25.8347 76.832 26.8373 76.512 27.584 75.872C28.352 75.2107 28.736 74.3253 28.736 73.216C28.736 72.128 28.3627 71.264 27.616 70.624C26.8693 69.9627 25.8773 69.632 24.64 69.632H18.112L18.976 57.6H31.456V61.056H22.368L21.984 66.048ZM48.5215 77.248C46.9855 79.36 44.8308 80.416 42.0575 80.416C39.3055 80.416 37.1402 79.36 35.5615 77.248C34.0255 75.136 33.2575 72.32 33.2575 68.8C33.2575 65.28 34.0255 62.464 35.5615 60.352C37.1402 58.24 39.3055 57.184 42.0575 57.184C44.8308 57.184 46.9855 58.24 48.5215 60.352C50.0788 62.4427 50.8575 65.2587 50.8575 68.8C50.8575 72.3413 50.0788 75.1573 48.5215 77.248ZM42.0575 76.832C43.7215 76.832 44.9908 76.1387 45.8655 74.752C46.7402 73.3653 47.1775 71.3813 47.1775 68.8C47.1775 66.2187 46.7402 64.2347 45.8655 62.848C44.9908 61.4613 43.7215 60.768 42.0575 60.768C40.4148 60.768 39.1455 61.4613 38.2495 62.848C37.3748 64.2347 36.9375 66.2187 36.9375 68.8C36.9375 71.3813 37.3748 73.3653 38.2495 74.752C39.1455 76.1387 40.4148 76.832 42.0575 76.832ZM53.181 76.16H57.021L54.781 84.48H51.901L53.181 76.16ZM73.289 77.248C71.753 79.36 69.5983 80.416 66.825 80.416C64.073 80.416 61.9077 79.36 60.329 77.248C58.793 75.136 58.025 72.32 58.025 68.8C58.025 65.28 58.793 62.464 60.329 60.352C61.9077 58.24 64.073 57.184 66.825 57.184C69.5983 57.184 71.753 58.24 73.289 60.352C74.8463 62.4427 75.625 65.2587 75.625 68.8C75.625 72.3413 74.8463 75.1573 73.289 77.248ZM66.825 76.832C68.489 76.832 69.7583 76.1387 70.633 74.752C71.5077 73.3653 71.945 71.3813 71.945 68.8C71.945 66.2187 71.5077 64.2347 70.633 62.848C69.7583 61.4613 68.489 60.768 66.825 60.768C65.1823 60.768 63.913 61.4613 63.017 62.848C62.1423 64.2347 61.705 66.2187 61.705 68.8C61.705 71.3813 62.1423 73.3653 63.017 74.752C63.913 76.1387 65.1823 76.832 66.825 76.832ZM92.4853 77.248C90.9493 79.36 88.7946 80.416 86.0213 80.416C83.2693 80.416 81.1039 79.36 79.5252 77.248C77.9892 75.136 77.2212 72.32 77.2212 68.8C77.2212 65.28 77.9892 62.464 79.5252 60.352C81.1039 58.24 83.2693 57.184 86.0213 57.184C88.7946 57.184 90.9493 58.24 92.4853 60.352C94.0426 62.4427 94.8213 65.2587 94.8213 68.8C94.8213 72.3413 94.0426 75.1573 92.4853 77.248ZM86.0213 76.832C87.6853 76.832 88.9546 76.1387 89.8293 74.752C90.7039 73.3653 91.1413 71.3813 91.1413 68.8C91.1413 66.2187 90.7039 64.2347 89.8293 62.848C88.9546 61.4613 87.6853 60.768 86.0213 60.768C84.3786 60.768 83.1093 61.4613 82.2133 62.848C81.3386 64.2347 80.9012 66.2187 80.9012 68.8C80.9012 71.3813 81.3386 73.3653 82.2133 74.752C83.1093 76.1387 84.3786 76.832 86.0213 76.832ZM111.681 77.248C110.145 79.36 107.991 80.416 105.217 80.416C102.465 80.416 100.3 79.36 98.7215 77.248C97.1855 75.136 96.4175 72.32 96.4175 68.8C96.4175 65.28 97.1855 62.464 98.7215 60.352C100.3 58.24 102.465 57.184 105.217 57.184C107.991 57.184 110.145 58.24 111.681 60.352C113.239 62.4427 114.017 65.2587 114.017 68.8C114.017 72.3413 113.239 75.1573 111.681 77.248ZM105.217 76.832C106.881 76.832 108.151 76.1387 109.025 74.752C109.9 73.3653 110.337 71.3813 110.337 68.8C110.337 66.2187 109.9 64.2347 109.025 62.848C108.151 61.4613 106.881 60.768 105.217 60.768C103.575 60.768 102.305 61.4613 101.409 62.848C100.535 64.2347 100.097 66.2187 100.097 68.8C100.097 71.3813 100.535 73.3653 101.409 74.752C102.305 76.1387 103.575 76.832 105.217 76.832ZM126.864 73.538L132.138 80H129.672L124.704 74.006V80H122.634V67.4H124.704V73.052L129.492 67.4H131.958L126.864 73.538ZM139.599 72.296L135.405 78.164H139.779V80H132.759V78.704L136.971 72.836H132.939V71H139.599V72.296Z" fill="#1D1E25"/>
<path d="M234.804 80.118C234.095 80.8273 233.222 81.182 232.186 81.182C231.15 81.182 230.277 80.8273 229.568 80.118C228.849 79.3993 228.49 78.5267 228.49 77.5C228.49 76.4733 228.849 75.6007 229.568 74.882C230.277 74.1727 231.15 73.818 232.186 73.818C233.222 73.818 234.095 74.1727 234.804 74.882C235.523 75.6007 235.882 76.4733 235.882 77.5C235.882 78.5267 235.523 79.3993 234.804 80.118ZM230.002 77.5C230.002 78.1347 230.212 78.662 230.632 79.082C231.052 79.502 231.57 79.712 232.186 79.712C232.802 79.712 233.32 79.502 233.74 79.082C234.16 78.662 234.37 78.1347 234.37 77.5C234.37 76.8653 234.16 76.338 233.74 75.918C233.32 75.498 232.802 75.288 232.186 75.288C231.57 75.288 231.052 75.498 230.632 75.918C230.212 76.338 230.002 76.8653 230.002 77.5ZM240.531 71.018V72.474C239.43 72.3807 238.879 72.8427 238.879 73.86V74H240.531V75.456H238.879V81H237.367V75.456H236.303V74H237.367V73.86C237.367 72.8893 237.638 72.1567 238.179 71.662C238.72 71.1673 239.504 70.9527 240.531 71.018ZM247.12 73.152H248.704C249.904 73.152 250.918 73.512 251.746 74.232C252.574 74.94 252.988 75.924 252.988 77.184C252.988 78.444 252.562 79.434 251.71 80.154C250.87 80.874 249.826 81.234 248.578 81.234C247.558 81.234 246.67 81 245.914 80.532C245.158 80.064 244.618 79.398 244.294 78.534L246.076 77.508C246.424 78.648 247.258 79.218 248.578 79.218C249.286 79.218 249.85 79.038 250.27 78.678C250.702 78.306 250.918 77.808 250.918 77.184C250.918 76.572 250.708 76.086 250.288 75.726C249.868 75.354 249.31 75.168 248.614 75.168H244.942L245.428 68.4H252.448V70.344H247.336L247.12 73.152ZM262.317 79.452C261.453 80.64 260.241 81.234 258.681 81.234C257.133 81.234 255.915 80.64 255.027 79.452C254.163 78.264 253.731 76.68 253.731 74.7C253.731 72.72 254.163 71.136 255.027 69.948C255.915 68.76 257.133 68.166 258.681 68.166C260.241 68.166 261.453 68.76 262.317 69.948C263.193 71.124 263.631 72.708 263.631 74.7C263.631 76.692 263.193 78.276 262.317 79.452ZM258.681 79.218C259.617 79.218 260.331 78.828 260.823 78.048C261.315 77.268 261.561 76.152 261.561 74.7C261.561 73.248 261.315 72.132 260.823 71.352C260.331 70.572 259.617 70.182 258.681 70.182C257.757 70.182 257.043 70.572 256.539 71.352C256.047 72.132 255.801 73.248 255.801 74.7C255.801 76.152 256.047 77.268 256.539 78.048C257.043 78.828 257.757 79.218 258.681 79.218ZM265.208 78.84H267.368L266.108 83.52H264.488L265.208 78.84ZM276.789 79.452C275.925 80.64 274.713 81.234 273.153 81.234C271.605 81.234 270.387 80.64 269.499 79.452C268.635 78.264 268.203 76.68 268.203 74.7C268.203 72.72 268.635 71.136 269.499 69.948C270.387 68.76 271.605 68.166 273.153 68.166C274.713 68.166 275.925 68.76 276.789 69.948C277.665 71.124 278.103 72.708 278.103 74.7C278.103 76.692 277.665 78.276 276.789 79.452ZM273.153 79.218C274.089 79.218 274.803 78.828 275.295 78.048C275.787 77.268 276.033 76.152 276.033 74.7C276.033 73.248 275.787 72.132 275.295 71.352C274.803 70.572 274.089 70.182 273.153 70.182C272.229 70.182 271.515 70.572 271.011 71.352C270.519 72.132 270.273 73.248 270.273 74.7C270.273 76.152 270.519 77.268 271.011 78.048C271.515 78.828 272.229 79.218 273.153 79.218ZM287.857 79.452C286.993 80.64 285.781 81.234 284.221 81.234C282.673 81.234 281.455 80.64 280.567 79.452C279.703 78.264 279.271 76.68 279.271 74.7C279.271 72.72 279.703 71.136 280.567 69.948C281.455 68.76 282.673 68.166 284.221 68.166C285.781 68.166 286.993 68.76 287.857 69.948C288.733 71.124 289.171 72.708 289.171 74.7C289.171 76.692 288.733 78.276 287.857 79.452ZM284.221 79.218C285.157 79.218 285.871 78.828 286.363 78.048C286.855 77.268 287.101 76.152 287.101 74.7C287.101 73.248 286.855 72.132 286.363 71.352C285.871 70.572 285.157 70.182 284.221 70.182C283.297 70.182 282.583 70.572 282.079 71.352C281.587 72.132 281.341 73.248 281.341 74.7C281.341 76.152 281.587 77.268 282.079 78.048C282.583 78.828 283.297 79.218 284.221 79.218ZM298.925 79.452C298.061 80.64 296.849 81.234 295.289 81.234C293.741 81.234 292.523 80.64 291.635 79.452C290.771 78.264 290.339 76.68 290.339 74.7C290.339 72.72 290.771 71.136 291.635 69.948C292.523 68.76 293.741 68.166 295.289 68.166C296.849 68.166 298.061 68.76 298.925 69.948C299.801 71.124 300.239 72.708 300.239 74.7C300.239 76.692 299.801 78.276 298.925 79.452ZM295.289 79.218C296.225 79.218 296.939 78.828 297.431 78.048C297.923 77.268 298.169 76.152 298.169 74.7C298.169 73.248 297.923 72.132 297.431 71.352C296.939 70.572 296.225 70.182 295.289 70.182C294.365 70.182 293.651 70.572 293.147 71.352C292.655 72.132 292.409 73.248 292.409 74.7C292.409 76.152 292.655 77.268 293.147 78.048C293.651 78.828 294.365 79.218 295.289 79.218ZM308.317 75.974L312.419 81H310.501L306.637 76.338V81H305.027V71.2H306.637V75.596L310.361 71.2H312.279L308.317 75.974ZM318.292 75.008L315.03 79.572H318.432V81H312.972V79.992L316.248 75.428H313.112V74H318.292V75.008Z" fill="#1D1E25"/>
<g clip-path="url(#clip0_250_4772)">
<rect x="16" y="101" width="303" height="8" rx="4" fill="white" fill-opacity="0.8"/>
<rect x="16" y="101" width="303" height="8" rx="4" fill="#D73333"/>
</g>
<path d="M18.59 118.205V126.465H22.58V128.005H16.98V118.205H18.59ZM24.9649 119.675C24.7783 119.862 24.5543 119.955 24.2929 119.955C24.0316 119.955 23.8029 119.862 23.6069 119.675C23.4203 119.479 23.3269 119.25 23.3269 118.989C23.3269 118.728 23.4203 118.504 23.6069 118.317C23.7936 118.121 24.0223 118.023 24.2929 118.023C24.5636 118.023 24.7923 118.121 24.9789 118.317C25.1656 118.504 25.2589 118.728 25.2589 118.989C25.2589 119.25 25.1609 119.479 24.9649 119.675ZM25.0489 128.005H23.5369V121.005H25.0489V128.005ZM34.3085 120.823C35.1018 120.823 35.7412 121.08 36.2265 121.593C36.7118 122.106 36.9545 122.797 36.9545 123.665V128.005H35.4425V123.763C35.4425 123.287 35.3212 122.914 35.0785 122.643C34.8358 122.372 34.5045 122.237 34.0845 122.237C33.6085 122.237 33.2352 122.396 32.9645 122.713C32.6938 123.021 32.5585 123.478 32.5585 124.085V128.005H31.0465V123.763C31.0465 123.278 30.9298 122.904 30.6965 122.643C30.4725 122.372 30.1505 122.237 29.7305 122.237C29.2638 122.237 28.8858 122.396 28.5965 122.713C28.3165 123.03 28.1765 123.488 28.1765 124.085V128.005H26.6645V121.005H28.1765V121.845C28.6245 121.164 29.2918 120.823 30.1785 120.823C31.0745 120.823 31.7372 121.192 32.1665 121.929C32.6238 121.192 33.3378 120.823 34.3085 120.823ZM39.8607 119.675C39.674 119.862 39.45 119.955 39.1887 119.955C38.9274 119.955 38.6987 119.862 38.5027 119.675C38.316 119.479 38.2227 119.25 38.2227 118.989C38.2227 118.728 38.316 118.504 38.5027 118.317C38.6894 118.121 38.918 118.023 39.1887 118.023C39.4594 118.023 39.688 118.121 39.8747 118.317C40.0614 118.504 40.1547 118.728 40.1547 118.989C40.1547 119.25 40.0567 119.479 39.8607 119.675ZM39.9447 128.005H38.4327V121.005H39.9447V128.005ZM45.4663 121.005V122.461H43.7303V125.821C43.7303 126.11 43.7956 126.32 43.9263 126.451C44.0569 126.572 44.2483 126.642 44.5003 126.661C44.7616 126.67 45.0836 126.666 45.4663 126.647V128.005C44.3089 128.145 43.4783 128.047 42.9743 127.711C42.4703 127.366 42.2183 126.736 42.2183 125.821V122.461H40.9303V121.005H42.2183V119.493L43.7303 119.045V121.005H45.4663ZM51.638 121.005V122.181C52.0207 121.313 52.7393 120.879 53.794 120.879V122.517C53.2247 122.48 52.7207 122.62 52.282 122.937C51.8527 123.245 51.638 123.758 51.638 124.477V128.005H50.126V121.005H51.638ZM61.205 125.149H55.633C55.745 125.672 55.997 126.078 56.389 126.367C56.7903 126.656 57.285 126.801 57.873 126.801C58.6663 126.801 59.2683 126.512 59.679 125.933L60.925 126.661C60.2437 127.678 59.2217 128.187 57.859 128.187C56.7297 128.187 55.8103 127.842 55.101 127.151C54.401 126.451 54.051 125.569 54.051 124.505C54.051 123.469 54.3963 122.596 55.087 121.887C55.7683 121.178 56.655 120.823 57.747 120.823C58.7643 120.823 59.6043 121.182 60.267 121.901C60.9297 122.62 61.261 123.492 61.261 124.519C61.261 124.706 61.2423 124.916 61.205 125.149ZM55.619 123.917H59.735C59.6323 123.366 59.399 122.942 59.035 122.643C58.6803 122.344 58.2463 122.195 57.733 122.195C57.173 122.195 56.7063 122.349 56.333 122.657C55.9597 122.965 55.7217 123.385 55.619 123.917ZM67.9544 121.999V121.005H69.4664V128.005H67.9544V126.997C67.3851 127.79 66.5684 128.187 65.5044 128.187C64.5431 128.187 63.7218 127.832 63.0404 127.123C62.3591 126.414 62.0184 125.541 62.0184 124.505C62.0184 123.469 62.3591 122.596 63.0404 121.887C63.7218 121.178 64.5431 120.823 65.5044 120.823C66.5684 120.823 67.3851 121.215 67.9544 121.999ZM64.1604 126.115C64.5804 126.535 65.1078 126.745 65.7424 126.745C66.3771 126.745 66.9044 126.535 67.3244 126.115C67.7444 125.686 67.9544 125.149 67.9544 124.505C67.9544 123.861 67.7444 123.329 67.3244 122.909C66.9044 122.48 66.3771 122.265 65.7424 122.265C65.1078 122.265 64.5804 122.48 64.1604 122.909C63.7404 123.329 63.5304 123.861 63.5304 124.505C63.5304 125.14 63.7404 125.676 64.1604 126.115ZM74.3928 128.187C73.3381 128.187 72.4561 127.832 71.7468 127.123C71.0468 126.404 70.6968 125.532 70.6968 124.505C70.6968 123.46 71.0468 122.587 71.7468 121.887C72.4561 121.178 73.3381 120.823 74.3928 120.823C75.0741 120.823 75.6948 120.986 76.2548 121.313C76.8148 121.64 77.2348 122.078 77.5148 122.629L76.2128 123.385C76.0541 123.049 75.8115 122.788 75.4848 122.601C75.1675 122.405 74.7988 122.307 74.3788 122.307C73.7628 122.307 73.2448 122.517 72.8248 122.937C72.4141 123.366 72.2088 123.889 72.2088 124.505C72.2088 125.121 72.4141 125.644 72.8248 126.073C73.2448 126.493 73.7628 126.703 74.3788 126.703C74.7895 126.703 75.1581 126.61 75.4848 126.423C75.8208 126.227 76.0728 125.961 76.2408 125.625L77.5428 126.367C77.2441 126.927 76.8101 127.37 76.2408 127.697C75.6808 128.024 75.0648 128.187 74.3928 128.187ZM82.1777 120.823C82.9897 120.823 83.6383 121.084 84.1237 121.607C84.6183 122.12 84.8657 122.82 84.8657 123.707V128.005H83.3537V123.861C83.3537 123.338 83.2137 122.937 82.9337 122.657C82.6537 122.377 82.271 122.237 81.7857 122.237C81.235 122.237 80.801 122.41 80.4837 122.755C80.1663 123.091 80.0077 123.59 80.0077 124.253V128.005H78.4957V118.205H80.0077V121.901C80.4743 121.182 81.1977 120.823 82.1777 120.823ZM93.1157 125.149H87.5437C87.6557 125.672 87.9077 126.078 88.2997 126.367C88.7011 126.656 89.1957 126.801 89.7837 126.801C90.5771 126.801 91.1791 126.512 91.5897 125.933L92.8357 126.661C92.1544 127.678 91.1324 128.187 89.7697 128.187C88.6404 128.187 87.7211 127.842 87.0117 127.151C86.3117 126.451 85.9617 125.569 85.9617 124.505C85.9617 123.469 86.3071 122.596 86.9977 121.887C87.6791 121.178 88.5657 120.823 89.6577 120.823C90.6751 120.823 91.5151 121.182 92.1777 121.901C92.8404 122.62 93.1717 123.492 93.1717 124.519C93.1717 124.706 93.1531 124.916 93.1157 125.149ZM87.5297 123.917H91.6457C91.5431 123.366 91.3097 122.942 90.9457 122.643C90.5911 122.344 90.1571 122.195 89.6437 122.195C89.0837 122.195 88.6171 122.349 88.2437 122.657C87.8704 122.965 87.6324 123.385 87.5297 123.917ZM99.8651 121.999V118.205H101.377V128.005H99.8651V126.997C99.2958 127.79 98.4791 128.187 97.4151 128.187C96.4538 128.187 95.6325 127.832 94.9511 127.123C94.2698 126.414 93.9291 125.541 93.9291 124.505C93.9291 123.469 94.2698 122.596 94.9511 121.887C95.6325 121.178 96.4538 120.823 97.4151 120.823C98.4791 120.823 99.2958 121.215 99.8651 121.999ZM96.0711 126.115C96.4911 126.535 97.0185 126.745 97.6531 126.745C98.2878 126.745 98.8151 126.535 99.2351 126.115C99.6551 125.686 99.8651 125.149 99.8651 124.505C99.8651 123.861 99.6551 123.329 99.2351 122.909C98.8151 122.48 98.2878 122.265 97.6531 122.265C97.0185 122.265 96.4911 122.48 96.0711 122.909C95.6511 123.329 95.4411 123.861 95.4411 124.505C95.4411 125.14 95.6511 125.676 96.0711 126.115Z" fill="#040404"/>
<path d="M232.238 126.801C231.566 127.725 230.623 128.187 229.41 128.187C228.206 128.187 227.259 127.725 226.568 126.801C225.896 125.877 225.56 124.645 225.56 123.105C225.56 121.565 225.896 120.333 226.568 119.409C227.259 118.485 228.206 118.023 229.41 118.023C230.623 118.023 231.566 118.485 232.238 119.409C232.919 120.324 233.26 121.556 233.26 123.105C233.26 124.654 232.919 125.886 232.238 126.801ZM229.41 126.619C230.138 126.619 230.693 126.316 231.076 125.709C231.459 125.102 231.65 124.234 231.65 123.105C231.65 121.976 231.459 121.108 231.076 120.501C230.693 119.894 230.138 119.591 229.41 119.591C228.691 119.591 228.136 119.894 227.744 120.501C227.361 121.108 227.17 121.976 227.17 123.105C227.17 124.234 227.361 125.102 227.744 125.709C228.136 126.316 228.691 126.619 229.41 126.619ZM241.308 122.979L245.41 128.005H243.492L239.628 123.343V128.005H238.018V118.205H239.628V122.601L243.352 118.205H245.27L241.308 122.979ZM251.284 122.013L248.022 126.577H251.424V128.005H245.964V126.997L249.24 122.433H246.104V121.005H251.284V122.013ZM257.565 121.005V122.181C257.948 121.313 258.666 120.879 259.721 120.879V122.517C259.152 122.48 258.648 122.62 258.209 122.937C257.78 123.245 257.565 123.758 257.565 124.477V128.005H256.053V121.005H257.565ZM267.132 125.149H261.56C261.672 125.672 261.924 126.078 262.316 126.367C262.717 126.656 263.212 126.801 263.8 126.801C264.593 126.801 265.195 126.512 265.606 125.933L266.852 126.661C266.171 127.678 265.149 128.187 263.786 128.187C262.657 128.187 261.737 127.842 261.028 127.151C260.328 126.451 259.978 125.569 259.978 124.505C259.978 123.469 260.323 122.596 261.014 121.887C261.695 121.178 262.582 120.823 263.674 120.823C264.691 120.823 265.531 121.182 266.194 121.901C266.857 122.62 267.188 123.492 267.188 124.519C267.188 124.706 267.169 124.916 267.132 125.149ZM261.546 123.917H265.662C265.559 123.366 265.326 122.942 264.962 122.643C264.607 122.344 264.173 122.195 263.66 122.195C263.1 122.195 262.633 122.349 262.26 122.657C261.887 122.965 261.649 123.385 261.546 123.917ZM276.023 120.823C276.816 120.823 277.455 121.08 277.941 121.593C278.426 122.106 278.669 122.797 278.669 123.665V128.005H277.157V123.763C277.157 123.287 277.035 122.914 276.793 122.643C276.55 122.372 276.219 122.237 275.799 122.237C275.323 122.237 274.949 122.396 274.679 122.713C274.408 123.021 274.273 123.478 274.273 124.085V128.005H272.761V123.763C272.761 123.278 272.644 122.904 272.411 122.643C272.187 122.372 271.865 122.237 271.445 122.237C270.978 122.237 270.6 122.396 270.311 122.713C270.031 123.03 269.891 123.488 269.891 124.085V128.005H268.379V121.005H269.891V121.845C270.339 121.164 271.006 120.823 271.893 120.823C272.789 120.823 273.451 121.192 273.881 121.929C274.338 121.192 275.052 120.823 276.023 120.823ZM285.691 121.999V121.005H287.203V128.005H285.691V126.997C285.121 127.79 284.305 128.187 283.241 128.187C282.279 128.187 281.458 127.832 280.777 127.123C280.095 126.414 279.755 125.541 279.755 124.505C279.755 123.469 280.095 122.596 280.777 121.887C281.458 121.178 282.279 120.823 283.241 120.823C284.305 120.823 285.121 121.215 285.691 121.999ZM281.897 126.115C282.317 126.535 282.844 126.745 283.479 126.745C284.113 126.745 284.641 126.535 285.061 126.115C285.481 125.686 285.691 125.149 285.691 124.505C285.691 123.861 285.481 123.329 285.061 122.909C284.641 122.48 284.113 122.265 283.479 122.265C282.844 122.265 282.317 122.48 281.897 122.909C281.477 123.329 281.267 123.861 281.267 124.505C281.267 125.14 281.477 125.676 281.897 126.115ZM290.253 119.675C290.066 119.862 289.842 119.955 289.581 119.955C289.32 119.955 289.091 119.862 288.895 119.675C288.708 119.479 288.615 119.25 288.615 118.989C288.615 118.728 288.708 118.504 288.895 118.317C289.082 118.121 289.31 118.023 289.581 118.023C289.852 118.023 290.08 118.121 290.267 118.317C290.454 118.504 290.547 118.728 290.547 118.989C290.547 119.25 290.449 119.479 290.253 119.675ZM290.337 128.005H288.825V121.005H290.337V128.005ZM295.635 120.823C296.447 120.823 297.095 121.084 297.581 121.607C298.075 122.12 298.323 122.82 298.323 123.707V128.005H296.811V123.861C296.811 123.338 296.671 122.937 296.391 122.657C296.111 122.377 295.728 122.237 295.243 122.237C294.692 122.237 294.258 122.41 293.941 122.755C293.623 123.091 293.465 123.59 293.465 124.253V128.005H291.953V121.005H293.465V121.901C293.931 121.182 294.655 120.823 295.635 120.823ZM301.239 119.675C301.052 119.862 300.828 119.955 300.567 119.955C300.305 119.955 300.077 119.862 299.881 119.675C299.694 119.479 299.601 119.25 299.601 118.989C299.601 118.728 299.694 118.504 299.881 118.317C300.067 118.121 300.296 118.023 300.567 118.023C300.837 118.023 301.066 118.121 301.253 118.317C301.439 118.504 301.533 118.728 301.533 118.989C301.533 119.25 301.435 119.479 301.239 119.675ZM301.323 128.005H299.811V121.005H301.323V128.005ZM306.62 120.823C307.432 120.823 308.081 121.084 308.566 121.607C309.061 122.12 309.308 122.82 309.308 123.707V128.005H307.796V123.861C307.796 123.338 307.656 122.937 307.376 122.657C307.096 122.377 306.714 122.237 306.228 122.237C305.678 122.237 305.244 122.41 304.926 122.755C304.609 123.091 304.45 123.59 304.45 124.253V128.005H302.938V121.005H304.45V121.901C304.917 121.182 305.64 120.823 306.62 120.823ZM316.368 122.041V121.005H317.852V127.683C317.852 128.747 317.502 129.564 316.802 130.133C316.112 130.702 315.262 130.987 314.254 130.987C312.64 130.987 311.534 130.422 310.936 129.293L312.238 128.537C312.602 129.256 313.284 129.615 314.282 129.615C314.936 129.615 315.444 129.442 315.808 129.097C316.182 128.761 316.368 128.29 316.368 127.683V126.829C315.799 127.641 314.987 128.047 313.932 128.047C312.952 128.047 312.117 127.697 311.426 126.997C310.745 126.288 310.404 125.434 310.404 124.435C310.404 123.427 310.745 122.578 311.426 121.887C312.108 121.178 312.943 120.823 313.932 120.823C314.987 120.823 315.799 121.229 316.368 122.041ZM312.546 126.003C312.976 126.423 313.508 126.633 314.142 126.633C314.777 126.633 315.304 126.423 315.724 126.003C316.154 125.583 316.368 125.06 316.368 124.435C316.368 123.81 316.154 123.287 315.724 122.867C315.304 122.447 314.777 122.237 314.142 122.237C313.508 122.237 312.976 122.447 312.546 122.867C312.126 123.287 311.916 123.81 311.916 124.435C311.916 125.06 312.126 125.583 312.546 126.003Z" fill="#040404"/>
<path d="M16 166.005C16 154.959 24.9543 146.005 36 146.005H299C310.046 146.005 319 154.959 319 166.005C319 177.051 310.046 186.005 299 186.005H36C24.9543 186.005 16 177.051 16 166.005Z" fill="#1D1E25"/>
<path d="M88.98 160.205H92.83C94.174 160.205 95.2893 160.676 96.176 161.619C97.072 162.562 97.52 163.724 97.52 165.105C97.52 166.477 97.072 167.639 96.176 168.591C95.2893 169.534 94.174 170.005 92.83 170.005H88.98V160.205ZM90.59 168.465H92.83C93.754 168.465 94.5053 168.148 95.084 167.513C95.672 166.878 95.966 166.076 95.966 165.105C95.966 164.134 95.672 163.332 95.084 162.697C94.5053 162.062 93.754 161.745 92.83 161.745H90.59V168.465ZM105.512 167.149H99.9398C100.052 167.672 100.304 168.078 100.696 168.367C101.097 168.656 101.592 168.801 102.18 168.801C102.973 168.801 103.575 168.512 103.986 167.933L105.232 168.661C104.55 169.678 103.528 170.187 102.166 170.187C101.036 170.187 100.117 169.842 99.4078 169.151C98.7078 168.451 98.3578 167.569 98.3578 166.505C98.3578 165.469 98.7031 164.596 99.3938 163.887C100.075 163.178 100.962 162.823 102.054 162.823C103.071 162.823 103.911 163.182 104.574 163.901C105.236 164.62 105.568 165.492 105.568 166.519C105.568 166.706 105.549 166.916 105.512 167.149ZM99.9258 165.917H104.042C103.939 165.366 103.706 164.942 103.342 164.643C102.987 164.344 102.553 164.195 102.04 164.195C101.48 164.195 101.013 164.349 100.64 164.657C100.266 164.965 100.028 165.385 99.9258 165.917ZM110.72 162.823C111.672 162.823 112.494 163.182 113.184 163.901C113.866 164.61 114.206 165.478 114.206 166.505C114.206 167.541 113.866 168.414 113.184 169.123C112.503 169.832 111.682 170.187 110.72 170.187C109.666 170.187 108.849 169.795 108.27 169.011V172.805H106.758V163.005H108.27V164.013C108.84 163.22 109.656 162.823 110.72 162.823ZM108.9 168.115C109.32 168.535 109.848 168.745 110.482 168.745C111.117 168.745 111.644 168.535 112.064 168.115C112.484 167.686 112.694 167.149 112.694 166.505C112.694 165.861 112.484 165.329 112.064 164.909C111.644 164.48 111.117 164.265 110.482 164.265C109.848 164.265 109.32 164.48 108.9 164.909C108.48 165.329 108.27 165.861 108.27 166.505C108.27 167.14 108.48 167.676 108.9 168.115ZM121.359 169.123C120.649 169.832 119.777 170.187 118.741 170.187C117.705 170.187 116.832 169.832 116.123 169.123C115.404 168.404 115.045 167.532 115.045 166.505C115.045 165.478 115.404 164.606 116.123 163.887C116.832 163.178 117.705 162.823 118.741 162.823C119.777 162.823 120.649 163.178 121.359 163.887C122.077 164.606 122.437 165.478 122.437 166.505C122.437 167.532 122.077 168.404 121.359 169.123ZM116.557 166.505C116.557 167.14 116.767 167.667 117.187 168.087C117.607 168.507 118.125 168.717 118.741 168.717C119.357 168.717 119.875 168.507 120.295 168.087C120.715 167.667 120.925 167.14 120.925 166.505C120.925 165.87 120.715 165.343 120.295 164.923C119.875 164.503 119.357 164.293 118.741 164.293C118.125 164.293 117.607 164.503 117.187 164.923C116.767 165.343 116.557 165.87 116.557 166.505ZM124.885 164.937C124.885 165.152 124.997 165.329 125.221 165.469C125.445 165.6 125.772 165.726 126.201 165.847C126.528 165.922 126.812 166.001 127.055 166.085C127.298 166.169 127.554 166.295 127.825 166.463C128.096 166.622 128.301 166.836 128.441 167.107C128.59 167.368 128.66 167.676 128.651 168.031C128.651 168.703 128.39 169.23 127.867 169.613C127.344 169.996 126.696 170.187 125.921 170.187C125.23 170.187 124.638 170.042 124.143 169.753C123.648 169.464 123.289 169.062 123.065 168.549L124.367 167.793C124.6 168.465 125.118 168.801 125.921 168.801C126.714 168.801 127.111 168.54 127.111 168.017C127.111 167.634 126.668 167.336 125.781 167.121C125.445 167.037 125.16 166.953 124.927 166.869C124.703 166.785 124.451 166.664 124.171 166.505C123.9 166.346 123.69 166.136 123.541 165.875C123.401 165.614 123.336 165.31 123.345 164.965C123.345 164.321 123.588 163.803 124.073 163.411C124.568 163.019 125.179 162.823 125.907 162.823C126.486 162.823 126.999 162.954 127.447 163.215C127.904 163.467 128.254 163.822 128.497 164.279L127.223 164.993C126.99 164.461 126.551 164.195 125.907 164.195C125.608 164.195 125.361 164.26 125.165 164.391C124.978 164.522 124.885 164.704 124.885 164.937ZM131.186 161.675C131 161.862 130.776 161.955 130.514 161.955C130.253 161.955 130.024 161.862 129.828 161.675C129.642 161.479 129.548 161.25 129.548 160.989C129.548 160.728 129.642 160.504 129.828 160.317C130.015 160.121 130.244 160.023 130.514 160.023C130.785 160.023 131.014 160.121 131.2 160.317C131.387 160.504 131.48 160.728 131.48 160.989C131.48 161.25 131.382 161.479 131.186 161.675ZM131.27 170.005H129.758V163.005H131.27V170.005ZM136.792 163.005V164.461H135.056V167.821C135.056 168.11 135.121 168.32 135.252 168.451C135.382 168.572 135.574 168.642 135.826 168.661C136.087 168.67 136.409 168.666 136.792 168.647V170.005C135.634 170.145 134.804 170.047 134.3 169.711C133.796 169.366 133.544 168.736 133.544 167.821V164.461H132.256V163.005H133.544V161.493L135.056 161.045V163.005H136.792ZM146.995 163.999V163.005H148.507V170.005H146.995V168.997C146.426 169.79 145.609 170.187 144.545 170.187C143.584 170.187 142.763 169.832 142.081 169.123C141.4 168.414 141.059 167.541 141.059 166.505C141.059 165.469 141.4 164.596 142.081 163.887C142.763 163.178 143.584 162.823 144.545 162.823C145.609 162.823 146.426 163.215 146.995 163.999ZM143.201 168.115C143.621 168.535 144.149 168.745 144.783 168.745C145.418 168.745 145.945 168.535 146.365 168.115C146.785 167.686 146.995 167.149 146.995 166.505C146.995 165.861 146.785 165.329 146.365 164.909C145.945 164.48 145.418 164.265 144.783 164.265C144.149 164.265 143.621 164.48 143.201 164.909C142.781 165.329 142.571 165.861 142.571 166.505C142.571 167.14 142.781 167.676 143.201 168.115ZM154.036 163.005V164.461H152.3V167.821C152.3 168.11 152.365 168.32 152.496 168.451C152.626 168.572 152.818 168.642 153.07 168.661C153.331 168.67 153.653 168.666 154.036 168.647V170.005C152.878 170.145 152.048 170.047 151.544 169.711C151.04 169.366 150.788 168.736 150.788 167.821V164.461H149.5V163.005H150.788V161.493L152.3 161.045V163.005H154.036ZM166.914 170.005H165.178L164.492 168.031H160.32L159.634 170.005H157.884L161.44 160.205H163.372L166.914 170.005ZM162.406 162.095L160.852 166.519H163.96L162.406 162.095ZM166.36 160.205H173.5V161.745H170.742V170.005H169.132V161.745H166.36V160.205ZM182.209 160.205H183.931V170.005H182.321V163.019L179.339 167.947H179.143L176.161 163.005V170.005H174.551V160.205H176.287L179.241 165.105L182.209 160.205ZM192.913 163.005V164.461H191.177V167.821C191.177 168.11 191.242 168.32 191.373 168.451C191.503 168.572 191.695 168.642 191.947 168.661C192.208 168.67 192.53 168.666 192.913 168.647V170.005C191.755 170.145 190.925 170.047 190.421 169.711C189.917 169.366 189.665 168.736 189.665 167.821V164.461H188.377V163.005H189.665V161.493L191.177 161.045V163.005H192.913ZM199.779 169.123C199.07 169.832 198.197 170.187 197.161 170.187C196.125 170.187 195.252 169.832 194.543 169.123C193.824 168.404 193.465 167.532 193.465 166.505C193.465 165.478 193.824 164.606 194.543 163.887C195.252 163.178 196.125 162.823 197.161 162.823C198.197 162.823 199.07 163.178 199.779 163.887C200.498 164.606 200.857 165.478 200.857 166.505C200.857 167.532 200.498 168.404 199.779 169.123ZM194.977 166.505C194.977 167.14 195.187 167.667 195.607 168.087C196.027 168.507 196.545 168.717 197.161 168.717C197.777 168.717 198.295 168.507 198.715 168.087C199.135 167.667 199.345 167.14 199.345 166.505C199.345 165.87 199.135 165.343 198.715 164.923C198.295 164.503 197.777 164.293 197.161 164.293C196.545 164.293 196.027 164.503 195.607 164.923C195.187 165.343 194.977 165.87 194.977 166.505ZM210.162 166.757V163.005H211.674V170.005H210.162V169.109C209.695 169.828 208.972 170.187 207.992 170.187C207.18 170.187 206.527 169.93 206.032 169.417C205.547 168.894 205.304 168.19 205.304 167.303V163.005H206.816V167.149C206.816 167.672 206.956 168.073 207.236 168.353C207.516 168.633 207.899 168.773 208.384 168.773C208.935 168.773 209.369 168.605 209.686 168.269C210.003 167.924 210.162 167.42 210.162 166.757ZM216.984 162.823C217.796 162.823 218.445 163.084 218.93 163.607C219.425 164.12 219.672 164.82 219.672 165.707V170.005H218.16V165.861C218.16 165.338 218.02 164.937 217.74 164.657C217.46 164.377 217.077 164.237 216.592 164.237C216.041 164.237 215.607 164.41 215.29 164.755C214.973 165.091 214.814 165.59 214.814 166.253V170.005H213.302V163.005H214.814V163.901C215.281 163.182 216.004 162.823 216.984 162.823ZM222.672 170.005H221.16V159.785H222.672V170.005ZM230.21 169.123C229.5 169.832 228.628 170.187 227.592 170.187C226.556 170.187 225.683 169.832 224.974 169.123C224.255 168.404 223.896 167.532 223.896 166.505C223.896 165.478 224.255 164.606 224.974 163.887C225.683 163.178 226.556 162.823 227.592 162.823C228.628 162.823 229.5 163.178 230.21 163.887C230.928 164.606 231.288 165.478 231.288 166.505C231.288 167.532 230.928 168.404 230.21 169.123ZM225.408 166.505C225.408 167.14 225.618 167.667 226.038 168.087C226.458 168.507 226.976 168.717 227.592 168.717C228.208 168.717 228.726 168.507 229.146 168.087C229.566 167.667 229.776 167.14 229.776 166.505C229.776 165.87 229.566 165.343 229.146 164.923C228.726 164.503 228.208 164.293 227.592 164.293C226.976 164.293 226.458 164.503 226.038 164.923C225.618 165.343 225.408 165.87 225.408 166.505ZM235.819 170.187C234.764 170.187 233.882 169.832 233.173 169.123C232.473 168.404 232.123 167.532 232.123 166.505C232.123 165.46 232.473 164.587 233.173 163.887C233.882 163.178 234.764 162.823 235.819 162.823C236.5 162.823 237.121 162.986 237.681 163.313C238.241 163.64 238.661 164.078 238.941 164.629L237.639 165.385C237.48 165.049 237.238 164.788 236.911 164.601C236.594 164.405 236.225 164.307 235.805 164.307C235.189 164.307 234.671 164.517 234.251 164.937C233.84 165.366 233.635 165.889 233.635 166.505C233.635 167.121 233.84 167.644 234.251 168.073C234.671 168.493 235.189 168.703 235.805 168.703C236.216 168.703 236.584 168.61 236.911 168.423C237.247 168.227 237.499 167.961 237.667 167.625L238.969 168.367C238.67 168.927 238.236 169.37 237.667 169.697C237.107 170.024 236.491 170.187 235.819 170.187ZM242.918 166.435L246.11 170.005H244.304L241.434 166.771V170.005H239.922V160.205H241.434V166.099L244.15 163.005H245.998L242.918 166.435Z" fill="white"/>
<defs>
<clipPath id="clip0_250_4772">
<rect x="16" y="101" width="303" height="8" rx="4" fill="white"/>
</clipPath>
</defs>
</svg>
