<svg width="298" height="54" viewBox="0 0 298 54" fill="none" xmlns="http://www.w3.org/2000/svg">
<circle cx="32.0104" cy="21.846" r="21.7018" fill="#6224C5" fill-opacity="0.2"/>
<circle cx="21.7018" cy="29.4415" r="21.7018" fill="#6224C5" fill-opacity="0.2"/>
<circle cx="32.0104" cy="29.4415" r="21.7018" fill="#6224C5" fill-opacity="0.2"/>
<circle cx="23.3287" cy="22.3883" r="21.7018" fill="#6224C5" fill-opacity="0.2"/>
<circle cx="26.5846" cy="32.1539" r="21.7018" fill="#6224C5" fill-opacity="0.2"/>
<circle cx="27.6695" cy="27.2711" r="21.7018" fill="#6224C5"/>
<g clip-path="url(#clip0_250_4157)">
<path d="M23.9144 21.1675C24.454 21.1675 24.9715 21.3818 25.3531 21.7634C25.7346 22.1449 25.949 22.6624 25.949 23.202V31.3402C25.949 31.8798 25.7346 32.3973 25.3531 32.7788C24.9715 33.1604 24.454 33.3747 23.9144 33.3747C23.3748 33.3747 22.8573 33.1604 22.4758 32.7788C22.0942 32.3973 21.8799 31.8798 21.8799 31.3402V23.202C21.8799 22.6624 22.0942 22.1449 22.4758 21.7634C22.8573 21.3818 23.3748 21.1675 23.9144 21.1675ZM30.6962 21.1675C31.2358 21.1675 31.7533 21.3818 32.1349 21.7634C32.5164 22.1449 32.7308 22.6624 32.7308 23.202V31.3402C32.7308 31.8798 32.5164 32.3973 32.1349 32.7788C31.7533 33.1604 31.2358 33.3747 30.6962 33.3747C30.1566 33.3747 29.6391 33.1604 29.2576 32.7788C28.876 32.3973 28.6617 31.8798 28.6617 31.3402V23.202C28.6617 22.6624 28.876 22.1449 29.2576 21.7634C29.6391 21.3818 30.1566 21.1675 30.6962 21.1675Z" fill="white"/>
</g>
<path d="M65.7119 23.3582V30.6423" stroke="#6224C5" stroke-width="1.96622" stroke-miterlimit="10" stroke-linecap="round"/>
<path d="M69.6445 28.3244V25.6753" stroke="#6224C5" stroke-width="1.96622" stroke-miterlimit="10" stroke-linecap="round"/>
<path d="M73.5771 27.993V26.0071" stroke="#6224C5" stroke-width="1.96622" stroke-miterlimit="10" stroke-linecap="round"/>
<path d="M77.5088 27.6618V26.3379" stroke="#6224C5" stroke-width="1.96622" stroke-miterlimit="10" stroke-linecap="round"/>
<path d="M81.4414 30.7743V23.2253" stroke="#6224C5" stroke-width="1.96622" stroke-miterlimit="10" stroke-linecap="round"/>
<path d="M85.374 34.6151V19.3848" stroke="#6224C5" stroke-width="1.96622" stroke-miterlimit="10" stroke-linecap="round"/>
<path d="M89.3066 48.3866V5.61353" stroke="#6224C5" stroke-width="1.96622" stroke-miterlimit="10" stroke-linecap="round"/>
<path d="M93.2393 33.2906V20.7095" stroke="#6224C5" stroke-width="1.96622" stroke-miterlimit="10" stroke-linecap="round"/>
<path d="M97.1719 30.3112V23.689" stroke="#6224C5" stroke-width="1.96622" stroke-miterlimit="10" stroke-linecap="round"/>
<path d="M101.104 33.2906V20.7095" stroke="#6224C5" stroke-width="1.96622" stroke-miterlimit="10" stroke-linecap="round"/>
<path d="M105.036 28.9865V25.0134" stroke="#6224C5" stroke-width="1.96622" stroke-miterlimit="10" stroke-linecap="round"/>
<path d="M108.969 27.993V26.0071" stroke="#6224C5" stroke-width="1.96622" stroke-miterlimit="10" stroke-linecap="round"/>
<path d="M112.901 28.9865V25.0134" stroke="#6224C5" stroke-width="1.96622" stroke-miterlimit="10" stroke-linecap="round"/>
<path d="M116.833 32.9597V21.0405" stroke="#6224C5" stroke-width="1.96622" stroke-miterlimit="10" stroke-linecap="round"/>
<path d="M120.766 42.7578V11.2419" stroke="#6224C5" stroke-width="1.96622" stroke-miterlimit="10" stroke-linecap="round"/>
<path d="M124.698 31.3039V22.6958" stroke="#6224C5" stroke-width="1.96622" stroke-miterlimit="10" stroke-linecap="round"/>
<path d="M128.631 28.9865V25.0134" stroke="#6224C5" stroke-width="1.96622" stroke-miterlimit="10" stroke-linecap="round"/>
<path d="M132.563 27.993V26.0071" stroke="#6224C5" stroke-width="1.96622" stroke-miterlimit="10" stroke-linecap="round"/>
<path d="M136.496 32.9595V21.0403" stroke="#6224C5" stroke-width="1.96622" stroke-miterlimit="10" stroke-linecap="round"/>
<path d="M140.428 29.6486V24.3516" stroke="#6224C5" stroke-width="1.96622" stroke-miterlimit="10" stroke-linecap="round"/>
<path d="M144.36 28.839V25.1609" stroke="#6224C5" stroke-width="1.96622" stroke-miterlimit="10" stroke-linecap="round"/>
<path d="M148.293 30.6786V23.321" stroke="#6224C5" stroke-width="1.96622" stroke-miterlimit="10" stroke-linecap="round"/>
<path d="M152.226 26.3872V27.6128" stroke="#6224C5" stroke-width="1.96622" stroke-miterlimit="10" stroke-linecap="round"/>
<path d="M156.158 30.6789V23.3213" stroke="#6224C5" stroke-width="1.96622" stroke-miterlimit="10" stroke-linecap="round"/>
<path d="M160.091 42.8679V11.1318" stroke="#6224C5" stroke-width="1.96622" stroke-miterlimit="10" stroke-linecap="round"/>
<path d="M164.022 45.0754V8.92456" stroke="#6224C5" stroke-width="1.96622" stroke-miterlimit="10" stroke-linecap="round"/>
<path d="M167.955 50.0414V3.9585" stroke="#6224C5" stroke-width="1.96622" stroke-miterlimit="10" stroke-linecap="round"/>
<path d="M171.888 45.0754V8.92456" stroke="#6224C5" stroke-width="1.96622" stroke-miterlimit="10" stroke-linecap="round"/>
<path d="M175.82 17.6191V36.3808" stroke="#6224C5" stroke-width="1.96622" stroke-miterlimit="10" stroke-linecap="round"/>
<path d="M179.753 20.2559V33.7441" stroke="#6224C5" stroke-width="1.96622" stroke-miterlimit="10" stroke-linecap="round"/>
<path d="M183.685 22.5859V31.4143" stroke="#6224C5" stroke-width="1.96622" stroke-miterlimit="10" stroke-linecap="round"/>
<path d="M187.617 27.993V26.0071" stroke="#6224C5" stroke-width="1.96622" stroke-miterlimit="10" stroke-linecap="round"/>
<path d="M191.55 27.6621V26.3381" stroke="#6224C5" stroke-width="1.96622" stroke-miterlimit="10" stroke-linecap="round"/>
<path d="M195.482 30.7743V23.2253" stroke="#6224C5" stroke-width="1.96622" stroke-miterlimit="10" stroke-linecap="round"/>
<path d="M199.415 34.6151V19.3848" stroke="#6224C5" stroke-width="1.96622" stroke-miterlimit="10" stroke-linecap="round"/>
<path d="M203.347 31.3039V22.6958" stroke="#6224C5" stroke-width="1.96622" stroke-miterlimit="10" stroke-linecap="round"/>
<path d="M207.279 33.2906V20.7095" stroke="#6224C5" stroke-width="1.96622" stroke-miterlimit="10" stroke-linecap="round"/>
<path d="M211.212 42.7578V11.2419" stroke="#6224C5" stroke-width="1.96622" stroke-miterlimit="10" stroke-linecap="round"/>
<path d="M215.145 41.4333V12.5667" stroke="#6224C5" stroke-opacity="0.3" stroke-width="1.96622" stroke-miterlimit="10" stroke-linecap="round"/>
<path d="M219.077 34.6151V19.3848" stroke="#6224C5" stroke-opacity="0.3" stroke-width="1.96622" stroke-miterlimit="10" stroke-linecap="round"/>
<path d="M223.01 30.277V23.7229" stroke="#6224C5" stroke-opacity="0.3" stroke-width="1.96622" stroke-miterlimit="10" stroke-linecap="round"/>
<path d="M226.941 41.4333V12.5667" stroke="#6224C5" stroke-opacity="0.3" stroke-width="1.96622" stroke-miterlimit="10" stroke-linecap="round"/>
<path d="M230.874 45.0754V8.92456" stroke="#6224C5" stroke-opacity="0.3" stroke-width="1.96622" stroke-miterlimit="10" stroke-linecap="round"/>
<path d="M234.807 37.4864L234.807 16.5134" stroke="#6224C5" stroke-opacity="0.3" stroke-width="1.96622" stroke-miterlimit="10" stroke-linecap="round"/>
<path d="M238.739 42.73L238.739 11.2705" stroke="#6224C5" stroke-opacity="0.3" stroke-width="1.96622" stroke-miterlimit="10" stroke-linecap="round"/>
<path d="M242.672 29.6217L242.672 24.3784" stroke="#6224C5" stroke-opacity="0.3" stroke-width="1.96622" stroke-miterlimit="10" stroke-linecap="round"/>
<path d="M246.604 32.2433L246.604 21.7568" stroke="#6224C5" stroke-opacity="0.3" stroke-width="1.96622" stroke-miterlimit="10" stroke-linecap="round"/>
<path d="M250.536 44.0406L250.536 9.95947" stroke="#6224C5" stroke-opacity="0.3" stroke-width="1.96622" stroke-miterlimit="10" stroke-linecap="round"/>
<path d="M254.469 44.0406L254.469 9.95947" stroke="#6224C5" stroke-opacity="0.3" stroke-width="1.96622" stroke-miterlimit="10" stroke-linecap="round"/>
<path d="M258.401 50.0414V3.9585" stroke="#6224C5" stroke-opacity="0.3" stroke-width="1.96622" stroke-miterlimit="10" stroke-linecap="round"/>
<path d="M262.334 41.4333V12.5667" stroke="#6224C5" stroke-opacity="0.3" stroke-width="1.96622" stroke-miterlimit="10" stroke-linecap="round"/>
<path d="M266.266 32.9597V21.0405" stroke="#6224C5" stroke-opacity="0.3" stroke-width="1.96622" stroke-miterlimit="10" stroke-linecap="round"/>
<path d="M270.198 29.6486V24.3516" stroke="#6224C5" stroke-opacity="0.3" stroke-width="1.96622" stroke-miterlimit="10" stroke-linecap="round"/>
<path d="M274.131 41.4333V12.5667" stroke="#6224C5" stroke-opacity="0.3" stroke-width="1.96622" stroke-miterlimit="10" stroke-linecap="round"/>
<path d="M278.063 29.6486V24.3516" stroke="#6224C5" stroke-opacity="0.3" stroke-width="1.96622" stroke-miterlimit="10" stroke-linecap="round"/>
<path d="M281.996 42.758V11.2422" stroke="#6224C5" stroke-opacity="0.3" stroke-width="1.96622" stroke-miterlimit="10" stroke-linecap="round"/>
<path d="M285.929 31.3039V22.6958" stroke="#6224C5" stroke-opacity="0.3" stroke-width="1.96622" stroke-miterlimit="10" stroke-linecap="round"/>
<path d="M289.86 28.9865V25.0134" stroke="#6224C5" stroke-opacity="0.3" stroke-width="1.96622" stroke-miterlimit="10" stroke-linecap="round"/>
<path d="M293.793 27.993V26.0071" stroke="#6224C5" stroke-opacity="0.3" stroke-width="1.96622" stroke-miterlimit="10" stroke-linecap="round"/>
<defs>
<clipPath id="clip0_250_4157">
<rect width="12" height="13" fill="white" transform="translate(21 21)"/>
</clipPath>
</defs>
</svg>
