<svg width="64" height="64" viewBox="0 0 64 64" fill="none" xmlns="http://www.w3.org/2000/svg">
<rect x="0.380952" y="0.380952" width="63.2381" height="63.2381" rx="31.619" fill="url(#paint0_linear_250_5076)"/>
<rect x="0.380952" y="0.380952" width="63.2381" height="63.2381" rx="31.619" stroke="url(#paint1_linear_250_5076)" stroke-width="0.761905"/>
<g filter="url(#filter0_d_250_5076)">
<rect x="12" y="12" width="40" height="40" rx="20" fill="white"/>
<rect x="12.381" y="12.381" width="39.2381" height="39.2381" rx="19.619" stroke="#DFE1E6" stroke-width="0.761905"/>
<path d="M33.666 26.1667H38.666" stroke="#808897" stroke-width="1.2" stroke-linecap="round" stroke-linejoin="round"/>
<path d="M33.666 28.6667H36.166" stroke="#808897" stroke-width="1.2" stroke-linecap="round" stroke-linejoin="round"/>
<path d="M39.4993 31.5834C39.4993 35.9584 35.9577 39.5001 31.5827 39.5001C27.2077 39.5001 23.666 35.9584 23.666 31.5834C23.666 27.2084 27.2077 23.6667 31.5827 23.6667" stroke="#808897" stroke-width="1.2" stroke-linecap="round" stroke-linejoin="round"/>
<path d="M40.3327 40.3334L38.666 38.6667" stroke="#808897" stroke-width="1.2" stroke-linecap="round" stroke-linejoin="round"/>
</g>
<defs>
<filter id="filter0_d_250_5076" x="8.95238" y="10.4762" width="46.0952" height="46.0952" filterUnits="userSpaceOnUse" color-interpolation-filters="sRGB">
<feFlood flood-opacity="0" result="BackgroundImageFix"/>
<feColorMatrix in="SourceAlpha" type="matrix" values="0 0 0 0 0 0 0 0 0 0 0 0 0 0 0 0 0 0 127 0" result="hardAlpha"/>
<feOffset dy="1.52381"/>
<feGaussianBlur stdDeviation="1.52381"/>
<feColorMatrix type="matrix" values="0 0 0 0 0.105882 0 0 0 0 0.109804 0 0 0 0 0.113725 0 0 0 0.04 0"/>
<feBlend mode="normal" in2="BackgroundImageFix" result="effect1_dropShadow_250_5076"/>
<feBlend mode="normal" in="SourceGraphic" in2="effect1_dropShadow_250_5076" result="shape"/>
</filter>
<linearGradient id="paint0_linear_250_5076" x1="32" y1="0" x2="32" y2="64" gradientUnits="userSpaceOnUse">
<stop stop-color="#E4E5E7" stop-opacity="0.48"/>
<stop offset="1" stop-color="#F7F8F8" stop-opacity="0"/>
<stop offset="1" stop-color="#E4E5E7" stop-opacity="0"/>
</linearGradient>
<linearGradient id="paint1_linear_250_5076" x1="32" y1="0" x2="32" y2="64" gradientUnits="userSpaceOnUse">
<stop stop-color="#E4E5E7"/>
<stop offset="0.765625" stop-color="#E4E5E7" stop-opacity="0"/>
</linearGradient>
</defs>
</svg>
