<svg width="48" height="48" viewBox="0 0 48 48" fill="none" xmlns="http://www.w3.org/2000/svg">
<g clip-path="url(#clip0_2015_788)">
<path fill-rule="evenodd" clip-rule="evenodd" d="M8.19077 21.5568C7.9773 20.5046 7.87021 19.4336 7.8711 18.36C7.8711 15.0722 8.85691 12.0201 10.5571 9.47344C12.9154 5.91772 16.5867 3.44149 20.767 2.58706C22.8376 2.16531 24.9712 2.15725 27.045 2.56336C29.1187 2.96947 31.0917 3.78172 32.8503 4.95336C36.4027 7.31099 38.8783 10.9781 39.7367 15.1543C39.9367 16.1955 40.0564 17.2635 40.0564 18.36C40.0564 21.6389 39.0705 24.6999 37.3793 27.2466C35.0182 30.7995 31.3481 33.2749 27.1694 34.133C26.1141 34.346 25.0403 34.4531 23.9637 34.4526C20.8008 34.4582 17.7075 33.5232 15.0772 31.7667C13.3147 30.6008 11.7994 29.099 10.6178 27.3471C9.43619 25.5952 8.61146 23.6276 8.19077 21.5568Z" fill="#B77700"/>
<path fill-rule="evenodd" clip-rule="evenodd" d="M34.708 25.9958H13.2773V46.8333C13.2773 47.2389 13.4874 47.6141 13.8302 47.8266C14.1731 48.0391 14.6039 48.0584 14.9639 47.8763L18.635 46.0414C18.9329 45.8924 19.2329 45.3461 19.5287 45.1999C19.8309 45.0481 20.1308 45.2964 20.4202 45.1502L23.9927 43.365L27.5652 45.1502C27.8073 45.2716 28.2059 44.8715 28.4567 44.9984C28.8017 45.1695 28.9989 45.8676 29.3503 46.0414L33.0214 47.8763C33.3814 48.0584 33.8122 48.0391 34.1551 47.8266C34.498 47.6141 34.708 47.2389 34.708 46.8333V25.9958Z" fill="url(#paint0_linear_2015_788)"/>
<path fill-rule="evenodd" clip-rule="evenodd" d="M18.6328 46.0684V28.2751H20.4187V45.1801L18.6328 46.0684Z" fill="url(#paint1_linear_2015_788)"/>
<path fill-rule="evenodd" clip-rule="evenodd" d="M27.5645 45.1801V28.2751H29.3503V46.0684L27.5645 45.1801Z" fill="url(#paint2_linear_2015_788)"/>
<path fill-rule="evenodd" clip-rule="evenodd" d="M8.26873 21.5793C8.05479 20.5284 7.94709 19.4586 7.94727 18.3861C7.94727 15.1001 8.93486 12.0534 10.6315 9.50847C12.9879 5.95626 16.656 3.48261 20.8324 2.62923C22.9011 2.20753 25.0328 2.19919 27.1047 2.60469C29.1767 3.01019 31.1479 3.82152 32.905 4.99196C36.4535 7.34778 38.9259 11.0117 39.7825 15.184C39.9843 16.2234 40.1039 17.2914 40.1039 18.3861C40.1066 21.5443 39.1759 24.6329 37.4287 27.2638C35.0696 30.8133 31.4027 33.2861 27.2277 34.143C26.1737 34.3565 25.101 34.4641 24.0256 34.4645C20.8657 34.4697 17.7756 33.5354 15.148 31.7803C13.3873 30.6153 11.8735 29.1148 10.6931 27.3644C9.51273 25.6141 8.6889 23.6482 8.26873 21.5793Z" fill="#C3C3C3"/>
<path fill-rule="evenodd" clip-rule="evenodd" d="M32.9182 4.95452C36.406 7.26925 38.9412 10.9067 39.8039 15.1494L25.3649 15.1631L22.7099 15.166L32.9182 4.95452Z" fill="url(#paint3_linear_2015_788)"/>
<path fill-rule="evenodd" clip-rule="evenodd" d="M39.8074 15.1501C40.0213 16.2047 40.1293 17.2779 40.13 18.354C40.1372 21.5133 39.2088 24.6039 37.4621 27.2364L27.2469 17.0371L25.3684 15.1638L39.8074 15.1501Z" fill="url(#paint4_linear_2015_788)"/>
<path fill-rule="evenodd" clip-rule="evenodd" d="M37.433 27.2088C35.1196 30.6976 31.4815 33.2333 27.2372 34.0948L27.2297 19.6668L27.2273 17.0156L37.433 27.2088Z" fill="url(#paint5_linear_2015_788)"/>
<path fill-rule="evenodd" clip-rule="evenodd" d="M27.2202 34.1976C26.1667 34.4116 25.0944 34.5196 24.0194 34.52C20.8592 34.5276 17.7674 33.5993 15.1339 31.8523L25.3335 21.6365L27.2071 19.7573L27.2202 34.1976Z" fill="url(#paint6_linear_2015_788)"/>
<path fill-rule="evenodd" clip-rule="evenodd" d="M15.188 31.8625C11.6951 29.5551 9.15303 25.9215 8.28418 21.6787L22.7124 21.6466L25.3637 21.6381L15.188 31.8625Z" fill="url(#paint7_linear_2015_788)"/>
<path fill-rule="evenodd" clip-rule="evenodd" d="M8.15421 21.6084C7.94079 20.5559 7.83286 19.4847 7.83203 18.4107C7.82371 15.2494 8.75192 12.1564 10.4995 9.5221L22.5943 21.5959L8.15421 21.6084Z" fill="url(#paint8_linear_2015_788)"/>
<path fill-rule="evenodd" clip-rule="evenodd" d="M10.5129 9.53767C12.8257 6.04913 16.4638 3.51337 20.7081 2.65193L20.7164 17.0781L22.5954 21.6039L10.5129 9.53767Z" fill="url(#paint9_linear_2015_788)"/>
<path fill-rule="evenodd" clip-rule="evenodd" d="M20.7438 2.5326C21.7954 2.31942 22.8655 2.21157 23.9384 2.21065C27.1006 2.20145 30.1945 3.12952 32.8295 4.87766L20.7571 16.9707L20.7438 2.5326Z" fill="url(#paint10_linear_2015_788)"/>
<path fill-rule="evenodd" clip-rule="evenodd" d="M11.9462 20.8128C11.6235 19.2318 11.617 17.6026 11.927 16.019C12.237 14.4355 12.8574 12.929 13.7524 11.5864C14.8741 9.89738 16.3955 8.51143 18.1814 7.55155C19.9673 6.59168 21.9626 6.08758 23.9901 6.08398C27.2457 6.09501 30.3648 7.39317 32.6668 9.69523C34.9689 11.9973 36.2671 15.1164 36.2781 18.372C36.2781 20.8756 35.5249 23.2118 34.2348 25.1576C33.1106 26.8458 31.5878 28.231 29.801 29.1907C28.0141 30.1504 26.0184 30.6551 23.9901 30.66C21.154 30.6628 18.4044 29.6834 16.2088 27.8882C14.0132 26.093 12.507 23.5929 11.9462 20.8128Z" fill="url(#paint11_linear_2015_788)"/>
<path fill-rule="evenodd" clip-rule="evenodd" d="M23.4023 10.0189C23.4534 9.90326 23.537 9.80493 23.643 9.7359C23.749 9.66687 23.8727 9.63013 23.9991 9.63013C24.1256 9.63013 24.2493 9.66687 24.3553 9.7359C24.4613 9.80493 24.5449 9.90326 24.596 10.0189L26.6744 14.724L31.7913 15.2457C31.9171 15.2586 32.0364 15.3077 32.1348 15.3872C32.2331 15.4667 32.3063 15.573 32.3453 15.6932C32.3844 15.8135 32.3877 15.9425 32.3548 16.0646C32.3218 16.1867 32.2542 16.2966 32.16 16.3809L28.3272 19.8116L29.4109 24.8394C29.4388 24.9633 29.4297 25.0925 29.3849 25.2113C29.3401 25.33 29.2615 25.433 29.1588 25.5076C29.0561 25.5822 28.9339 25.6251 28.8071 25.6309C28.6803 25.6368 28.5546 25.6054 28.4454 25.5406L23.9991 22.9558L19.5529 25.5406C19.4435 25.6034 19.3183 25.6332 19.1924 25.6265C19.0664 25.6197 18.9451 25.5767 18.8431 25.5026C18.7411 25.4285 18.6626 25.3265 18.6173 25.2088C18.5719 25.0911 18.5615 24.9629 18.5874 24.8394L19.6711 19.8116L15.8383 16.3809C15.7435 16.2969 15.6753 16.187 15.642 16.0647C15.6087 15.9424 15.6118 15.8131 15.651 15.6926C15.6901 15.5721 15.7636 15.4656 15.8623 15.3862C15.9611 15.3068 16.0809 15.258 16.207 15.2457L21.3239 14.724L23.4023 10.0189Z" fill="url(#paint12_radial_2015_788)"/>
</g>
<defs>
<linearGradient id="paint0_linear_2015_788" x1="23.9927" y1="32.6234" x2="23.9927" y2="45.0343" gradientUnits="userSpaceOnUse">
<stop stop-color="#787878"/>
<stop offset="1" stop-color="#CDCDCD"/>
</linearGradient>
<linearGradient id="paint1_linear_2015_788" x1="18.6328" y1="28.2751" x2="20.4187" y2="28.2751" gradientUnits="userSpaceOnUse">
<stop stop-color="#636363"/>
<stop offset="1" stop-color="#DFDFDF"/>
</linearGradient>
<linearGradient id="paint2_linear_2015_788" x1="27.5645" y1="28.2751" x2="29.3503" y2="28.2751" gradientUnits="userSpaceOnUse">
<stop stop-color="#636363"/>
<stop offset="1" stop-color="#DFDFDF"/>
</linearGradient>
<linearGradient id="paint3_linear_2015_788" x1="27.791" y1="2.84082" x2="42.396" y2="8.86183" gradientUnits="userSpaceOnUse">
<stop stop-color="#636363"/>
<stop offset="1" stop-color="#DFDFDF"/>
</linearGradient>
<linearGradient id="paint4_linear_2015_788" x1="27.4707" y1="10.0642" x2="42.3414" y2="16.1948" gradientUnits="userSpaceOnUse">
<stop stop-color="#636363"/>
<stop offset="1" stop-color="#DFDFDF"/>
</linearGradient>
<linearGradient id="paint5_linear_2015_788" x1="32.3145" y1="14.9001" x2="38.4858" y2="29.7405" gradientUnits="userSpaceOnUse">
<stop stop-color="#636363"/>
<stop offset="1" stop-color="#DFDFDF"/>
</linearGradient>
<linearGradient id="paint6_linear_2015_788" x1="32.3066" y1="21.8596" x2="26.1756" y2="36.7314" gradientUnits="userSpaceOnUse">
<stop stop-color="#636363"/>
<stop offset="1" stop-color="#DFDFDF"/>
</linearGradient>
<linearGradient id="paint7_linear_2015_788" x1="27.4883" y1="26.7222" x2="12.658" y2="32.9197" gradientUnits="userSpaceOnUse">
<stop stop-color="#636363"/>
<stop offset="1" stop-color="#DFDFDF"/>
</linearGradient>
<linearGradient id="paint8_linear_2015_788" x1="20.4922" y1="26.6948" x2="5.62042" y2="20.5638" gradientUnits="userSpaceOnUse">
<stop stop-color="#636363"/>
<stop offset="1" stop-color="#DFDFDF"/>
</linearGradient>
<linearGradient id="paint9_linear_2015_788" x1="16.5723" y1="24.1086" x2="9.46008" y2="7.00589" gradientUnits="userSpaceOnUse">
<stop stop-color="#636363"/>
<stop offset="1" stop-color="#DFDFDF"/>
</linearGradient>
<linearGradient id="paint10_linear_2015_788" x1="15.6582" y1="14.8687" x2="21.7884" y2="-0.00118533" gradientUnits="userSpaceOnUse">
<stop stop-color="#636363"/>
<stop offset="1" stop-color="#DFDFDF"/>
</linearGradient>
<linearGradient id="paint11_linear_2015_788" x1="16.5745" y1="6.95583" x2="32.2276" y2="28.1406" gradientUnits="userSpaceOnUse">
<stop stop-color="#636363"/>
<stop offset="0.5" stop-color="#DEDEDE"/>
<stop offset="1" stop-color="#636363"/>
</linearGradient>
<radialGradient id="paint12_radial_2015_788" cx="0" cy="0" r="1" gradientUnits="userSpaceOnUse" gradientTransform="translate(19.6473 8.75041) rotate(64.476) scale(22.9911 22.9911)">
<stop stop-color="#A1A1A1"/>
<stop offset="1" stop-color="#454545"/>
</radialGradient>
<clipPath id="clip0_2015_788">
<rect width="48" height="48" fill="white"/>
</clipPath>
</defs>
</svg>
