<svg width="36" height="36" viewBox="0 0 36 36" fill="none" xmlns="http://www.w3.org/2000/svg">
<rect width="36" height="36" rx="18" fill="#E6E3FA"/>
<path d="M18 13.5C18.8284 13.5 19.5 12.8284 19.5 12C19.5 11.1716 18.8284 10.5 18 10.5C17.1716 10.5 16.5 11.1716 16.5 12C16.5 12.8284 17.1716 13.5 18 13.5Z" fill="#7850FB"/>
<path opacity="0.7" d="M23.2002 16.3C24.0286 16.3 24.7002 15.6285 24.7002 14.8C24.7002 13.9716 24.0286 13.3 23.2002 13.3C22.3718 13.3 21.7002 13.9716 21.7002 14.8C21.7002 15.6285 22.3718 16.3 23.2002 16.3Z" fill="#7850FB"/>
<path opacity="0.55" d="M24 19.5C24.8284 19.5 25.5 18.8284 25.5 18C25.5 17.1716 24.8284 16.5 24 16.5C23.1716 16.5 22.5 17.1716 22.5 18C22.5 18.8284 23.1716 19.5 24 19.5Z" fill="#7850FB"/>
<path opacity="0.4" d="M23.2002 22.7C24.0286 22.7 24.7002 22.0284 24.7002 21.2C24.7002 20.3715 24.0286 19.7 23.2002 19.7C22.3718 19.7 21.7002 20.3715 21.7002 21.2C21.7002 22.0284 22.3718 22.7 23.2002 22.7Z" fill="#7850FB"/>
<path opacity="0.3" d="M18 25.5C18.8284 25.5 19.5 24.8284 19.5 24C19.5 23.1716 18.8284 22.5 18 22.5C17.1716 22.5 16.5 23.1716 16.5 24C16.5 24.8284 17.1716 25.5 18 25.5Z" fill="#7850FB"/>
<path opacity="0.2" d="M12.7998 22.7C13.6282 22.7 14.2998 22.0284 14.2998 21.2C14.2998 20.3715 13.6282 19.7 12.7998 19.7C11.9714 19.7 11.2998 20.3715 11.2998 21.2C11.2998 22.0284 11.9714 22.7 12.7998 22.7Z" fill="#7850FB"/>
<path opacity="0.15" d="M12 19.5C12.8284 19.5 13.5 18.8284 13.5 18C13.5 17.1716 12.8284 16.5 12 16.5C11.1716 16.5 10.5 17.1716 10.5 18C10.5 18.8284 11.1716 19.5 12 19.5Z" fill="#7850FB"/>
<path opacity="0.1" d="M12.7998 16.3C13.6282 16.3 14.2998 15.6285 14.2998 14.8C14.2998 13.9716 13.6282 13.3 12.7998 13.3C11.9714 13.3 11.2998 13.9716 11.2998 14.8C11.2998 15.6285 11.9714 16.3 12.7998 16.3Z" fill="#7850FB"/>
</svg>
