<svg width="18" height="18" viewBox="0 0 18 18" fill="none" xmlns="http://www.w3.org/2000/svg">
<path d="M15.2999 2.61005C14.4752 1.77915 13.4935 1.12052 12.4121 0.672445C11.3305 0.224371 10.1706 -0.00418327 8.99997 5.79624e-05C7.43498 0.00158796 5.89777 0.414281 4.54241 1.19681C3.18705 1.97933 2.06108 3.10422 1.27725 4.45882C0.493423 5.81343 0.0792672 7.35023 0.0762297 8.91521C0.0732035 10.4803 0.481419 12.0186 1.26 13.3763L0 18L4.72498 16.7625C6.0297 17.4884 7.49573 17.8752 8.98872 17.8875C11.3621 17.8876 13.6394 16.9502 15.3249 15.2793C17.0105 13.6086 17.9679 11.3396 17.9887 8.96629C17.9808 7.782 17.7392 6.61093 17.2778 5.5202C16.8164 4.42946 16.1443 3.44052 15.2999 2.61005ZM8.99997 16.3463C7.66988 16.3472 6.36411 15.9896 5.21998 15.3113L4.94998 15.1425L2.14874 15.885L2.89124 13.1513L2.71124 12.87C1.75415 11.3251 1.39695 9.48266 1.70732 7.69189C2.01768 5.90118 2.97405 4.28647 4.39525 3.15368C5.81645 2.02088 7.60373 1.44867 9.41858 1.54545C11.2334 1.64223 12.9498 2.40127 14.2424 3.67879C15.6554 5.0605 16.4643 6.94523 16.4924 8.92129C16.4747 10.8967 15.6774 12.7851 14.2742 14.1757C12.8711 15.5662 10.9755 16.3464 8.99997 16.3463ZM13.0612 10.7888C12.8362 10.6763 11.745 10.1363 11.5425 10.0688C11.34 10.0013 11.1825 9.95628 11.0362 10.1813C10.8162 10.4829 10.5795 10.772 10.3275 11.0475C10.2037 11.205 10.0687 11.2163 9.84371 11.0475C8.56088 10.5406 7.49214 9.60686 6.81748 8.40379C6.58123 8.01004 7.04247 8.03254 7.46997 7.18879C7.50159 7.12793 7.51801 7.06043 7.51801 6.99192C7.51801 6.92341 7.50159 6.85591 7.46997 6.79504C7.46997 6.68253 6.96372 5.58004 6.78372 5.14129C6.60373 4.70254 6.42373 4.77004 6.27748 4.75879H5.83873C5.72505 4.76053 5.61305 4.78653 5.51023 4.83503C5.4074 4.88353 5.31612 4.95343 5.24248 5.04004C4.99005 5.28549 4.79317 5.5822 4.66509 5.91016C4.53701 6.23811 4.48071 6.58972 4.49998 6.94129C4.57052 7.7829 4.88747 8.58502 5.41123 9.24753C6.36995 10.6828 7.68383 11.8455 9.22497 12.6225C10.0333 13.0943 10.9726 13.2917 11.9025 13.185C12.2121 13.1236 12.5053 12.9977 12.7631 12.8155C13.0209 12.6333 13.2375 12.3989 13.3987 12.1275C13.5481 11.7963 13.5951 11.4281 13.5337 11.07C13.4325 10.9575 13.2862 10.9013 13.0612 10.7888Z" fill="#00C9A7"/>
</svg>
